%TF.GenerationSoftware,KiCad,Pcbnew,9.0.0*%
%TF.CreationDate,2025-08-28T15:42:06-07:00*%
%TF.ProjectId,Simple_12V_Panel,53696d70-6c65-45f3-9132-565f50616e65,rev?*%
%TF.SameCoordinates,Original*%
%TF.FileFunction,Paste,Top*%
%TF.FilePolarity,Positive*%
%FSLAX46Y46*%
G04 Gerber Fmt 4.6, Leading zero omitted, Abs format (unit mm)*
G04 Created by KiCad (PCBNEW 9.0.0) date 2025-08-28 15:42:06*
%MOMM*%
%LPD*%
G01*
G04 APERTURE LIST*
G04 Aperture macros list*
%AMRoundRect*
0 Rectangle with rounded corners*
0 $1 Rounding radius*
0 $2 $3 $4 $5 $6 $7 $8 $9 X,Y pos of 4 corners*
0 Add a 4 corners polygon primitive as box body*
4,1,4,$2,$3,$4,$5,$6,$7,$8,$9,$2,$3,0*
0 Add four circle primitives for the rounded corners*
1,1,$1+$1,$2,$3*
1,1,$1+$1,$4,$5*
1,1,$1+$1,$6,$7*
1,1,$1+$1,$8,$9*
0 Add four rect primitives between the rounded corners*
20,1,$1+$1,$2,$3,$4,$5,0*
20,1,$1+$1,$4,$5,$6,$7,0*
20,1,$1+$1,$6,$7,$8,$9,0*
20,1,$1+$1,$8,$9,$2,$3,0*%
G04 Aperture macros list end*
%ADD10RoundRect,0.435000X2.265000X1.015000X-2.265000X1.015000X-2.265000X-1.015000X2.265000X-1.015000X0*%
%ADD11R,4.775200X0.508000*%
%ADD12R,4.775200X2.768600*%
%ADD13R,1.358900X0.431800*%
%ADD14R,1.701800X2.006600*%
%ADD15RoundRect,0.150000X-0.512500X-0.150000X0.512500X-0.150000X0.512500X0.150000X-0.512500X0.150000X0*%
%ADD16RoundRect,0.250000X0.625000X-0.400000X0.625000X0.400000X-0.625000X0.400000X-0.625000X-0.400000X0*%
%ADD17RoundRect,0.375000X-0.375000X0.625000X-0.375000X-0.625000X0.375000X-0.625000X0.375000X0.625000X0*%
%ADD18RoundRect,0.500000X-1.400000X0.500000X-1.400000X-0.500000X1.400000X-0.500000X1.400000X0.500000X0*%
%ADD19RoundRect,0.375000X0.625000X0.375000X-0.625000X0.375000X-0.625000X-0.375000X0.625000X-0.375000X0*%
%ADD20RoundRect,0.500000X0.500000X1.400000X-0.500000X1.400000X-0.500000X-1.400000X0.500000X-1.400000X0*%
%ADD21RoundRect,0.237500X-0.237500X0.250000X-0.237500X-0.250000X0.237500X-0.250000X0.237500X0.250000X0*%
%ADD22RoundRect,0.250000X0.650000X-1.500000X0.650000X1.500000X-0.650000X1.500000X-0.650000X-1.500000X0*%
%ADD23RoundRect,0.250000X-0.400000X-0.625000X0.400000X-0.625000X0.400000X0.625000X-0.400000X0.625000X0*%
%ADD24RoundRect,0.237500X0.300000X0.237500X-0.300000X0.237500X-0.300000X-0.237500X0.300000X-0.237500X0*%
%ADD25RoundRect,0.237500X-0.237500X0.300000X-0.237500X-0.300000X0.237500X-0.300000X0.237500X0.300000X0*%
%ADD26R,2.387600X1.193800*%
%ADD27RoundRect,0.237500X0.250000X0.237500X-0.250000X0.237500X-0.250000X-0.237500X0.250000X-0.237500X0*%
%ADD28RoundRect,0.237500X0.237500X-0.300000X0.237500X0.300000X-0.237500X0.300000X-0.237500X-0.300000X0*%
%ADD29RoundRect,0.150000X0.587500X0.150000X-0.587500X0.150000X-0.587500X-0.150000X0.587500X-0.150000X0*%
%ADD30RoundRect,0.237500X-0.250000X-0.237500X0.250000X-0.237500X0.250000X0.237500X-0.250000X0.237500X0*%
%ADD31RoundRect,0.237500X-0.287500X-0.237500X0.287500X-0.237500X0.287500X0.237500X-0.287500X0.237500X0*%
%ADD32RoundRect,0.237500X-0.300000X-0.237500X0.300000X-0.237500X0.300000X0.237500X-0.300000X0.237500X0*%
%ADD33RoundRect,0.100000X-0.637500X-0.100000X0.637500X-0.100000X0.637500X0.100000X-0.637500X0.100000X0*%
%ADD34RoundRect,0.150000X0.150000X-0.587500X0.150000X0.587500X-0.150000X0.587500X-0.150000X-0.587500X0*%
%ADD35RoundRect,0.150000X-0.587500X-0.150000X0.587500X-0.150000X0.587500X0.150000X-0.587500X0.150000X0*%
G04 APERTURE END LIST*
D10*
%TO.C,L1*%
X164650000Y-119925000D03*
X164650000Y-110025000D03*
%TD*%
D11*
%TO.C,U9*%
X196000000Y-84220000D03*
D12*
X196000000Y-86360000D03*
D11*
X196000000Y-88500000D03*
%TD*%
%TO.C,U8*%
X196000000Y-100540000D03*
D12*
X196000000Y-102680000D03*
D11*
X196000000Y-104820000D03*
%TD*%
%TO.C,U7*%
X196000000Y-116860000D03*
D12*
X196000000Y-119000000D03*
D11*
X196000000Y-121140000D03*
%TD*%
D13*
%TO.C,U2*%
X169228850Y-91974979D03*
X169228850Y-91324993D03*
X169228850Y-90675007D03*
X169228850Y-90025021D03*
X164771150Y-90025021D03*
X164771150Y-90675007D03*
X164771150Y-91324993D03*
X164771150Y-91974979D03*
D14*
X167000000Y-91000000D03*
%TD*%
D15*
%TO.C,U1*%
X126500000Y-94000000D03*
X124225000Y-94950000D03*
X124225000Y-93050000D03*
%TD*%
D16*
%TO.C,R13*%
X181275000Y-87180000D03*
X181275000Y-84080000D03*
%TD*%
D17*
%TO.C,Q4*%
X144300000Y-85850000D03*
X142000000Y-85850000D03*
D18*
X142000000Y-92150000D03*
D17*
X139700000Y-85850000D03*
%TD*%
D19*
%TO.C,Q3*%
X148587500Y-100300000D03*
X148587500Y-98000000D03*
D20*
X142287500Y-98000000D03*
D19*
X148587500Y-95700000D03*
%TD*%
D21*
%TO.C,R1*%
X141500000Y-103675000D03*
X141500000Y-105500000D03*
%TD*%
D22*
%TO.C,D5*%
X161000000Y-89500000D03*
X161000000Y-84500000D03*
%TD*%
D23*
%TO.C,R19*%
X157887500Y-100000000D03*
X160987500Y-100000000D03*
%TD*%
%TO.C,R18*%
X152387500Y-100000000D03*
X155487500Y-100000000D03*
%TD*%
D16*
%TO.C,R17*%
X145500000Y-98550000D03*
X145500000Y-95450000D03*
%TD*%
D23*
%TO.C,R16*%
X139450000Y-89000000D03*
X142550000Y-89000000D03*
%TD*%
D16*
%TO.C,R15*%
X181275000Y-119820000D03*
X181275000Y-116720000D03*
%TD*%
%TO.C,R14*%
X181275000Y-103500000D03*
X181275000Y-100400000D03*
%TD*%
D23*
%TO.C,R4*%
X165450000Y-97000000D03*
X168550000Y-97000000D03*
%TD*%
D24*
%TO.C,C24*%
X116362500Y-101000000D03*
X114637500Y-101000000D03*
%TD*%
D25*
%TO.C,C20*%
X128000000Y-102225000D03*
X128000000Y-103950000D03*
%TD*%
D26*
%TO.C,Y1*%
X129000000Y-100228300D03*
X129000000Y-98221700D03*
%TD*%
D25*
%TO.C,C14*%
X161000000Y-103137500D03*
X161000000Y-104862500D03*
%TD*%
%TO.C,C18*%
X124000000Y-102225000D03*
X124000000Y-103950000D03*
%TD*%
%TO.C,C13*%
X163510000Y-103137500D03*
X163510000Y-104862500D03*
%TD*%
D27*
%TO.C,R8*%
X116412500Y-103000000D03*
X114587500Y-103000000D03*
%TD*%
D21*
%TO.C,R10*%
X120000000Y-102175000D03*
X120000000Y-104000000D03*
%TD*%
D25*
%TO.C,C29*%
X132000000Y-92137500D03*
X132000000Y-93862500D03*
%TD*%
%TO.C,C28*%
X134000000Y-92137500D03*
X134000000Y-93862500D03*
%TD*%
D28*
%TO.C,C27*%
X121902500Y-94862500D03*
X121902500Y-93137500D03*
%TD*%
D25*
%TO.C,C30*%
X136500000Y-89500000D03*
X136500000Y-91225000D03*
%TD*%
D29*
%TO.C,Q2*%
X154437500Y-96450000D03*
X154437500Y-94550000D03*
X152562500Y-95500000D03*
%TD*%
D30*
%TO.C,R9*%
X125087500Y-121000000D03*
X126912500Y-121000000D03*
%TD*%
D31*
%TO.C,D3*%
X121212500Y-121000000D03*
X122962500Y-121000000D03*
%TD*%
D25*
%TO.C,C17*%
X122000000Y-102225000D03*
X122000000Y-103950000D03*
%TD*%
D32*
%TO.C,C22*%
X124137500Y-98215000D03*
X125862500Y-98215000D03*
%TD*%
%TO.C,C31*%
X140000000Y-81500000D03*
X141725000Y-81500000D03*
%TD*%
%TO.C,C23*%
X124137500Y-100225000D03*
X125862500Y-100225000D03*
%TD*%
D25*
%TO.C,C21*%
X130000000Y-102225000D03*
X130000000Y-103950000D03*
%TD*%
D24*
%TO.C,C25*%
X116362500Y-99000000D03*
X114637500Y-99000000D03*
%TD*%
D25*
%TO.C,C19*%
X126000000Y-102225000D03*
X126000000Y-103950000D03*
%TD*%
D33*
%TO.C,U5*%
X132137500Y-98300000D03*
X132137500Y-98950000D03*
X132137500Y-99600000D03*
X132137500Y-100250000D03*
X132137500Y-100900000D03*
X132137500Y-101550000D03*
X132137500Y-102200000D03*
X132137500Y-102850000D03*
X132137500Y-103500000D03*
X132137500Y-104150000D03*
X137862500Y-104150000D03*
X137862500Y-103500000D03*
X137862500Y-102850000D03*
X137862500Y-102200000D03*
X137862500Y-101550000D03*
X137862500Y-100900000D03*
X137862500Y-100250000D03*
X137862500Y-99600000D03*
X137862500Y-98950000D03*
X137862500Y-98300000D03*
%TD*%
D32*
%TO.C,C32*%
X140000000Y-83500000D03*
X141725000Y-83500000D03*
%TD*%
D34*
%TO.C,U10*%
X114600000Y-97000000D03*
X116500000Y-97000000D03*
X115550000Y-95125000D03*
%TD*%
D35*
%TO.C,Q1*%
X158500000Y-94500000D03*
X158500000Y-96400000D03*
X160375000Y-95450000D03*
%TD*%
D25*
%TO.C,C11*%
X171500000Y-90137500D03*
X171500000Y-91862500D03*
%TD*%
D28*
%TO.C,C26*%
X119500000Y-94862500D03*
X119500000Y-93137500D03*
%TD*%
M02*
