%TF.GenerationSoftware,KiCad,Pcbnew,9.0.0*%
%TF.CreationDate,2025-08-28T16:21:25-07:00*%
%TF.ProjectId,Simple_12V_Panel,53696d70-6c65-45f3-9132-565f50616e65,rev?*%
%TF.SameCoordinates,Original*%
%TF.FileFunction,Legend,Bot*%
%TF.FilePolarity,Positive*%
%FSLAX46Y46*%
G04 Gerber Fmt 4.6, Leading zero omitted, Abs format (unit mm)*
G04 Created by KiCad (PCBNEW 9.0.0) date 2025-08-28 16:21:25*
%MOMM*%
%LPD*%
G01*
G04 APERTURE LIST*
%ADD10C,0.100000*%
%ADD11C,0.500000*%
%ADD12C,0.000000*%
G04 APERTURE END LIST*
D10*
X124127693Y-81827580D02*
X123556265Y-81827580D01*
X123841979Y-81827580D02*
X123841979Y-82827580D01*
X123841979Y-82827580D02*
X123746741Y-82684723D01*
X123746741Y-82684723D02*
X123651503Y-82589485D01*
X123651503Y-82589485D02*
X123556265Y-82541866D01*
X124508646Y-82732342D02*
X124556265Y-82779961D01*
X124556265Y-82779961D02*
X124651503Y-82827580D01*
X124651503Y-82827580D02*
X124889598Y-82827580D01*
X124889598Y-82827580D02*
X124984836Y-82779961D01*
X124984836Y-82779961D02*
X125032455Y-82732342D01*
X125032455Y-82732342D02*
X125080074Y-82637104D01*
X125080074Y-82637104D02*
X125080074Y-82541866D01*
X125080074Y-82541866D02*
X125032455Y-82399009D01*
X125032455Y-82399009D02*
X124461027Y-81827580D01*
X124461027Y-81827580D02*
X125080074Y-81827580D01*
X125365789Y-82827580D02*
X125699122Y-81827580D01*
X125699122Y-81827580D02*
X126032455Y-82827580D01*
X126984837Y-82494247D02*
X127365789Y-82494247D01*
X127127694Y-82827580D02*
X127127694Y-81970438D01*
X127127694Y-81970438D02*
X127175313Y-81875200D01*
X127175313Y-81875200D02*
X127270551Y-81827580D01*
X127270551Y-81827580D02*
X127365789Y-81827580D01*
X127841980Y-81827580D02*
X127746742Y-81875200D01*
X127746742Y-81875200D02*
X127699123Y-81922819D01*
X127699123Y-81922819D02*
X127651504Y-82018057D01*
X127651504Y-82018057D02*
X127651504Y-82303771D01*
X127651504Y-82303771D02*
X127699123Y-82399009D01*
X127699123Y-82399009D02*
X127746742Y-82446628D01*
X127746742Y-82446628D02*
X127841980Y-82494247D01*
X127841980Y-82494247D02*
X127984837Y-82494247D01*
X127984837Y-82494247D02*
X128080075Y-82446628D01*
X128080075Y-82446628D02*
X128127694Y-82399009D01*
X128127694Y-82399009D02*
X128175313Y-82303771D01*
X128175313Y-82303771D02*
X128175313Y-82018057D01*
X128175313Y-82018057D02*
X128127694Y-81922819D01*
X128127694Y-81922819D02*
X128080075Y-81875200D01*
X128080075Y-81875200D02*
X127984837Y-81827580D01*
X127984837Y-81827580D02*
X127841980Y-81827580D01*
X129270552Y-82827580D02*
X129889599Y-82827580D01*
X129889599Y-82827580D02*
X129556266Y-82446628D01*
X129556266Y-82446628D02*
X129699123Y-82446628D01*
X129699123Y-82446628D02*
X129794361Y-82399009D01*
X129794361Y-82399009D02*
X129841980Y-82351390D01*
X129841980Y-82351390D02*
X129889599Y-82256152D01*
X129889599Y-82256152D02*
X129889599Y-82018057D01*
X129889599Y-82018057D02*
X129841980Y-81922819D01*
X129841980Y-81922819D02*
X129794361Y-81875200D01*
X129794361Y-81875200D02*
X129699123Y-81827580D01*
X129699123Y-81827580D02*
X129413409Y-81827580D01*
X129413409Y-81827580D02*
X129318171Y-81875200D01*
X129318171Y-81875200D02*
X129270552Y-81922819D01*
X130508647Y-82827580D02*
X130603885Y-82827580D01*
X130603885Y-82827580D02*
X130699123Y-82779961D01*
X130699123Y-82779961D02*
X130746742Y-82732342D01*
X130746742Y-82732342D02*
X130794361Y-82637104D01*
X130794361Y-82637104D02*
X130841980Y-82446628D01*
X130841980Y-82446628D02*
X130841980Y-82208533D01*
X130841980Y-82208533D02*
X130794361Y-82018057D01*
X130794361Y-82018057D02*
X130746742Y-81922819D01*
X130746742Y-81922819D02*
X130699123Y-81875200D01*
X130699123Y-81875200D02*
X130603885Y-81827580D01*
X130603885Y-81827580D02*
X130508647Y-81827580D01*
X130508647Y-81827580D02*
X130413409Y-81875200D01*
X130413409Y-81875200D02*
X130365790Y-81922819D01*
X130365790Y-81922819D02*
X130318171Y-82018057D01*
X130318171Y-82018057D02*
X130270552Y-82208533D01*
X130270552Y-82208533D02*
X130270552Y-82446628D01*
X130270552Y-82446628D02*
X130318171Y-82637104D01*
X130318171Y-82637104D02*
X130365790Y-82732342D01*
X130365790Y-82732342D02*
X130413409Y-82779961D01*
X130413409Y-82779961D02*
X130508647Y-82827580D01*
X131127695Y-82827580D02*
X131461028Y-81827580D01*
X131461028Y-81827580D02*
X131794361Y-82827580D01*
X164961029Y-110362475D02*
X165437219Y-110362475D01*
X165437219Y-110362475D02*
X165484838Y-110838665D01*
X165484838Y-110838665D02*
X165437219Y-110791046D01*
X165437219Y-110791046D02*
X165341981Y-110743427D01*
X165341981Y-110743427D02*
X165103886Y-110743427D01*
X165103886Y-110743427D02*
X165008648Y-110791046D01*
X165008648Y-110791046D02*
X164961029Y-110838665D01*
X164961029Y-110838665D02*
X164913410Y-110933903D01*
X164913410Y-110933903D02*
X164913410Y-111171998D01*
X164913410Y-111171998D02*
X164961029Y-111267236D01*
X164961029Y-111267236D02*
X165008648Y-111314856D01*
X165008648Y-111314856D02*
X165103886Y-111362475D01*
X165103886Y-111362475D02*
X165341981Y-111362475D01*
X165341981Y-111362475D02*
X165437219Y-111314856D01*
X165437219Y-111314856D02*
X165484838Y-111267236D01*
X164056267Y-110695808D02*
X164056267Y-111362475D01*
X164294362Y-110314856D02*
X164532457Y-111029141D01*
X164532457Y-111029141D02*
X163913410Y-111029141D01*
X163627695Y-110362475D02*
X163389600Y-111362475D01*
X163389600Y-111362475D02*
X163199124Y-110648189D01*
X163199124Y-110648189D02*
X163008648Y-111362475D01*
X163008648Y-111362475D02*
X162770553Y-110362475D01*
X161627695Y-111362475D02*
X161627695Y-110362475D01*
X161627695Y-110838665D02*
X161056267Y-110838665D01*
X161056267Y-111362475D02*
X161056267Y-110362475D01*
X160580076Y-111362475D02*
X160580076Y-110695808D01*
X160580076Y-110362475D02*
X160627695Y-110410094D01*
X160627695Y-110410094D02*
X160580076Y-110457713D01*
X160580076Y-110457713D02*
X160532457Y-110410094D01*
X160532457Y-110410094D02*
X160580076Y-110362475D01*
X160580076Y-110362475D02*
X160580076Y-110457713D01*
X159675315Y-110695808D02*
X159675315Y-111505332D01*
X159675315Y-111505332D02*
X159722934Y-111600570D01*
X159722934Y-111600570D02*
X159770553Y-111648189D01*
X159770553Y-111648189D02*
X159865791Y-111695808D01*
X159865791Y-111695808D02*
X160008648Y-111695808D01*
X160008648Y-111695808D02*
X160103886Y-111648189D01*
X159675315Y-111314856D02*
X159770553Y-111362475D01*
X159770553Y-111362475D02*
X159961029Y-111362475D01*
X159961029Y-111362475D02*
X160056267Y-111314856D01*
X160056267Y-111314856D02*
X160103886Y-111267236D01*
X160103886Y-111267236D02*
X160151505Y-111171998D01*
X160151505Y-111171998D02*
X160151505Y-110886284D01*
X160151505Y-110886284D02*
X160103886Y-110791046D01*
X160103886Y-110791046D02*
X160056267Y-110743427D01*
X160056267Y-110743427D02*
X159961029Y-110695808D01*
X159961029Y-110695808D02*
X159770553Y-110695808D01*
X159770553Y-110695808D02*
X159675315Y-110743427D01*
X159199124Y-111362475D02*
X159199124Y-110362475D01*
X158770553Y-111362475D02*
X158770553Y-110838665D01*
X158770553Y-110838665D02*
X158818172Y-110743427D01*
X158818172Y-110743427D02*
X158913410Y-110695808D01*
X158913410Y-110695808D02*
X159056267Y-110695808D01*
X159056267Y-110695808D02*
X159151505Y-110743427D01*
X159151505Y-110743427D02*
X159199124Y-110791046D01*
X157532457Y-111362475D02*
X157532457Y-110362475D01*
X157532457Y-110362475D02*
X157151505Y-110362475D01*
X157151505Y-110362475D02*
X157056267Y-110410094D01*
X157056267Y-110410094D02*
X157008648Y-110457713D01*
X157008648Y-110457713D02*
X156961029Y-110552951D01*
X156961029Y-110552951D02*
X156961029Y-110695808D01*
X156961029Y-110695808D02*
X157008648Y-110791046D01*
X157008648Y-110791046D02*
X157056267Y-110838665D01*
X157056267Y-110838665D02*
X157151505Y-110886284D01*
X157151505Y-110886284D02*
X157532457Y-110886284D01*
X156389600Y-111362475D02*
X156484838Y-111314856D01*
X156484838Y-111314856D02*
X156532457Y-111267236D01*
X156532457Y-111267236D02*
X156580076Y-111171998D01*
X156580076Y-111171998D02*
X156580076Y-110886284D01*
X156580076Y-110886284D02*
X156532457Y-110791046D01*
X156532457Y-110791046D02*
X156484838Y-110743427D01*
X156484838Y-110743427D02*
X156389600Y-110695808D01*
X156389600Y-110695808D02*
X156246743Y-110695808D01*
X156246743Y-110695808D02*
X156151505Y-110743427D01*
X156151505Y-110743427D02*
X156103886Y-110791046D01*
X156103886Y-110791046D02*
X156056267Y-110886284D01*
X156056267Y-110886284D02*
X156056267Y-111171998D01*
X156056267Y-111171998D02*
X156103886Y-111267236D01*
X156103886Y-111267236D02*
X156151505Y-111314856D01*
X156151505Y-111314856D02*
X156246743Y-111362475D01*
X156246743Y-111362475D02*
X156389600Y-111362475D01*
X155722933Y-110695808D02*
X155532457Y-111362475D01*
X155532457Y-111362475D02*
X155341981Y-110886284D01*
X155341981Y-110886284D02*
X155151505Y-111362475D01*
X155151505Y-111362475D02*
X154961029Y-110695808D01*
X154199124Y-111314856D02*
X154294362Y-111362475D01*
X154294362Y-111362475D02*
X154484838Y-111362475D01*
X154484838Y-111362475D02*
X154580076Y-111314856D01*
X154580076Y-111314856D02*
X154627695Y-111219617D01*
X154627695Y-111219617D02*
X154627695Y-110838665D01*
X154627695Y-110838665D02*
X154580076Y-110743427D01*
X154580076Y-110743427D02*
X154484838Y-110695808D01*
X154484838Y-110695808D02*
X154294362Y-110695808D01*
X154294362Y-110695808D02*
X154199124Y-110743427D01*
X154199124Y-110743427D02*
X154151505Y-110838665D01*
X154151505Y-110838665D02*
X154151505Y-110933903D01*
X154151505Y-110933903D02*
X154627695Y-111029141D01*
X153722933Y-111362475D02*
X153722933Y-110695808D01*
X153722933Y-110886284D02*
X153675314Y-110791046D01*
X153675314Y-110791046D02*
X153627695Y-110743427D01*
X153627695Y-110743427D02*
X153532457Y-110695808D01*
X153532457Y-110695808D02*
X153437219Y-110695808D01*
X151865790Y-111362475D02*
X152341980Y-111362475D01*
X152341980Y-111362475D02*
X152341980Y-110362475D01*
X151532456Y-110838665D02*
X151199123Y-110838665D01*
X151056266Y-111362475D02*
X151532456Y-111362475D01*
X151532456Y-111362475D02*
X151532456Y-110362475D01*
X151532456Y-110362475D02*
X151056266Y-110362475D01*
X150627694Y-111362475D02*
X150627694Y-110362475D01*
X150627694Y-110362475D02*
X150389599Y-110362475D01*
X150389599Y-110362475D02*
X150246742Y-110410094D01*
X150246742Y-110410094D02*
X150151504Y-110505332D01*
X150151504Y-110505332D02*
X150103885Y-110600570D01*
X150103885Y-110600570D02*
X150056266Y-110791046D01*
X150056266Y-110791046D02*
X150056266Y-110933903D01*
X150056266Y-110933903D02*
X150103885Y-111124379D01*
X150103885Y-111124379D02*
X150151504Y-111219617D01*
X150151504Y-111219617D02*
X150246742Y-111314856D01*
X150246742Y-111314856D02*
X150389599Y-111362475D01*
X150389599Y-111362475D02*
X150627694Y-111362475D01*
X148865789Y-111362475D02*
X148865789Y-110362475D01*
X148865789Y-110743427D02*
X148770551Y-110695808D01*
X148770551Y-110695808D02*
X148580075Y-110695808D01*
X148580075Y-110695808D02*
X148484837Y-110743427D01*
X148484837Y-110743427D02*
X148437218Y-110791046D01*
X148437218Y-110791046D02*
X148389599Y-110886284D01*
X148389599Y-110886284D02*
X148389599Y-111171998D01*
X148389599Y-111171998D02*
X148437218Y-111267236D01*
X148437218Y-111267236D02*
X148484837Y-111314856D01*
X148484837Y-111314856D02*
X148580075Y-111362475D01*
X148580075Y-111362475D02*
X148770551Y-111362475D01*
X148770551Y-111362475D02*
X148865789Y-111314856D01*
X147818170Y-111362475D02*
X147913408Y-111314856D01*
X147913408Y-111314856D02*
X147961027Y-111267236D01*
X147961027Y-111267236D02*
X148008646Y-111171998D01*
X148008646Y-111171998D02*
X148008646Y-110886284D01*
X148008646Y-110886284D02*
X147961027Y-110791046D01*
X147961027Y-110791046D02*
X147913408Y-110743427D01*
X147913408Y-110743427D02*
X147818170Y-110695808D01*
X147818170Y-110695808D02*
X147675313Y-110695808D01*
X147675313Y-110695808D02*
X147580075Y-110743427D01*
X147580075Y-110743427D02*
X147532456Y-110791046D01*
X147532456Y-110791046D02*
X147484837Y-110886284D01*
X147484837Y-110886284D02*
X147484837Y-111171998D01*
X147484837Y-111171998D02*
X147532456Y-111267236D01*
X147532456Y-111267236D02*
X147580075Y-111314856D01*
X147580075Y-111314856D02*
X147675313Y-111362475D01*
X147675313Y-111362475D02*
X147818170Y-111362475D01*
X146627694Y-111362475D02*
X146627694Y-110838665D01*
X146627694Y-110838665D02*
X146675313Y-110743427D01*
X146675313Y-110743427D02*
X146770551Y-110695808D01*
X146770551Y-110695808D02*
X146961027Y-110695808D01*
X146961027Y-110695808D02*
X147056265Y-110743427D01*
X146627694Y-111314856D02*
X146722932Y-111362475D01*
X146722932Y-111362475D02*
X146961027Y-111362475D01*
X146961027Y-111362475D02*
X147056265Y-111314856D01*
X147056265Y-111314856D02*
X147103884Y-111219617D01*
X147103884Y-111219617D02*
X147103884Y-111124379D01*
X147103884Y-111124379D02*
X147056265Y-111029141D01*
X147056265Y-111029141D02*
X146961027Y-110981522D01*
X146961027Y-110981522D02*
X146722932Y-110981522D01*
X146722932Y-110981522D02*
X146627694Y-110933903D01*
X146151503Y-111362475D02*
X146151503Y-110695808D01*
X146151503Y-110886284D02*
X146103884Y-110791046D01*
X146103884Y-110791046D02*
X146056265Y-110743427D01*
X146056265Y-110743427D02*
X145961027Y-110695808D01*
X145961027Y-110695808D02*
X145865789Y-110695808D01*
X145103884Y-111362475D02*
X145103884Y-110362475D01*
X145103884Y-111314856D02*
X145199122Y-111362475D01*
X145199122Y-111362475D02*
X145389598Y-111362475D01*
X145389598Y-111362475D02*
X145484836Y-111314856D01*
X145484836Y-111314856D02*
X145532455Y-111267236D01*
X145532455Y-111267236D02*
X145580074Y-111171998D01*
X145580074Y-111171998D02*
X145580074Y-110886284D01*
X145580074Y-110886284D02*
X145532455Y-110791046D01*
X145532455Y-110791046D02*
X145484836Y-110743427D01*
X145484836Y-110743427D02*
X145389598Y-110695808D01*
X145389598Y-110695808D02*
X145199122Y-110695808D01*
X145199122Y-110695808D02*
X145103884Y-110743427D01*
X153484835Y-112972419D02*
X153484835Y-111972419D01*
X153056264Y-112972419D02*
X153056264Y-112448609D01*
X153056264Y-112448609D02*
X153103883Y-112353371D01*
X153103883Y-112353371D02*
X153199121Y-112305752D01*
X153199121Y-112305752D02*
X153341978Y-112305752D01*
X153341978Y-112305752D02*
X153437216Y-112353371D01*
X153437216Y-112353371D02*
X153484835Y-112400990D01*
X152580073Y-112972419D02*
X152580073Y-112305752D01*
X152580073Y-111972419D02*
X152627692Y-112020038D01*
X152627692Y-112020038D02*
X152580073Y-112067657D01*
X152580073Y-112067657D02*
X152532454Y-112020038D01*
X152532454Y-112020038D02*
X152580073Y-111972419D01*
X152580073Y-111972419D02*
X152580073Y-112067657D01*
X151484836Y-112496228D02*
X151532455Y-112448609D01*
X151532455Y-112448609D02*
X151627693Y-112400990D01*
X151627693Y-112400990D02*
X151722931Y-112400990D01*
X151722931Y-112400990D02*
X151818169Y-112448609D01*
X151818169Y-112448609D02*
X151865788Y-112496228D01*
X151865788Y-112496228D02*
X151913407Y-112591466D01*
X151913407Y-112591466D02*
X151913407Y-112686704D01*
X151913407Y-112686704D02*
X151865788Y-112781942D01*
X151865788Y-112781942D02*
X151818169Y-112829561D01*
X151818169Y-112829561D02*
X151722931Y-112877180D01*
X151722931Y-112877180D02*
X151627693Y-112877180D01*
X151627693Y-112877180D02*
X151532455Y-112829561D01*
X151532455Y-112829561D02*
X151484836Y-112781942D01*
X151484836Y-112400990D02*
X151484836Y-112781942D01*
X151484836Y-112781942D02*
X151437217Y-112829561D01*
X151437217Y-112829561D02*
X151389598Y-112829561D01*
X151389598Y-112829561D02*
X151294359Y-112781942D01*
X151294359Y-112781942D02*
X151246740Y-112686704D01*
X151246740Y-112686704D02*
X151246740Y-112448609D01*
X151246740Y-112448609D02*
X151341979Y-112305752D01*
X151341979Y-112305752D02*
X151484836Y-112210514D01*
X151484836Y-112210514D02*
X151675312Y-112162895D01*
X151675312Y-112162895D02*
X151865788Y-112210514D01*
X151865788Y-112210514D02*
X152008645Y-112305752D01*
X152008645Y-112305752D02*
X152103883Y-112448609D01*
X152103883Y-112448609D02*
X152151502Y-112639085D01*
X152151502Y-112639085D02*
X152103883Y-112829561D01*
X152103883Y-112829561D02*
X152008645Y-112972419D01*
X152008645Y-112972419D02*
X151865788Y-113067657D01*
X151865788Y-113067657D02*
X151675312Y-113115276D01*
X151675312Y-113115276D02*
X151484836Y-113067657D01*
X151484836Y-113067657D02*
X151341979Y-112972419D01*
X150818169Y-112972419D02*
X150818169Y-112305752D01*
X150818169Y-111972419D02*
X150865788Y-112020038D01*
X150865788Y-112020038D02*
X150818169Y-112067657D01*
X150818169Y-112067657D02*
X150770550Y-112020038D01*
X150770550Y-112020038D02*
X150818169Y-111972419D01*
X150818169Y-111972419D02*
X150818169Y-112067657D01*
X150341979Y-112972419D02*
X150341979Y-111972419D01*
X149913408Y-112972419D02*
X149913408Y-112448609D01*
X149913408Y-112448609D02*
X149961027Y-112353371D01*
X149961027Y-112353371D02*
X150056265Y-112305752D01*
X150056265Y-112305752D02*
X150199122Y-112305752D01*
X150199122Y-112305752D02*
X150294360Y-112353371D01*
X150294360Y-112353371D02*
X150341979Y-112400990D01*
X149484836Y-112924800D02*
X149389598Y-112972419D01*
X149389598Y-112972419D02*
X149199122Y-112972419D01*
X149199122Y-112972419D02*
X149103884Y-112924800D01*
X149103884Y-112924800D02*
X149056265Y-112829561D01*
X149056265Y-112829561D02*
X149056265Y-112781942D01*
X149056265Y-112781942D02*
X149103884Y-112686704D01*
X149103884Y-112686704D02*
X149199122Y-112639085D01*
X149199122Y-112639085D02*
X149341979Y-112639085D01*
X149341979Y-112639085D02*
X149437217Y-112591466D01*
X149437217Y-112591466D02*
X149484836Y-112496228D01*
X149484836Y-112496228D02*
X149484836Y-112448609D01*
X149484836Y-112448609D02*
X149437217Y-112353371D01*
X149437217Y-112353371D02*
X149341979Y-112305752D01*
X149341979Y-112305752D02*
X149199122Y-112305752D01*
X149199122Y-112305752D02*
X149103884Y-112353371D01*
X148199122Y-112972419D02*
X148199122Y-112448609D01*
X148199122Y-112448609D02*
X148246741Y-112353371D01*
X148246741Y-112353371D02*
X148341979Y-112305752D01*
X148341979Y-112305752D02*
X148532455Y-112305752D01*
X148532455Y-112305752D02*
X148627693Y-112353371D01*
X148199122Y-112924800D02*
X148294360Y-112972419D01*
X148294360Y-112972419D02*
X148532455Y-112972419D01*
X148532455Y-112972419D02*
X148627693Y-112924800D01*
X148627693Y-112924800D02*
X148675312Y-112829561D01*
X148675312Y-112829561D02*
X148675312Y-112734323D01*
X148675312Y-112734323D02*
X148627693Y-112639085D01*
X148627693Y-112639085D02*
X148532455Y-112591466D01*
X148532455Y-112591466D02*
X148294360Y-112591466D01*
X148294360Y-112591466D02*
X148199122Y-112543847D01*
X147722931Y-112305752D02*
X147722931Y-112972419D01*
X147722931Y-112400990D02*
X147675312Y-112353371D01*
X147675312Y-112353371D02*
X147580074Y-112305752D01*
X147580074Y-112305752D02*
X147437217Y-112305752D01*
X147437217Y-112305752D02*
X147341979Y-112353371D01*
X147341979Y-112353371D02*
X147294360Y-112448609D01*
X147294360Y-112448609D02*
X147294360Y-112972419D01*
X146818169Y-112877180D02*
X146770550Y-112924800D01*
X146770550Y-112924800D02*
X146818169Y-112972419D01*
X146818169Y-112972419D02*
X146865788Y-112924800D01*
X146865788Y-112924800D02*
X146818169Y-112877180D01*
X146818169Y-112877180D02*
X146818169Y-112972419D01*
X145913408Y-112924800D02*
X146008646Y-112972419D01*
X146008646Y-112972419D02*
X146199122Y-112972419D01*
X146199122Y-112972419D02*
X146294360Y-112924800D01*
X146294360Y-112924800D02*
X146341979Y-112877180D01*
X146341979Y-112877180D02*
X146389598Y-112781942D01*
X146389598Y-112781942D02*
X146389598Y-112496228D01*
X146389598Y-112496228D02*
X146341979Y-112400990D01*
X146341979Y-112400990D02*
X146294360Y-112353371D01*
X146294360Y-112353371D02*
X146199122Y-112305752D01*
X146199122Y-112305752D02*
X146008646Y-112305752D01*
X146008646Y-112305752D02*
X145913408Y-112353371D01*
X145056265Y-112924800D02*
X145151503Y-112972419D01*
X145151503Y-112972419D02*
X145341979Y-112972419D01*
X145341979Y-112972419D02*
X145437217Y-112924800D01*
X145437217Y-112924800D02*
X145484836Y-112877180D01*
X145484836Y-112877180D02*
X145532455Y-112781942D01*
X145532455Y-112781942D02*
X145532455Y-112496228D01*
X145532455Y-112496228D02*
X145484836Y-112400990D01*
X145484836Y-112400990D02*
X145437217Y-112353371D01*
X145437217Y-112353371D02*
X145341979Y-112305752D01*
X145341979Y-112305752D02*
X145151503Y-112305752D01*
X145151503Y-112305752D02*
X145056265Y-112353371D01*
X141819925Y-123363561D02*
X141667544Y-123896895D01*
X141667544Y-123896895D02*
X141515163Y-123515942D01*
X141515163Y-123515942D02*
X141362782Y-123896895D01*
X141362782Y-123896895D02*
X141210401Y-123363561D01*
X140905639Y-123896895D02*
X140905639Y-123096895D01*
X140562782Y-123896895D02*
X140562782Y-123477847D01*
X140562782Y-123477847D02*
X140600877Y-123401657D01*
X140600877Y-123401657D02*
X140677068Y-123363561D01*
X140677068Y-123363561D02*
X140791354Y-123363561D01*
X140791354Y-123363561D02*
X140867544Y-123401657D01*
X140867544Y-123401657D02*
X140905639Y-123439752D01*
X140067544Y-123896895D02*
X140143734Y-123858800D01*
X140143734Y-123858800D02*
X140181829Y-123820704D01*
X140181829Y-123820704D02*
X140219925Y-123744514D01*
X140219925Y-123744514D02*
X140219925Y-123515942D01*
X140219925Y-123515942D02*
X140181829Y-123439752D01*
X140181829Y-123439752D02*
X140143734Y-123401657D01*
X140143734Y-123401657D02*
X140067544Y-123363561D01*
X140067544Y-123363561D02*
X139953258Y-123363561D01*
X139953258Y-123363561D02*
X139877067Y-123401657D01*
X139877067Y-123401657D02*
X139838972Y-123439752D01*
X139838972Y-123439752D02*
X139800877Y-123515942D01*
X139800877Y-123515942D02*
X139800877Y-123744514D01*
X139800877Y-123744514D02*
X139838972Y-123820704D01*
X139838972Y-123820704D02*
X139877067Y-123858800D01*
X139877067Y-123858800D02*
X139953258Y-123896895D01*
X139953258Y-123896895D02*
X140067544Y-123896895D01*
X139115162Y-123896895D02*
X139115162Y-123477847D01*
X139115162Y-123477847D02*
X139153257Y-123401657D01*
X139153257Y-123401657D02*
X139229448Y-123363561D01*
X139229448Y-123363561D02*
X139381829Y-123363561D01*
X139381829Y-123363561D02*
X139458019Y-123401657D01*
X139115162Y-123858800D02*
X139191353Y-123896895D01*
X139191353Y-123896895D02*
X139381829Y-123896895D01*
X139381829Y-123896895D02*
X139458019Y-123858800D01*
X139458019Y-123858800D02*
X139496115Y-123782609D01*
X139496115Y-123782609D02*
X139496115Y-123706419D01*
X139496115Y-123706419D02*
X139458019Y-123630228D01*
X139458019Y-123630228D02*
X139381829Y-123592133D01*
X139381829Y-123592133D02*
X139191353Y-123592133D01*
X139191353Y-123592133D02*
X139115162Y-123554038D01*
X138734209Y-123896895D02*
X138734209Y-123363561D01*
X138734209Y-123439752D02*
X138696114Y-123401657D01*
X138696114Y-123401657D02*
X138619924Y-123363561D01*
X138619924Y-123363561D02*
X138505638Y-123363561D01*
X138505638Y-123363561D02*
X138429447Y-123401657D01*
X138429447Y-123401657D02*
X138391352Y-123477847D01*
X138391352Y-123477847D02*
X138391352Y-123896895D01*
X138391352Y-123477847D02*
X138353257Y-123401657D01*
X138353257Y-123401657D02*
X138277066Y-123363561D01*
X138277066Y-123363561D02*
X138162781Y-123363561D01*
X138162781Y-123363561D02*
X138086590Y-123401657D01*
X138086590Y-123401657D02*
X138048495Y-123477847D01*
X138048495Y-123477847D02*
X138048495Y-123896895D01*
X137667542Y-123896895D02*
X137667542Y-123363561D01*
X137667542Y-123096895D02*
X137705638Y-123134990D01*
X137705638Y-123134990D02*
X137667542Y-123173085D01*
X137667542Y-123173085D02*
X137629447Y-123134990D01*
X137629447Y-123134990D02*
X137667542Y-123096895D01*
X137667542Y-123096895D02*
X137667542Y-123173085D01*
X136791352Y-123515942D02*
X136829447Y-123477847D01*
X136829447Y-123477847D02*
X136905638Y-123439752D01*
X136905638Y-123439752D02*
X136981828Y-123439752D01*
X136981828Y-123439752D02*
X137058019Y-123477847D01*
X137058019Y-123477847D02*
X137096114Y-123515942D01*
X137096114Y-123515942D02*
X137134209Y-123592133D01*
X137134209Y-123592133D02*
X137134209Y-123668323D01*
X137134209Y-123668323D02*
X137096114Y-123744514D01*
X137096114Y-123744514D02*
X137058019Y-123782609D01*
X137058019Y-123782609D02*
X136981828Y-123820704D01*
X136981828Y-123820704D02*
X136905638Y-123820704D01*
X136905638Y-123820704D02*
X136829447Y-123782609D01*
X136829447Y-123782609D02*
X136791352Y-123744514D01*
X136791352Y-123439752D02*
X136791352Y-123744514D01*
X136791352Y-123744514D02*
X136753257Y-123782609D01*
X136753257Y-123782609D02*
X136715162Y-123782609D01*
X136715162Y-123782609D02*
X136638971Y-123744514D01*
X136638971Y-123744514D02*
X136600876Y-123668323D01*
X136600876Y-123668323D02*
X136600876Y-123477847D01*
X136600876Y-123477847D02*
X136677067Y-123363561D01*
X136677067Y-123363561D02*
X136791352Y-123287371D01*
X136791352Y-123287371D02*
X136943733Y-123249276D01*
X136943733Y-123249276D02*
X137096114Y-123287371D01*
X137096114Y-123287371D02*
X137210400Y-123363561D01*
X137210400Y-123363561D02*
X137286590Y-123477847D01*
X137286590Y-123477847D02*
X137324686Y-123630228D01*
X137324686Y-123630228D02*
X137286590Y-123782609D01*
X137286590Y-123782609D02*
X137210400Y-123896895D01*
X137210400Y-123896895D02*
X137096114Y-123973085D01*
X137096114Y-123973085D02*
X136943733Y-124011180D01*
X136943733Y-124011180D02*
X136791352Y-123973085D01*
X136791352Y-123973085D02*
X136677067Y-123896895D01*
X136258019Y-123896895D02*
X136258019Y-123363561D01*
X136258019Y-123096895D02*
X136296115Y-123134990D01*
X136296115Y-123134990D02*
X136258019Y-123173085D01*
X136258019Y-123173085D02*
X136219924Y-123134990D01*
X136219924Y-123134990D02*
X136258019Y-123096895D01*
X136258019Y-123096895D02*
X136258019Y-123173085D01*
X135877067Y-123896895D02*
X135877067Y-123096895D01*
X135534210Y-123896895D02*
X135534210Y-123477847D01*
X135534210Y-123477847D02*
X135572305Y-123401657D01*
X135572305Y-123401657D02*
X135648496Y-123363561D01*
X135648496Y-123363561D02*
X135762782Y-123363561D01*
X135762782Y-123363561D02*
X135838972Y-123401657D01*
X135838972Y-123401657D02*
X135877067Y-123439752D01*
X135191353Y-123858800D02*
X135115162Y-123896895D01*
X135115162Y-123896895D02*
X134962781Y-123896895D01*
X134962781Y-123896895D02*
X134886591Y-123858800D01*
X134886591Y-123858800D02*
X134848495Y-123782609D01*
X134848495Y-123782609D02*
X134848495Y-123744514D01*
X134848495Y-123744514D02*
X134886591Y-123668323D01*
X134886591Y-123668323D02*
X134962781Y-123630228D01*
X134962781Y-123630228D02*
X135077067Y-123630228D01*
X135077067Y-123630228D02*
X135153257Y-123592133D01*
X135153257Y-123592133D02*
X135191353Y-123515942D01*
X135191353Y-123515942D02*
X135191353Y-123477847D01*
X135191353Y-123477847D02*
X135153257Y-123401657D01*
X135153257Y-123401657D02*
X135077067Y-123363561D01*
X135077067Y-123363561D02*
X134962781Y-123363561D01*
X134962781Y-123363561D02*
X134886591Y-123401657D01*
X134162781Y-123896895D02*
X134162781Y-123477847D01*
X134162781Y-123477847D02*
X134200876Y-123401657D01*
X134200876Y-123401657D02*
X134277067Y-123363561D01*
X134277067Y-123363561D02*
X134429448Y-123363561D01*
X134429448Y-123363561D02*
X134505638Y-123401657D01*
X134162781Y-123858800D02*
X134238972Y-123896895D01*
X134238972Y-123896895D02*
X134429448Y-123896895D01*
X134429448Y-123896895D02*
X134505638Y-123858800D01*
X134505638Y-123858800D02*
X134543734Y-123782609D01*
X134543734Y-123782609D02*
X134543734Y-123706419D01*
X134543734Y-123706419D02*
X134505638Y-123630228D01*
X134505638Y-123630228D02*
X134429448Y-123592133D01*
X134429448Y-123592133D02*
X134238972Y-123592133D01*
X134238972Y-123592133D02*
X134162781Y-123554038D01*
X133781828Y-123363561D02*
X133781828Y-123896895D01*
X133781828Y-123439752D02*
X133743733Y-123401657D01*
X133743733Y-123401657D02*
X133667543Y-123363561D01*
X133667543Y-123363561D02*
X133553257Y-123363561D01*
X133553257Y-123363561D02*
X133477066Y-123401657D01*
X133477066Y-123401657D02*
X133438971Y-123477847D01*
X133438971Y-123477847D02*
X133438971Y-123896895D01*
X133058018Y-123820704D02*
X133019923Y-123858800D01*
X133019923Y-123858800D02*
X133058018Y-123896895D01*
X133058018Y-123896895D02*
X133096114Y-123858800D01*
X133096114Y-123858800D02*
X133058018Y-123820704D01*
X133058018Y-123820704D02*
X133058018Y-123896895D01*
X132753257Y-123363561D02*
X132600876Y-123896895D01*
X132600876Y-123896895D02*
X132448495Y-123515942D01*
X132448495Y-123515942D02*
X132296114Y-123896895D01*
X132296114Y-123896895D02*
X132143733Y-123363561D01*
X131953257Y-123363561D02*
X131648495Y-123363561D01*
X131838971Y-123096895D02*
X131838971Y-123782609D01*
X131838971Y-123782609D02*
X131800876Y-123858800D01*
X131800876Y-123858800D02*
X131724686Y-123896895D01*
X131724686Y-123896895D02*
X131648495Y-123896895D01*
X131496114Y-123363561D02*
X131191352Y-123363561D01*
X131381828Y-123896895D02*
X131381828Y-123211180D01*
X131381828Y-123211180D02*
X131343733Y-123134990D01*
X131343733Y-123134990D02*
X131267543Y-123096895D01*
X131267543Y-123096895D02*
X131191352Y-123096895D01*
D11*
X158744862Y-105829238D02*
X158744862Y-103829238D01*
X157792481Y-105829238D02*
X157792481Y-103829238D01*
X156840100Y-105829238D02*
X156840100Y-103829238D01*
X155697243Y-105829238D02*
X156554386Y-104686380D01*
X155697243Y-103829238D02*
X156840100Y-104972095D01*
X154935338Y-105734000D02*
X154649624Y-105829238D01*
X154649624Y-105829238D02*
X154173433Y-105829238D01*
X154173433Y-105829238D02*
X153982957Y-105734000D01*
X153982957Y-105734000D02*
X153887719Y-105638761D01*
X153887719Y-105638761D02*
X153792481Y-105448285D01*
X153792481Y-105448285D02*
X153792481Y-105257809D01*
X153792481Y-105257809D02*
X153887719Y-105067333D01*
X153887719Y-105067333D02*
X153982957Y-104972095D01*
X153982957Y-104972095D02*
X154173433Y-104876857D01*
X154173433Y-104876857D02*
X154554386Y-104781619D01*
X154554386Y-104781619D02*
X154744862Y-104686380D01*
X154744862Y-104686380D02*
X154840100Y-104591142D01*
X154840100Y-104591142D02*
X154935338Y-104400666D01*
X154935338Y-104400666D02*
X154935338Y-104210190D01*
X154935338Y-104210190D02*
X154840100Y-104019714D01*
X154840100Y-104019714D02*
X154744862Y-103924476D01*
X154744862Y-103924476D02*
X154554386Y-103829238D01*
X154554386Y-103829238D02*
X154078195Y-103829238D01*
X154078195Y-103829238D02*
X153792481Y-103924476D01*
X151697242Y-103829238D02*
X150554385Y-103829238D01*
X151125814Y-105829238D02*
X151125814Y-103829238D01*
X149125813Y-105734000D02*
X149316289Y-105829238D01*
X149316289Y-105829238D02*
X149697242Y-105829238D01*
X149697242Y-105829238D02*
X149887718Y-105734000D01*
X149887718Y-105734000D02*
X149982956Y-105543523D01*
X149982956Y-105543523D02*
X149982956Y-104781619D01*
X149982956Y-104781619D02*
X149887718Y-104591142D01*
X149887718Y-104591142D02*
X149697242Y-104495904D01*
X149697242Y-104495904D02*
X149316289Y-104495904D01*
X149316289Y-104495904D02*
X149125813Y-104591142D01*
X149125813Y-104591142D02*
X149030575Y-104781619D01*
X149030575Y-104781619D02*
X149030575Y-104972095D01*
X149030575Y-104972095D02*
X149982956Y-105162571D01*
X147316289Y-105734000D02*
X147506765Y-105829238D01*
X147506765Y-105829238D02*
X147887718Y-105829238D01*
X147887718Y-105829238D02*
X148078194Y-105734000D01*
X148078194Y-105734000D02*
X148173432Y-105638761D01*
X148173432Y-105638761D02*
X148268670Y-105448285D01*
X148268670Y-105448285D02*
X148268670Y-104876857D01*
X148268670Y-104876857D02*
X148173432Y-104686380D01*
X148173432Y-104686380D02*
X148078194Y-104591142D01*
X148078194Y-104591142D02*
X147887718Y-104495904D01*
X147887718Y-104495904D02*
X147506765Y-104495904D01*
X147506765Y-104495904D02*
X147316289Y-104591142D01*
X146459146Y-105829238D02*
X146459146Y-103829238D01*
X145602003Y-105829238D02*
X145602003Y-104781619D01*
X145602003Y-104781619D02*
X145697241Y-104591142D01*
X145697241Y-104591142D02*
X145887717Y-104495904D01*
X145887717Y-104495904D02*
X146173432Y-104495904D01*
X146173432Y-104495904D02*
X146363908Y-104591142D01*
X146363908Y-104591142D02*
X146459146Y-104686380D01*
X144649622Y-104495904D02*
X144649622Y-105829238D01*
X144649622Y-104686380D02*
X144554384Y-104591142D01*
X144554384Y-104591142D02*
X144363908Y-104495904D01*
X144363908Y-104495904D02*
X144078193Y-104495904D01*
X144078193Y-104495904D02*
X143887717Y-104591142D01*
X143887717Y-104591142D02*
X143792479Y-104781619D01*
X143792479Y-104781619D02*
X143792479Y-105829238D01*
X142554384Y-105829238D02*
X142744860Y-105734000D01*
X142744860Y-105734000D02*
X142840098Y-105638761D01*
X142840098Y-105638761D02*
X142935336Y-105448285D01*
X142935336Y-105448285D02*
X142935336Y-104876857D01*
X142935336Y-104876857D02*
X142840098Y-104686380D01*
X142840098Y-104686380D02*
X142744860Y-104591142D01*
X142744860Y-104591142D02*
X142554384Y-104495904D01*
X142554384Y-104495904D02*
X142268669Y-104495904D01*
X142268669Y-104495904D02*
X142078193Y-104591142D01*
X142078193Y-104591142D02*
X141982955Y-104686380D01*
X141982955Y-104686380D02*
X141887717Y-104876857D01*
X141887717Y-104876857D02*
X141887717Y-105448285D01*
X141887717Y-105448285D02*
X141982955Y-105638761D01*
X141982955Y-105638761D02*
X142078193Y-105734000D01*
X142078193Y-105734000D02*
X142268669Y-105829238D01*
X142268669Y-105829238D02*
X142554384Y-105829238D01*
X140744860Y-105829238D02*
X140935336Y-105734000D01*
X140935336Y-105734000D02*
X141030574Y-105543523D01*
X141030574Y-105543523D02*
X141030574Y-103829238D01*
X139697241Y-105829238D02*
X139887717Y-105734000D01*
X139887717Y-105734000D02*
X139982955Y-105638761D01*
X139982955Y-105638761D02*
X140078193Y-105448285D01*
X140078193Y-105448285D02*
X140078193Y-104876857D01*
X140078193Y-104876857D02*
X139982955Y-104686380D01*
X139982955Y-104686380D02*
X139887717Y-104591142D01*
X139887717Y-104591142D02*
X139697241Y-104495904D01*
X139697241Y-104495904D02*
X139411526Y-104495904D01*
X139411526Y-104495904D02*
X139221050Y-104591142D01*
X139221050Y-104591142D02*
X139125812Y-104686380D01*
X139125812Y-104686380D02*
X139030574Y-104876857D01*
X139030574Y-104876857D02*
X139030574Y-105448285D01*
X139030574Y-105448285D02*
X139125812Y-105638761D01*
X139125812Y-105638761D02*
X139221050Y-105734000D01*
X139221050Y-105734000D02*
X139411526Y-105829238D01*
X139411526Y-105829238D02*
X139697241Y-105829238D01*
X137316288Y-104495904D02*
X137316288Y-106114952D01*
X137316288Y-106114952D02*
X137411526Y-106305428D01*
X137411526Y-106305428D02*
X137506764Y-106400666D01*
X137506764Y-106400666D02*
X137697241Y-106495904D01*
X137697241Y-106495904D02*
X137982955Y-106495904D01*
X137982955Y-106495904D02*
X138173431Y-106400666D01*
X137316288Y-105734000D02*
X137506764Y-105829238D01*
X137506764Y-105829238D02*
X137887717Y-105829238D01*
X137887717Y-105829238D02*
X138078193Y-105734000D01*
X138078193Y-105734000D02*
X138173431Y-105638761D01*
X138173431Y-105638761D02*
X138268669Y-105448285D01*
X138268669Y-105448285D02*
X138268669Y-104876857D01*
X138268669Y-104876857D02*
X138173431Y-104686380D01*
X138173431Y-104686380D02*
X138078193Y-104591142D01*
X138078193Y-104591142D02*
X137887717Y-104495904D01*
X137887717Y-104495904D02*
X137506764Y-104495904D01*
X137506764Y-104495904D02*
X137316288Y-104591142D01*
X136363907Y-105829238D02*
X136363907Y-104495904D01*
X136363907Y-103829238D02*
X136459145Y-103924476D01*
X136459145Y-103924476D02*
X136363907Y-104019714D01*
X136363907Y-104019714D02*
X136268669Y-103924476D01*
X136268669Y-103924476D02*
X136363907Y-103829238D01*
X136363907Y-103829238D02*
X136363907Y-104019714D01*
X134649621Y-105734000D02*
X134840097Y-105829238D01*
X134840097Y-105829238D02*
X135221050Y-105829238D01*
X135221050Y-105829238D02*
X135411526Y-105734000D01*
X135411526Y-105734000D02*
X135506764Y-105543523D01*
X135506764Y-105543523D02*
X135506764Y-104781619D01*
X135506764Y-104781619D02*
X135411526Y-104591142D01*
X135411526Y-104591142D02*
X135221050Y-104495904D01*
X135221050Y-104495904D02*
X134840097Y-104495904D01*
X134840097Y-104495904D02*
X134649621Y-104591142D01*
X134649621Y-104591142D02*
X134554383Y-104781619D01*
X134554383Y-104781619D02*
X134554383Y-104972095D01*
X134554383Y-104972095D02*
X135506764Y-105162571D01*
X133792478Y-105734000D02*
X133602002Y-105829238D01*
X133602002Y-105829238D02*
X133221050Y-105829238D01*
X133221050Y-105829238D02*
X133030573Y-105734000D01*
X133030573Y-105734000D02*
X132935335Y-105543523D01*
X132935335Y-105543523D02*
X132935335Y-105448285D01*
X132935335Y-105448285D02*
X133030573Y-105257809D01*
X133030573Y-105257809D02*
X133221050Y-105162571D01*
X133221050Y-105162571D02*
X133506764Y-105162571D01*
X133506764Y-105162571D02*
X133697240Y-105067333D01*
X133697240Y-105067333D02*
X133792478Y-104876857D01*
X133792478Y-104876857D02*
X133792478Y-104781619D01*
X133792478Y-104781619D02*
X133697240Y-104591142D01*
X133697240Y-104591142D02*
X133506764Y-104495904D01*
X133506764Y-104495904D02*
X133221050Y-104495904D01*
X133221050Y-104495904D02*
X133030573Y-104591142D01*
D12*
G36*
X155848785Y-97054948D02*
G01*
X154472952Y-97054948D01*
X154472952Y-89858282D01*
X155848785Y-89858282D01*
X155848785Y-97054948D01*
G37*
G36*
X159740020Y-97685814D02*
G01*
X159976285Y-97689948D01*
X159976285Y-97901615D01*
X159023785Y-98007448D01*
X159023785Y-97795781D01*
X159103780Y-97756507D01*
X159138894Y-97740668D01*
X159172613Y-97727155D01*
X159206332Y-97715812D01*
X159241446Y-97706485D01*
X159279351Y-97699017D01*
X159321441Y-97693255D01*
X159369112Y-97689044D01*
X159423760Y-97686228D01*
X159559566Y-97684161D01*
X159740020Y-97685814D01*
G37*
G36*
X156156447Y-100190732D02*
G01*
X156148121Y-100243513D01*
X156140066Y-100287418D01*
X156135752Y-100307593D01*
X156131042Y-100327409D01*
X156125779Y-100347487D01*
X156119808Y-100368447D01*
X156105126Y-100415492D01*
X156085754Y-100473505D01*
X156060451Y-100547447D01*
X155955337Y-100595594D01*
X155851209Y-100640030D01*
X155747835Y-100680931D01*
X155644984Y-100718471D01*
X155542422Y-100752827D01*
X155439920Y-100784175D01*
X155337244Y-100812689D01*
X155234163Y-100838545D01*
X155130446Y-100861919D01*
X155025860Y-100882986D01*
X154813154Y-100918903D01*
X154594192Y-100947700D01*
X154367118Y-100970781D01*
X154478214Y-100901429D01*
X154565363Y-100845396D01*
X154602284Y-100820436D01*
X154636008Y-100796480D01*
X154667467Y-100772753D01*
X154697590Y-100748479D01*
X154727308Y-100722885D01*
X154757551Y-100695194D01*
X154789249Y-100664631D01*
X154823332Y-100630422D01*
X154902374Y-100547962D01*
X155002118Y-100441614D01*
X153520452Y-100441614D01*
X153520452Y-100335782D01*
X154181004Y-100269421D01*
X154842075Y-100214207D01*
X155503793Y-100166863D01*
X156166285Y-100124115D01*
X156156447Y-100190732D01*
G37*
G36*
X153097118Y-97054948D02*
G01*
X151721285Y-97054948D01*
X151721285Y-89858282D01*
X153097118Y-89858282D01*
X153097118Y-97054948D01*
G37*
G36*
X133054502Y-99059672D02*
G01*
X133105806Y-99062365D01*
X133156760Y-99066819D01*
X133207535Y-99073323D01*
X133258301Y-99082166D01*
X133309228Y-99093639D01*
X133360486Y-99108030D01*
X133412247Y-99125630D01*
X133464679Y-99146728D01*
X133517954Y-99171614D01*
X133644889Y-99169782D01*
X133768161Y-99166277D01*
X133888478Y-99164088D01*
X133947748Y-99164420D01*
X134006545Y-99166202D01*
X134064956Y-99169806D01*
X134123070Y-99175607D01*
X134180975Y-99183977D01*
X134238759Y-99195291D01*
X134296510Y-99209921D01*
X134354318Y-99228242D01*
X134412269Y-99250626D01*
X134470454Y-99277448D01*
X134470454Y-99489115D01*
X134184373Y-99496556D01*
X133808994Y-99502344D01*
X133648576Y-99505033D01*
X133497914Y-99504575D01*
X133425530Y-99502282D01*
X133354730Y-99498143D01*
X133285231Y-99491803D01*
X133216748Y-99482910D01*
X133148995Y-99471110D01*
X133081689Y-99456050D01*
X133014545Y-99437377D01*
X132947278Y-99414738D01*
X132879603Y-99387778D01*
X132811236Y-99356146D01*
X132741892Y-99319487D01*
X132671287Y-99277448D01*
X132671287Y-99065781D01*
X132896791Y-99059258D01*
X133002679Y-99058449D01*
X133054502Y-99059672D01*
G37*
G36*
X157118785Y-99489115D02*
G01*
X156917867Y-99496556D01*
X156655764Y-99502344D01*
X156395315Y-99509786D01*
X156319304Y-99502549D01*
X156287736Y-99498807D01*
X156259600Y-99494528D01*
X156234249Y-99489372D01*
X156222416Y-99486359D01*
X156211038Y-99482999D01*
X156200034Y-99479250D01*
X156189322Y-99475068D01*
X156178823Y-99470413D01*
X156168455Y-99465240D01*
X156158138Y-99459508D01*
X156147792Y-99453173D01*
X156137335Y-99446194D01*
X156126686Y-99438528D01*
X156104493Y-99420964D01*
X156080567Y-99400141D01*
X156054262Y-99375718D01*
X156024932Y-99347355D01*
X155954618Y-99277448D01*
X157012952Y-99171614D01*
X157118785Y-99489115D01*
G37*
G36*
X146569614Y-89798004D02*
G01*
X146677275Y-89803858D01*
X146782091Y-89812991D01*
X146884253Y-89825494D01*
X146983951Y-89841459D01*
X147081378Y-89860977D01*
X147176723Y-89884139D01*
X147270179Y-89911036D01*
X147361936Y-89941759D01*
X147452186Y-89976400D01*
X147541119Y-90015049D01*
X147628926Y-90057798D01*
X147715800Y-90104738D01*
X147801930Y-90155960D01*
X147887509Y-90211556D01*
X147972726Y-90271616D01*
X148057774Y-90336232D01*
X148142843Y-90405495D01*
X148228125Y-90479496D01*
X148400090Y-90642076D01*
X148575199Y-90824704D01*
X148754980Y-91028107D01*
X148924397Y-91226642D01*
X149095652Y-91423458D01*
X149268520Y-91618864D01*
X149442778Y-91813165D01*
X149611646Y-91997686D01*
X149741736Y-92139484D01*
X149805314Y-92206626D01*
X149868596Y-92270963D01*
X149932095Y-92332271D01*
X149996325Y-92390327D01*
X150061797Y-92444906D01*
X150129024Y-92495784D01*
X150198518Y-92542736D01*
X150270793Y-92585539D01*
X150346360Y-92623967D01*
X150425732Y-92657798D01*
X150509422Y-92686806D01*
X150597942Y-92710767D01*
X150691805Y-92729458D01*
X150791523Y-92742653D01*
X151192119Y-92715782D01*
X151227072Y-92751278D01*
X151241254Y-92766748D01*
X151253465Y-92781469D01*
X151263877Y-92796018D01*
X151272659Y-92810972D01*
X151279982Y-92826908D01*
X151286015Y-92844404D01*
X151290929Y-92864037D01*
X151294894Y-92886382D01*
X151298081Y-92912019D01*
X151300659Y-92941524D01*
X151304669Y-93014445D01*
X151308287Y-93109763D01*
X151304566Y-93463230D01*
X151301684Y-93777427D01*
X151297952Y-94091615D01*
X151189020Y-94092935D01*
X151080108Y-94095760D01*
X150971230Y-94099812D01*
X150862397Y-94104818D01*
X150775524Y-94115944D01*
X150694295Y-94129076D01*
X150618176Y-94144432D01*
X150546633Y-94162228D01*
X150479132Y-94182682D01*
X150415140Y-94206011D01*
X150354122Y-94232430D01*
X150295545Y-94262158D01*
X150238875Y-94295412D01*
X150183578Y-94332407D01*
X150129120Y-94373361D01*
X150074967Y-94418491D01*
X150020585Y-94468014D01*
X149965441Y-94522147D01*
X149909000Y-94581107D01*
X149850729Y-94645110D01*
X149769605Y-94741345D01*
X149687386Y-94836658D01*
X149604133Y-94931071D01*
X149519907Y-95024606D01*
X149382748Y-95175587D01*
X149246509Y-95327312D01*
X149111050Y-95479735D01*
X148976233Y-95632813D01*
X148678834Y-95980588D01*
X148527697Y-96152032D01*
X148373420Y-96320302D01*
X148214866Y-96484242D01*
X148133631Y-96564226D01*
X148050900Y-96642694D01*
X147966532Y-96719500D01*
X147880384Y-96794500D01*
X147792315Y-96867549D01*
X147702183Y-96938502D01*
X147501767Y-97045416D01*
X147414828Y-97087869D01*
X147332595Y-97123214D01*
X147251965Y-97151620D01*
X147169833Y-97173258D01*
X147083095Y-97188299D01*
X146988646Y-97196914D01*
X146883383Y-97199273D01*
X146764199Y-97195546D01*
X146627993Y-97185905D01*
X146471658Y-97170520D01*
X146086187Y-97123199D01*
X145582952Y-97054948D01*
X145582952Y-96843282D01*
X145703440Y-96707711D01*
X145827531Y-96575111D01*
X145954770Y-96445238D01*
X146084702Y-96317853D01*
X146216872Y-96192713D01*
X146350826Y-96069578D01*
X146486110Y-95948206D01*
X146622268Y-95828356D01*
X146781128Y-95691758D01*
X146938311Y-95553739D01*
X147093948Y-95414306D01*
X147248172Y-95273471D01*
X147401114Y-95131242D01*
X147552905Y-94987627D01*
X147853562Y-94696281D01*
X148056806Y-94495104D01*
X148255502Y-94300543D01*
X148442933Y-94113526D01*
X148486695Y-94069268D01*
X148528463Y-94025288D01*
X148568355Y-93981428D01*
X148606488Y-93937531D01*
X148642978Y-93893441D01*
X148677945Y-93849000D01*
X148711504Y-93804051D01*
X148743775Y-93758439D01*
X148774873Y-93712004D01*
X148804917Y-93664591D01*
X148834025Y-93616044D01*
X148862313Y-93566203D01*
X148889898Y-93514914D01*
X148916900Y-93462018D01*
X148943434Y-93407360D01*
X148969619Y-93350781D01*
X148523810Y-92896710D01*
X148075278Y-92444944D01*
X147847956Y-92222250D01*
X147617511Y-92002920D01*
X147383128Y-91787885D01*
X147143993Y-91578073D01*
X146698297Y-91196764D01*
X146479156Y-90999789D01*
X146372289Y-90898700D01*
X146267901Y-90795486D01*
X146166499Y-90689857D01*
X146068592Y-90581520D01*
X145974687Y-90470182D01*
X145885291Y-90355554D01*
X145800911Y-90237341D01*
X145722057Y-90115253D01*
X145649235Y-89988997D01*
X145582952Y-89858282D01*
X145853188Y-89826637D01*
X146106691Y-89805556D01*
X146344990Y-89795769D01*
X146569614Y-89798004D01*
G37*
G36*
X153732118Y-98536614D02*
G01*
X153593616Y-98491459D01*
X153458449Y-98445041D01*
X153325838Y-98396882D01*
X153195002Y-98346506D01*
X153065159Y-98293435D01*
X152935529Y-98237192D01*
X152805332Y-98177300D01*
X152673785Y-98113281D01*
X153837952Y-98113281D01*
X153732118Y-98536614D01*
G37*
G36*
X148365625Y-90756211D02*
G01*
X148413890Y-90813055D01*
X148455335Y-90863698D01*
X148494919Y-90914341D01*
X148537604Y-90971185D01*
X148652119Y-91128282D01*
X147699619Y-90916615D01*
X147911286Y-90810782D01*
X147911286Y-90599115D01*
X148228786Y-90599115D01*
X148365625Y-90756211D01*
G37*
G36*
X157938037Y-98951292D02*
G01*
X157986229Y-98953550D01*
X158028083Y-98956020D01*
X158046846Y-98957390D01*
X158064279Y-98958879D01*
X158080468Y-98960508D01*
X158095495Y-98962299D01*
X158109447Y-98964274D01*
X158122409Y-98966456D01*
X158134465Y-98968865D01*
X158145699Y-98971523D01*
X158156197Y-98974453D01*
X158166043Y-98977676D01*
X158175323Y-98981214D01*
X158184120Y-98985088D01*
X158192521Y-98989321D01*
X158200608Y-98993934D01*
X158208468Y-98998950D01*
X158216186Y-99004389D01*
X158223845Y-99010274D01*
X158231530Y-99016627D01*
X158239327Y-99023469D01*
X158247321Y-99030822D01*
X158264235Y-99047148D01*
X158282951Y-99065781D01*
X158212683Y-99135778D01*
X158183461Y-99164356D01*
X158157365Y-99189197D01*
X158133783Y-99210710D01*
X158112104Y-99229303D01*
X158091717Y-99245384D01*
X158072008Y-99259361D01*
X158052368Y-99271642D01*
X158032184Y-99282636D01*
X158010844Y-99292751D01*
X157987737Y-99302394D01*
X157962251Y-99311975D01*
X157933775Y-99321900D01*
X157865406Y-99344420D01*
X157634722Y-99396510D01*
X157224618Y-99489115D01*
X157118785Y-99065781D01*
X157224334Y-99030822D01*
X157308334Y-99004389D01*
X157344821Y-98993934D01*
X157379002Y-98985088D01*
X157411903Y-98977676D01*
X157444553Y-98971523D01*
X157477978Y-98966456D01*
X157513205Y-98962299D01*
X157551262Y-98958879D01*
X157593175Y-98956020D01*
X157692677Y-98951292D01*
X157819931Y-98946720D01*
X157938037Y-98951292D01*
G37*
G36*
X131612952Y-96737448D02*
G01*
X131388056Y-96750678D01*
X131303338Y-96746095D01*
X131220688Y-96739640D01*
X131140026Y-96731065D01*
X131061275Y-96720124D01*
X130984359Y-96706568D01*
X130909199Y-96690151D01*
X130835717Y-96670624D01*
X130763837Y-96647739D01*
X130693480Y-96621251D01*
X130624569Y-96590910D01*
X130557026Y-96556470D01*
X130490774Y-96517683D01*
X130425735Y-96474301D01*
X130361831Y-96426078D01*
X130298985Y-96372765D01*
X130237119Y-96314115D01*
X130322681Y-96275673D01*
X130407472Y-96240820D01*
X130491669Y-96209318D01*
X130575450Y-96180930D01*
X130658992Y-96155417D01*
X130742473Y-96132543D01*
X130826070Y-96112070D01*
X130909960Y-96093759D01*
X131079332Y-96062676D01*
X131252008Y-96037392D01*
X131429408Y-96016005D01*
X131612952Y-95996615D01*
X131612952Y-96737448D01*
G37*
G36*
X145053785Y-97054948D02*
G01*
X143155814Y-97060116D01*
X142381493Y-97061562D01*
X141239555Y-97064829D01*
X140878330Y-97065283D01*
X140527183Y-97066939D01*
X140199819Y-97066963D01*
X140077724Y-97065626D01*
X139958835Y-97060873D01*
X139842905Y-97052507D01*
X139729684Y-97040332D01*
X139618925Y-97024152D01*
X139510381Y-97003771D01*
X139403802Y-96978993D01*
X139298940Y-96949623D01*
X139195549Y-96915463D01*
X139093379Y-96876318D01*
X138992182Y-96831992D01*
X138891711Y-96782288D01*
X138791717Y-96727012D01*
X138691953Y-96665966D01*
X138592170Y-96598954D01*
X138492120Y-96525781D01*
X138425922Y-96457843D01*
X138364696Y-96390284D01*
X138308251Y-96322799D01*
X138256398Y-96255083D01*
X138208946Y-96186831D01*
X138165707Y-96117736D01*
X138126491Y-96047494D01*
X138091108Y-95975798D01*
X138059368Y-95902343D01*
X138031081Y-95826824D01*
X138006059Y-95748935D01*
X137987037Y-95679115D01*
X139021285Y-95679115D01*
X139021285Y-96419948D01*
X139232952Y-96419948D01*
X139232952Y-96737448D01*
X139656286Y-96737448D01*
X139656286Y-96949115D01*
X144947951Y-96949115D01*
X144947951Y-95784948D01*
X143190127Y-95790115D01*
X142474097Y-95791563D01*
X141416213Y-95794830D01*
X141082555Y-95795284D01*
X140756158Y-95796938D01*
X140454429Y-95796963D01*
X140334215Y-95796603D01*
X140214002Y-95794679D01*
X140093842Y-95790894D01*
X139973786Y-95784948D01*
X139820883Y-95740662D01*
X139699974Y-95707730D01*
X139648028Y-95695134D01*
X139599894Y-95684911D01*
X139554178Y-95676907D01*
X139509484Y-95670966D01*
X139464416Y-95666934D01*
X139417580Y-95664654D01*
X139367579Y-95663973D01*
X139313020Y-95664735D01*
X139184643Y-95669969D01*
X139021285Y-95679115D01*
X137987037Y-95679115D01*
X137984110Y-95668370D01*
X137965046Y-95584824D01*
X137948678Y-95497992D01*
X137934814Y-95407568D01*
X137923266Y-95313246D01*
X137918724Y-95063911D01*
X137917744Y-94818483D01*
X137920575Y-94697533D01*
X137926679Y-94577918D01*
X137936850Y-94459757D01*
X137951882Y-94343169D01*
X137972571Y-94228274D01*
X137999709Y-94115190D01*
X138034092Y-94004038D01*
X138076513Y-93894936D01*
X138127766Y-93788004D01*
X138156953Y-93735389D01*
X138188646Y-93683361D01*
X138222945Y-93631936D01*
X138259948Y-93581127D01*
X138299755Y-93530950D01*
X138342464Y-93481420D01*
X138531806Y-93324323D01*
X138580553Y-93283436D01*
X138628141Y-93245184D01*
X138674865Y-93209463D01*
X138721024Y-93176166D01*
X138766913Y-93145190D01*
X138812829Y-93116428D01*
X138859070Y-93089776D01*
X138905931Y-93065128D01*
X138953710Y-93042378D01*
X139002704Y-93021421D01*
X139053209Y-93002153D01*
X139105521Y-92984468D01*
X139159938Y-92968260D01*
X139216757Y-92953424D01*
X139276274Y-92939856D01*
X139338785Y-92927448D01*
X139127119Y-93033282D01*
X139127119Y-93350781D01*
X138809620Y-93350781D01*
X138769196Y-93454371D01*
X138752905Y-93497525D01*
X138739022Y-93536160D01*
X138727391Y-93571204D01*
X138717858Y-93603588D01*
X138710268Y-93634243D01*
X138704465Y-93664098D01*
X138700294Y-93694084D01*
X138697601Y-93725131D01*
X138696230Y-93758169D01*
X138696027Y-93794128D01*
X138696836Y-93833939D01*
X138698502Y-93878531D01*
X138703786Y-93985781D01*
X138805710Y-94028467D01*
X138848058Y-94045469D01*
X138885829Y-94059696D01*
X138919894Y-94071234D01*
X138951128Y-94080172D01*
X138980402Y-94086599D01*
X139008591Y-94090602D01*
X139036567Y-94092270D01*
X139065203Y-94091691D01*
X139095372Y-94088952D01*
X139127947Y-94084143D01*
X139163802Y-94077351D01*
X139203808Y-94068664D01*
X139299770Y-94045959D01*
X139431796Y-94025641D01*
X139561911Y-94009382D01*
X139690811Y-93996765D01*
X139819190Y-93987376D01*
X139947743Y-93980800D01*
X140077166Y-93976620D01*
X140208152Y-93974422D01*
X140341396Y-93973791D01*
X140598037Y-93975446D01*
X141422431Y-93977798D01*
X141994593Y-93979968D01*
X143677952Y-93985781D01*
X143677952Y-94091615D01*
X142419527Y-94124068D01*
X141905244Y-94137917D01*
X141148307Y-94157297D01*
X140908095Y-94163962D01*
X140590790Y-94169002D01*
X140432179Y-94173248D01*
X140274155Y-94181696D01*
X140195493Y-94188211D01*
X140117134Y-94196635D01*
X140039132Y-94207254D01*
X139961537Y-94220353D01*
X139884403Y-94236220D01*
X139807781Y-94255139D01*
X139731725Y-94277398D01*
X139656286Y-94303282D01*
X139578958Y-94366184D01*
X139547679Y-94392602D01*
X139520871Y-94416525D01*
X139498192Y-94438598D01*
X139488295Y-94449143D01*
X139479303Y-94459468D01*
X139471173Y-94469653D01*
X139463863Y-94479779D01*
X139457330Y-94489927D01*
X139451531Y-94500178D01*
X139446424Y-94510612D01*
X139441968Y-94521310D01*
X139438118Y-94532352D01*
X139434832Y-94543820D01*
X139432069Y-94555794D01*
X139429784Y-94568354D01*
X139426484Y-94595558D01*
X139424590Y-94626076D01*
X139423763Y-94660556D01*
X139423948Y-94743978D01*
X139431390Y-95004427D01*
X139437140Y-95235963D01*
X139444619Y-95467448D01*
X139528965Y-95490850D01*
X139612055Y-95511965D01*
X139694453Y-95530782D01*
X139776720Y-95547290D01*
X139859419Y-95561480D01*
X139943113Y-95573339D01*
X140028363Y-95582858D01*
X140115734Y-95590026D01*
X140392055Y-95595011D01*
X140706577Y-95601408D01*
X141043694Y-95606768D01*
X142115516Y-95626483D01*
X142861413Y-95639712D01*
X144584460Y-95671079D01*
X145053785Y-95679115D01*
X145053785Y-95784948D01*
X145053785Y-97054948D01*
G37*
G36*
X134465902Y-100123430D02*
G01*
X134621149Y-100127575D01*
X134775969Y-100134559D01*
X134930654Y-100144270D01*
X135085497Y-100156595D01*
X135240791Y-100171420D01*
X135396830Y-100188632D01*
X136428749Y-100299258D01*
X137461813Y-100389294D01*
X138495886Y-100461417D01*
X139530835Y-100518300D01*
X141602812Y-100597046D01*
X143676661Y-100646925D01*
X143995452Y-100653281D01*
X143995452Y-100759114D01*
X141936663Y-100764282D01*
X141098264Y-100765729D01*
X139859203Y-100768996D01*
X139468597Y-100769451D01*
X139086079Y-100771105D01*
X138732983Y-100771129D01*
X138593345Y-100770782D01*
X138453708Y-100768882D01*
X138314118Y-100765102D01*
X138174619Y-100759114D01*
X137950817Y-100693411D01*
X137773878Y-100643618D01*
X137697886Y-100623834D01*
X137627496Y-100607002D01*
X137560669Y-100592782D01*
X137495367Y-100580832D01*
X137429552Y-100570809D01*
X137361185Y-100562374D01*
X137288230Y-100555183D01*
X137208648Y-100548896D01*
X137021448Y-100537665D01*
X136783283Y-100525951D01*
X136080199Y-100457634D01*
X135621392Y-100412227D01*
X135402695Y-100391179D01*
X135222787Y-100374373D01*
X135042720Y-100359235D01*
X134862496Y-100346220D01*
X134682120Y-100335782D01*
X134576285Y-100441614D01*
X135866993Y-100761029D01*
X136335768Y-100867928D01*
X136755575Y-100952348D01*
X137177978Y-101023833D01*
X137654542Y-101091930D01*
X138976404Y-101256139D01*
X139232952Y-101288281D01*
X139232952Y-101394115D01*
X138970439Y-101399959D01*
X138710170Y-101398942D01*
X138451514Y-101391342D01*
X138193838Y-101377435D01*
X137936512Y-101357500D01*
X137678904Y-101331814D01*
X137420382Y-101300656D01*
X137160314Y-101264304D01*
X136805401Y-101208907D01*
X136154753Y-101116025D01*
X135824926Y-101061916D01*
X135496365Y-100997120D01*
X135333559Y-100959408D01*
X135172269Y-100917456D01*
X135012897Y-100870742D01*
X134855841Y-100818743D01*
X134701502Y-100760937D01*
X134550280Y-100696801D01*
X134402575Y-100625812D01*
X134258787Y-100547447D01*
X134230915Y-100472590D01*
X134209708Y-100413923D01*
X134201216Y-100389110D01*
X134193924Y-100366486D01*
X134187679Y-100345428D01*
X134182324Y-100325317D01*
X134177705Y-100305534D01*
X134173667Y-100285457D01*
X134170054Y-100264467D01*
X134166713Y-100241944D01*
X134160221Y-100189817D01*
X134152952Y-100124115D01*
X134309934Y-100122239D01*
X134465902Y-100123430D01*
G37*
G36*
X149540877Y-91939735D02*
G01*
X149686065Y-92106023D01*
X149759135Y-92184380D01*
X149833322Y-92259028D01*
X149909227Y-92329577D01*
X149987451Y-92395637D01*
X150068594Y-92456818D01*
X150153257Y-92512732D01*
X150242041Y-92562989D01*
X150288166Y-92585874D01*
X150335546Y-92607198D01*
X150384256Y-92626914D01*
X150434372Y-92644972D01*
X150485968Y-92661324D01*
X150539120Y-92675920D01*
X150593903Y-92688713D01*
X150650391Y-92699653D01*
X150708660Y-92708692D01*
X150768785Y-92715782D01*
X151192119Y-92715782D01*
X151192119Y-92821615D01*
X149922118Y-92821615D01*
X149710452Y-92398282D01*
X149538473Y-92232917D01*
X149490439Y-92182080D01*
X149471006Y-92160291D01*
X149454343Y-92140003D01*
X149440239Y-92120529D01*
X149428479Y-92101181D01*
X149418851Y-92081271D01*
X149411142Y-92060111D01*
X149405138Y-92037013D01*
X149400626Y-92011290D01*
X149397393Y-91982253D01*
X149395226Y-91949214D01*
X149393911Y-91911485D01*
X149393236Y-91868379D01*
X149392952Y-91763282D01*
X149540877Y-91939735D01*
G37*
G36*
X131647679Y-90069535D02*
G01*
X131661322Y-90113408D01*
X131672485Y-90152631D01*
X131681166Y-90188133D01*
X131687368Y-90220844D01*
X131691088Y-90251695D01*
X131692329Y-90281615D01*
X131691088Y-90311536D01*
X131687368Y-90342387D01*
X131681166Y-90375098D01*
X131672485Y-90410600D01*
X131661322Y-90449822D01*
X131647679Y-90493695D01*
X131612952Y-90599115D01*
X130660453Y-90387448D01*
X130766285Y-90069948D01*
X131612952Y-89964115D01*
X131647679Y-90069535D01*
G37*
G36*
X134021014Y-97927068D02*
G01*
X134069432Y-97930139D01*
X134119095Y-97935490D01*
X134170402Y-97943185D01*
X134223751Y-97953291D01*
X134279537Y-97965870D01*
X134338160Y-97980990D01*
X134416967Y-98025277D01*
X134449258Y-98044416D01*
X134477480Y-98062432D01*
X134502136Y-98079982D01*
X134523730Y-98097727D01*
X134542767Y-98116324D01*
X134551483Y-98126148D01*
X134559749Y-98136433D01*
X134575181Y-98158712D01*
X134589567Y-98183820D01*
X134603410Y-98212416D01*
X134617214Y-98245160D01*
X134631483Y-98282709D01*
X134646722Y-98325723D01*
X134682120Y-98430782D01*
X133412119Y-98430782D01*
X133517954Y-98007448D01*
X133630851Y-97976773D01*
X133683606Y-97963946D01*
X133734427Y-97952878D01*
X133783712Y-97943636D01*
X133831860Y-97936283D01*
X133879266Y-97930884D01*
X133926329Y-97927506D01*
X133973446Y-97926212D01*
X134021014Y-97927068D01*
G37*
G36*
X147030328Y-89810420D02*
G01*
X147108599Y-89815691D01*
X147185251Y-89824697D01*
X147260716Y-89838008D01*
X147335429Y-89856195D01*
X147409825Y-89879830D01*
X147484336Y-89909484D01*
X147559398Y-89945728D01*
X147635444Y-89989133D01*
X147712908Y-90040272D01*
X147792223Y-90099714D01*
X148017119Y-90387448D01*
X148134243Y-90519249D01*
X148239430Y-90640353D01*
X148652119Y-91128282D01*
X147699619Y-90916615D01*
X147911286Y-90810782D01*
X147881969Y-90705396D01*
X147869383Y-90661875D01*
X147857638Y-90623400D01*
X147846331Y-90589170D01*
X147835057Y-90558381D01*
X147823411Y-90530233D01*
X147810989Y-90503924D01*
X147797386Y-90478651D01*
X147782198Y-90453613D01*
X147765020Y-90428009D01*
X147745448Y-90401037D01*
X147723077Y-90371894D01*
X147697503Y-90339778D01*
X147635126Y-90263425D01*
X147552231Y-90189222D01*
X147517271Y-90159162D01*
X147485428Y-90133337D01*
X147455795Y-90111404D01*
X147427468Y-90093018D01*
X147399540Y-90077836D01*
X147371105Y-90065514D01*
X147341257Y-90055707D01*
X147309090Y-90048073D01*
X147273699Y-90042266D01*
X147234177Y-90037942D01*
X147189618Y-90034759D01*
X147139117Y-90032371D01*
X147016663Y-90028607D01*
X146614828Y-90043490D01*
X146257572Y-90054976D01*
X146078989Y-90061939D01*
X145900452Y-90069948D01*
X145794619Y-90281615D01*
X145582952Y-89858282D01*
X145908561Y-89843886D01*
X146071405Y-89837673D01*
X146234281Y-89832444D01*
X146502380Y-89825209D01*
X146692365Y-89815246D01*
X146867190Y-89808792D01*
X146950003Y-89808310D01*
X147030328Y-89810420D01*
G37*
G36*
X139127119Y-93033282D02*
G01*
X139127119Y-93350781D01*
X139051269Y-93346867D01*
X139019576Y-93345739D01*
X138991082Y-93345371D01*
X138965069Y-93345917D01*
X138940820Y-93347532D01*
X138917619Y-93350372D01*
X138894748Y-93354592D01*
X138871491Y-93360346D01*
X138847131Y-93367789D01*
X138820949Y-93377078D01*
X138792231Y-93388366D01*
X138760257Y-93401808D01*
X138724312Y-93417561D01*
X138637640Y-93456615D01*
X138386286Y-93562448D01*
X138493856Y-93445039D01*
X138596909Y-93334816D01*
X138647960Y-93282975D01*
X138699344Y-93233620D01*
X138751550Y-93186983D01*
X138805064Y-93143292D01*
X138860373Y-93102778D01*
X138917967Y-93065670D01*
X138978331Y-93032200D01*
X139041954Y-93002596D01*
X139075140Y-92989316D01*
X139109324Y-92977089D01*
X139144566Y-92965944D01*
X139180927Y-92955909D01*
X139218469Y-92947013D01*
X139257252Y-92939285D01*
X139297337Y-92932754D01*
X139338785Y-92927448D01*
X139127119Y-93033282D01*
G37*
G36*
X139454205Y-95674824D02*
G01*
X139514491Y-95679037D01*
X139567094Y-95684892D01*
X139613160Y-95692141D01*
X139653837Y-95700536D01*
X139690271Y-95709829D01*
X139723608Y-95719773D01*
X139754996Y-95730120D01*
X139816511Y-95751032D01*
X139848932Y-95761101D01*
X139883990Y-95770583D01*
X139922833Y-95779229D01*
X139966607Y-95786791D01*
X140016459Y-95793023D01*
X140073536Y-95797675D01*
X140346296Y-95796963D01*
X140654470Y-95796938D01*
X140989538Y-95795284D01*
X142046346Y-95792932D01*
X142783356Y-95790762D01*
X144483303Y-95786627D01*
X144947951Y-95784948D01*
X144947951Y-96949115D01*
X139656286Y-96949115D01*
X139656286Y-96737448D01*
X139232952Y-96737448D01*
X139232952Y-96419948D01*
X139021285Y-96419948D01*
X139021285Y-95679115D01*
X139385088Y-95672500D01*
X139454205Y-95674824D01*
G37*
G36*
X150311004Y-99453217D02*
G01*
X150202157Y-99506205D01*
X150156943Y-99527248D01*
X150116494Y-99545140D01*
X150079777Y-99560242D01*
X150045761Y-99572918D01*
X150013415Y-99583528D01*
X149981706Y-99592434D01*
X149949605Y-99600000D01*
X149916078Y-99606586D01*
X149880095Y-99612554D01*
X149840624Y-99618266D01*
X149747091Y-99630373D01*
X149430159Y-99642490D01*
X149081240Y-99656340D01*
X148718265Y-99667708D01*
X148093283Y-99693610D01*
X147791376Y-99697006D01*
X147642369Y-99693743D01*
X147494395Y-99686194D01*
X147347252Y-99673622D01*
X147200742Y-99655294D01*
X147054665Y-99630474D01*
X146908822Y-99598428D01*
X146763012Y-99558420D01*
X146617035Y-99509716D01*
X146470693Y-99451582D01*
X146323786Y-99383281D01*
X150451285Y-99383281D01*
X150311004Y-99453217D01*
G37*
G36*
X143813706Y-89991814D02*
G01*
X143844557Y-89995534D01*
X143877268Y-90001736D01*
X143912770Y-90010417D01*
X143951992Y-90021579D01*
X143995865Y-90035222D01*
X144101285Y-90069948D01*
X144189440Y-90133685D01*
X144271623Y-90195073D01*
X144348107Y-90254874D01*
X144419167Y-90313849D01*
X144485073Y-90372758D01*
X144546099Y-90432363D01*
X144602518Y-90493425D01*
X144654602Y-90556705D01*
X144702624Y-90622964D01*
X144746856Y-90692963D01*
X144787573Y-90767462D01*
X144825045Y-90847224D01*
X144859546Y-90933010D01*
X144891349Y-91025579D01*
X144920727Y-91125694D01*
X144947951Y-91234115D01*
X144736286Y-91234115D01*
X144571748Y-91084460D01*
X144513043Y-91029476D01*
X144461780Y-90979454D01*
X144411757Y-90928191D01*
X144356773Y-90869486D01*
X144207119Y-90704949D01*
X144207119Y-90493282D01*
X143995452Y-90493282D01*
X143965373Y-90417218D01*
X143952301Y-90386055D01*
X143939908Y-90358826D01*
X143927720Y-90335046D01*
X143915261Y-90314231D01*
X143908781Y-90304784D01*
X143902056Y-90295896D01*
X143895026Y-90287507D01*
X143887632Y-90279557D01*
X143879813Y-90271984D01*
X143871512Y-90264729D01*
X143862668Y-90257730D01*
X143853223Y-90250928D01*
X143832289Y-90237669D01*
X143808236Y-90224468D01*
X143780590Y-90210840D01*
X143748874Y-90196301D01*
X143671337Y-90162553D01*
X143466285Y-90069948D01*
X143571705Y-90035222D01*
X143615578Y-90021579D01*
X143654801Y-90010417D01*
X143690302Y-90001736D01*
X143723014Y-89995534D01*
X143753864Y-89991814D01*
X143783785Y-89990574D01*
X143813706Y-89991814D01*
G37*
G36*
X137099649Y-95879500D02*
G01*
X137152074Y-95888843D01*
X137197393Y-95901060D01*
X137217599Y-95908646D01*
X137236284Y-95917431D01*
X137253530Y-95927574D01*
X137269424Y-95939235D01*
X137284050Y-95952573D01*
X137297492Y-95967750D01*
X137309837Y-95984924D01*
X137321167Y-96004256D01*
X137331569Y-96025905D01*
X137341127Y-96050032D01*
X137358049Y-96106356D01*
X137372612Y-96174508D01*
X137385495Y-96255767D01*
X137397376Y-96351411D01*
X137408932Y-96462720D01*
X137433785Y-96737448D01*
X137222120Y-96949115D01*
X137136440Y-96957797D01*
X137068744Y-96963998D01*
X137012830Y-96967718D01*
X136987353Y-96968649D01*
X136962497Y-96968959D01*
X136937485Y-96968649D01*
X136911544Y-96967718D01*
X136853769Y-96963998D01*
X136782973Y-96957797D01*
X136692953Y-96949115D01*
X136598452Y-96875796D01*
X136559266Y-96846043D01*
X136524415Y-96820415D01*
X136493120Y-96798554D01*
X136464601Y-96780100D01*
X136438078Y-96764694D01*
X136412771Y-96751978D01*
X136387900Y-96741591D01*
X136362684Y-96733176D01*
X136336345Y-96726371D01*
X136308101Y-96720820D01*
X136277173Y-96716162D01*
X136242782Y-96712039D01*
X136160487Y-96703958D01*
X135911941Y-96693988D01*
X135629499Y-96681195D01*
X135325800Y-96670475D01*
X134361957Y-96631046D01*
X133690888Y-96604588D01*
X131718787Y-96525781D01*
X131718787Y-96843282D01*
X131613534Y-96843161D01*
X131531608Y-96842313D01*
X131497380Y-96841389D01*
X131466570Y-96840012D01*
X131438373Y-96838089D01*
X131411983Y-96835530D01*
X131386596Y-96832245D01*
X131361407Y-96828142D01*
X131335611Y-96823131D01*
X131308403Y-96817121D01*
X131246534Y-96801739D01*
X131169361Y-96781270D01*
X130918421Y-96697761D01*
X130810556Y-96662129D01*
X130761454Y-96645145D01*
X130715081Y-96628274D01*
X130671066Y-96611184D01*
X130629043Y-96593546D01*
X130588640Y-96575027D01*
X130549491Y-96555297D01*
X130511225Y-96534025D01*
X130473474Y-96510878D01*
X130435869Y-96485528D01*
X130398040Y-96457641D01*
X130359620Y-96426887D01*
X130320239Y-96392936D01*
X130279529Y-96355455D01*
X130237119Y-96314115D01*
X130327034Y-96274880D01*
X130417250Y-96238145D01*
X130507779Y-96203740D01*
X130598633Y-96171492D01*
X130781367Y-96112790D01*
X130965551Y-96060674D01*
X131151286Y-96013780D01*
X131338671Y-95970743D01*
X131718787Y-95890782D01*
X131718787Y-96208281D01*
X132538673Y-96217164D01*
X133358582Y-96223784D01*
X134027274Y-96228125D01*
X134520605Y-96233873D01*
X135013950Y-96237926D01*
X135325800Y-96239287D01*
X135629499Y-96244253D01*
X135911941Y-96244325D01*
X136016051Y-96245163D01*
X136062635Y-96244997D01*
X136106148Y-96244005D01*
X136147021Y-96241862D01*
X136185685Y-96238240D01*
X136222572Y-96232814D01*
X136258114Y-96225258D01*
X136275515Y-96220579D01*
X136292742Y-96215244D01*
X136309849Y-96209214D01*
X136326888Y-96202447D01*
X136343915Y-96194903D01*
X136360984Y-96186540D01*
X136378147Y-96177318D01*
X136395460Y-96167196D01*
X136412976Y-96156134D01*
X136430750Y-96144090D01*
X136467283Y-96116895D01*
X136505492Y-96085284D01*
X136545809Y-96048932D01*
X136594921Y-95996678D01*
X136615860Y-95975435D01*
X136635217Y-95957088D01*
X136653616Y-95941365D01*
X136671679Y-95927997D01*
X136690028Y-95916713D01*
X136709286Y-95907243D01*
X136730075Y-95899316D01*
X136753018Y-95892662D01*
X136778738Y-95887010D01*
X136807856Y-95882090D01*
X136840995Y-95877632D01*
X136878778Y-95873365D01*
X136970765Y-95864323D01*
X137099649Y-95879500D01*
G37*
G36*
X131612952Y-96737448D02*
G01*
X131295454Y-96737448D01*
X131189619Y-96208281D01*
X130766285Y-96102448D01*
X131612952Y-95996615D01*
X131612952Y-96737448D01*
G37*
G36*
X135528786Y-93668282D02*
G01*
X135217901Y-93674896D01*
X135110711Y-93672506D01*
X135066937Y-93671132D01*
X135028869Y-93669419D01*
X135011778Y-93668383D01*
X134995879Y-93667201D01*
X134981090Y-93665852D01*
X134967335Y-93664316D01*
X134954535Y-93662570D01*
X134942610Y-93660596D01*
X134931482Y-93658373D01*
X134921072Y-93655879D01*
X134911302Y-93653095D01*
X134902092Y-93650000D01*
X134893365Y-93646572D01*
X134885041Y-93642792D01*
X134877041Y-93638639D01*
X134869287Y-93634093D01*
X134861701Y-93629132D01*
X134854202Y-93623737D01*
X134846714Y-93617886D01*
X134839156Y-93611559D01*
X134831451Y-93604735D01*
X134823519Y-93597394D01*
X134806661Y-93581079D01*
X134787952Y-93562448D01*
X134787952Y-93139115D01*
X135422953Y-93139115D01*
X135528786Y-93668282D01*
G37*
G36*
X129919620Y-93139115D02*
G01*
X131569752Y-93144283D01*
X132241337Y-93145729D01*
X133234547Y-93148996D01*
X133547306Y-93149450D01*
X133854313Y-93151106D01*
X134136805Y-93151130D01*
X134246736Y-93150810D01*
X134356668Y-93148961D01*
X134466539Y-93145194D01*
X134521431Y-93142468D01*
X134576285Y-93139115D01*
X134627358Y-93089283D01*
X134650700Y-93068887D01*
X134674233Y-93051090D01*
X134699197Y-93035583D01*
X134726832Y-93022056D01*
X134758378Y-93010198D01*
X134795077Y-92999700D01*
X134838167Y-92990251D01*
X134888889Y-92981541D01*
X134948484Y-92973261D01*
X135018192Y-92965100D01*
X135192906Y-92947896D01*
X135422953Y-92927448D01*
X135492871Y-92997832D01*
X135521261Y-93027326D01*
X135545736Y-93053952D01*
X135566646Y-93078408D01*
X135584339Y-93101391D01*
X135599163Y-93123599D01*
X135605609Y-93134631D01*
X135611469Y-93145730D01*
X135616786Y-93156984D01*
X135621604Y-93168480D01*
X135629917Y-93192549D01*
X135636758Y-93218632D01*
X135642474Y-93247429D01*
X135647416Y-93279636D01*
X135651931Y-93315952D01*
X135661077Y-93403698D01*
X135651931Y-93491445D01*
X135647416Y-93527760D01*
X135642474Y-93559968D01*
X135636758Y-93588765D01*
X135633500Y-93602102D01*
X135629917Y-93614848D01*
X135625966Y-93627091D01*
X135621604Y-93638917D01*
X135616786Y-93650413D01*
X135611469Y-93661667D01*
X135605609Y-93672766D01*
X135599163Y-93683798D01*
X135592088Y-93694848D01*
X135584339Y-93706006D01*
X135575873Y-93717357D01*
X135566646Y-93728989D01*
X135545736Y-93753445D01*
X135521261Y-93780071D01*
X135492871Y-93809565D01*
X135422953Y-93879949D01*
X135337273Y-93888630D01*
X135269577Y-93894831D01*
X135213663Y-93898552D01*
X135188186Y-93899482D01*
X135163330Y-93899792D01*
X135138319Y-93899482D01*
X135112377Y-93898552D01*
X135054603Y-93894831D01*
X134983807Y-93888630D01*
X134893787Y-93879949D01*
X134799287Y-93806629D01*
X134760100Y-93776876D01*
X134725249Y-93751249D01*
X134693954Y-93729387D01*
X134665435Y-93710934D01*
X134638912Y-93695528D01*
X134613604Y-93682811D01*
X134588733Y-93672425D01*
X134563517Y-93664009D01*
X134537178Y-93657205D01*
X134508934Y-93651654D01*
X134478006Y-93646996D01*
X134443615Y-93642872D01*
X134361320Y-93634792D01*
X134112775Y-93624822D01*
X133830332Y-93612029D01*
X133526633Y-93601309D01*
X132562791Y-93561880D01*
X131891721Y-93535421D01*
X129919620Y-93456615D01*
X129919620Y-93879949D01*
X129602119Y-93879949D01*
X129448775Y-93822265D01*
X129301147Y-93764343D01*
X129229524Y-93734362D01*
X129159385Y-93703203D01*
X129090750Y-93670495D01*
X129023637Y-93635865D01*
X128958065Y-93598941D01*
X128894054Y-93559350D01*
X128831620Y-93516720D01*
X128770784Y-93470678D01*
X128711564Y-93420853D01*
X128653979Y-93366871D01*
X128598047Y-93308360D01*
X128543787Y-93244948D01*
X128626706Y-93200693D01*
X128708499Y-93159285D01*
X128789902Y-93120646D01*
X128871650Y-93084701D01*
X128954480Y-93051372D01*
X129039128Y-93020582D01*
X129126329Y-92992253D01*
X129216819Y-92966309D01*
X129469828Y-92914219D01*
X129694626Y-92867441D01*
X129919620Y-92821615D01*
X129919620Y-93139115D01*
G37*
G36*
X139264005Y-99284976D02*
G01*
X140284697Y-99300802D01*
X141305590Y-99322666D01*
X141959504Y-99338065D01*
X143889619Y-99383281D01*
X143889619Y-99489115D01*
X138597953Y-99489115D01*
X138597953Y-100018282D01*
X138685052Y-99997779D01*
X138771442Y-99979908D01*
X138857243Y-99964501D01*
X138942575Y-99951391D01*
X139027559Y-99940411D01*
X139112314Y-99931394D01*
X139281622Y-99918580D01*
X139451461Y-99911615D01*
X139622793Y-99909162D01*
X139973786Y-99912448D01*
X139973786Y-100124115D01*
X137962952Y-100124115D01*
X138280453Y-99912448D01*
X138280453Y-99700781D01*
X138204987Y-99698459D01*
X138131470Y-99691670D01*
X138059750Y-99680683D01*
X137989676Y-99665764D01*
X137921097Y-99647181D01*
X137853862Y-99625201D01*
X137787819Y-99600093D01*
X137722817Y-99572123D01*
X137658704Y-99541559D01*
X137595330Y-99508669D01*
X137532543Y-99473719D01*
X137470192Y-99436978D01*
X137346192Y-99359191D01*
X137222120Y-99277448D01*
X138243238Y-99276691D01*
X139264005Y-99284976D01*
G37*
G36*
X147030328Y-89810420D02*
G01*
X147108599Y-89815691D01*
X147185251Y-89824697D01*
X147260716Y-89838008D01*
X147335429Y-89856195D01*
X147409825Y-89879830D01*
X147484336Y-89909484D01*
X147559398Y-89945728D01*
X147635444Y-89989133D01*
X147712908Y-90040272D01*
X147792223Y-90099714D01*
X148017119Y-90387448D01*
X148134243Y-90519249D01*
X148239430Y-90640353D01*
X148652119Y-91128282D01*
X147699619Y-90916615D01*
X147911286Y-90810782D01*
X147882238Y-90705393D01*
X147869751Y-90661890D01*
X147858079Y-90623456D01*
X147846816Y-90589296D01*
X147835553Y-90558616D01*
X147823885Y-90530620D01*
X147811405Y-90504515D01*
X147797705Y-90479506D01*
X147782378Y-90454798D01*
X147765018Y-90429597D01*
X147745217Y-90403108D01*
X147722570Y-90374537D01*
X147696667Y-90343089D01*
X147633472Y-90268386D01*
X147482145Y-90180997D01*
X147418854Y-90145487D01*
X147361874Y-90114840D01*
X147309750Y-90088610D01*
X147261030Y-90066351D01*
X147214261Y-90047617D01*
X147167988Y-90031964D01*
X147120759Y-90018944D01*
X147071120Y-90008112D01*
X147017617Y-89999023D01*
X146958798Y-89991230D01*
X146893208Y-89984289D01*
X146819395Y-89977753D01*
X146641285Y-89964115D01*
X146747118Y-90281615D01*
X146747118Y-90599115D01*
X146958785Y-90704949D01*
X146852952Y-91128282D01*
X146782698Y-91127949D01*
X146753510Y-91127159D01*
X146727481Y-91125620D01*
X146704010Y-91123084D01*
X146693047Y-91121363D01*
X146682497Y-91119300D01*
X146672286Y-91116862D01*
X146662340Y-91114018D01*
X146652582Y-91110739D01*
X146642939Y-91106991D01*
X146633334Y-91102744D01*
X146623692Y-91097967D01*
X146613940Y-91092629D01*
X146604000Y-91086698D01*
X146583262Y-91072934D01*
X146560876Y-91056425D01*
X146536243Y-91036923D01*
X146508761Y-91014177D01*
X146442847Y-90957956D01*
X146217953Y-90731407D01*
X146117447Y-90629629D01*
X146023644Y-90529460D01*
X145979151Y-90479399D01*
X145936210Y-90429044D01*
X145894777Y-90378163D01*
X145854813Y-90326524D01*
X145816274Y-90273896D01*
X145779121Y-90220045D01*
X145743310Y-90164740D01*
X145708801Y-90107749D01*
X145675553Y-90048840D01*
X145643523Y-89987780D01*
X145612670Y-89924338D01*
X145582952Y-89858282D01*
X145908561Y-89843886D01*
X146071405Y-89837673D01*
X146234281Y-89832444D01*
X146502380Y-89825209D01*
X146692365Y-89815246D01*
X146867190Y-89808792D01*
X146950003Y-89808310D01*
X147030328Y-89810420D01*
G37*
G36*
X130761642Y-97581744D02*
G01*
X131022953Y-97586456D01*
X131283930Y-97594780D01*
X131544797Y-97606473D01*
X131805778Y-97621294D01*
X132328980Y-97659355D01*
X132684516Y-97689948D01*
X133941285Y-97795781D01*
X133835453Y-98007448D01*
X133619957Y-98009642D01*
X133405584Y-98008179D01*
X133192003Y-98003231D01*
X132978881Y-97994970D01*
X132765886Y-97983565D01*
X132552686Y-97969189D01*
X132338948Y-97952013D01*
X132124342Y-97932207D01*
X131824619Y-97901615D01*
X130956870Y-97815212D01*
X130766285Y-97795781D01*
X130766285Y-98007448D01*
X130448786Y-98007448D01*
X130237119Y-97584115D01*
X130499772Y-97580883D01*
X130761642Y-97581744D01*
G37*
G36*
X132541386Y-98855516D02*
G01*
X132792490Y-98863714D01*
X133043083Y-98876252D01*
X133293503Y-98892637D01*
X133544090Y-98912377D01*
X134047120Y-98959947D01*
X134047120Y-99065781D01*
X132671287Y-99065781D01*
X132671287Y-99277448D01*
X132988785Y-99277448D01*
X133094620Y-99489115D01*
X132877023Y-99446551D01*
X132770757Y-99424471D01*
X132665621Y-99400905D01*
X132561192Y-99375136D01*
X132457052Y-99346447D01*
X132352779Y-99314123D01*
X132247953Y-99277448D01*
X132195450Y-99202827D01*
X132155349Y-99144329D01*
X132139174Y-99119576D01*
X132125170Y-99096993D01*
X132113026Y-99075961D01*
X132102433Y-99055859D01*
X132093079Y-99036067D01*
X132084656Y-99015965D01*
X132076853Y-98994932D01*
X132069359Y-98972350D01*
X132061866Y-98947597D01*
X132054063Y-98920053D01*
X132036286Y-98854114D01*
X132289431Y-98852152D01*
X132541386Y-98855516D01*
G37*
G36*
X145088925Y-91389144D02*
G01*
X145101224Y-91448986D01*
X145111663Y-91506967D01*
X145121482Y-91570529D01*
X145131920Y-91647113D01*
X145159618Y-91869115D01*
X145157391Y-91989279D01*
X145152285Y-92104383D01*
X145144035Y-92214914D01*
X145132377Y-92321358D01*
X145117047Y-92424200D01*
X145097780Y-92523925D01*
X145074313Y-92621020D01*
X145046380Y-92715969D01*
X145013718Y-92809259D01*
X144976062Y-92901375D01*
X144933148Y-92992803D01*
X144884711Y-93084028D01*
X144830488Y-93175536D01*
X144770213Y-93267813D01*
X144703623Y-93361344D01*
X144630453Y-93456615D01*
X144524619Y-93244948D01*
X144599502Y-93129872D01*
X144664266Y-93025167D01*
X144692938Y-92975274D01*
X144719180Y-92926258D01*
X144743027Y-92877549D01*
X144764511Y-92828574D01*
X144783666Y-92778761D01*
X144800525Y-92727538D01*
X144815123Y-92674335D01*
X144827491Y-92618579D01*
X144837665Y-92559699D01*
X144845676Y-92497123D01*
X144851559Y-92430278D01*
X144855347Y-92358594D01*
X144852907Y-92214278D01*
X144855354Y-92072645D01*
X144862246Y-91932889D01*
X144873144Y-91794207D01*
X144887604Y-91655793D01*
X144905187Y-91516843D01*
X144925450Y-91376552D01*
X144947951Y-91234115D01*
X145053785Y-91234115D01*
X145088925Y-91389144D01*
G37*
G36*
X139232952Y-96737448D02*
G01*
X139656286Y-96737448D01*
X139656286Y-96949115D01*
X139358630Y-96916042D01*
X139297411Y-96902479D01*
X139241218Y-96889119D01*
X139189554Y-96875610D01*
X139141922Y-96861598D01*
X139097824Y-96846730D01*
X139056763Y-96830653D01*
X139018242Y-96813015D01*
X138999778Y-96803501D01*
X138981763Y-96793463D01*
X138964134Y-96782859D01*
X138946830Y-96771644D01*
X138929787Y-96759773D01*
X138912944Y-96747204D01*
X138896239Y-96733891D01*
X138879609Y-96719791D01*
X138846327Y-96689053D01*
X138812601Y-96654635D01*
X138777934Y-96616186D01*
X138741828Y-96573353D01*
X138703786Y-96525781D01*
X139232952Y-96419948D01*
X139232952Y-96737448D01*
G37*
G36*
X130706441Y-97581729D02*
G01*
X130940130Y-97584894D01*
X131173474Y-97591109D01*
X131406699Y-97600481D01*
X131640033Y-97613121D01*
X131873703Y-97629135D01*
X132107935Y-97648633D01*
X133189719Y-97740409D01*
X134272598Y-97817873D01*
X136440839Y-97935917D01*
X138611058Y-98014866D01*
X140781654Y-98066821D01*
X141137952Y-98073594D01*
X142977220Y-98101327D01*
X144816154Y-98112702D01*
X146655099Y-98106331D01*
X148494402Y-98080828D01*
X149535398Y-98060649D01*
X151291307Y-98019939D01*
X153045295Y-97958637D01*
X154798175Y-97872674D01*
X156550758Y-97757980D01*
X157730934Y-97670442D01*
X158014234Y-97649847D01*
X158273017Y-97631455D01*
X158531346Y-97616046D01*
X158789406Y-97603580D01*
X159047381Y-97594022D01*
X159305456Y-97587334D01*
X159563814Y-97583478D01*
X159822640Y-97582418D01*
X160082118Y-97584115D01*
X160026765Y-97706289D01*
X160005898Y-97750889D01*
X159986265Y-97791111D01*
X159965384Y-97831918D01*
X159940775Y-97878268D01*
X159870451Y-98007448D01*
X159504800Y-98174843D01*
X159172899Y-98304148D01*
X158998510Y-98357422D01*
X158807243Y-98404660D01*
X158590660Y-98447022D01*
X158340324Y-98485672D01*
X157704636Y-98556480D01*
X156832672Y-98626380D01*
X154109891Y-98800633D01*
X153796197Y-98819388D01*
X152789763Y-98874436D01*
X151783574Y-98917133D01*
X149771339Y-98970886D01*
X147758304Y-98991472D01*
X145743278Y-98989714D01*
X144203425Y-98985373D01*
X142293581Y-98982352D01*
X141930462Y-98981445D01*
X139702261Y-98958651D01*
X138587598Y-98929927D01*
X137473274Y-98886876D01*
X136359827Y-98827415D01*
X135247791Y-98749460D01*
X134137703Y-98650930D01*
X133030100Y-98529742D01*
X132717588Y-98490312D01*
X132143717Y-98419414D01*
X131852904Y-98378532D01*
X131562463Y-98330283D01*
X131274613Y-98271859D01*
X131132352Y-98237954D01*
X130991571Y-98200451D01*
X130852547Y-98159000D01*
X130715556Y-98113250D01*
X130580877Y-98062850D01*
X130448786Y-98007448D01*
X130402854Y-97933582D01*
X130367447Y-97875623D01*
X130352915Y-97851059D01*
X130340084Y-97828611D01*
X130328644Y-97807660D01*
X130318285Y-97787584D01*
X130308697Y-97767765D01*
X130299569Y-97747582D01*
X130290593Y-97726415D01*
X130281457Y-97703644D01*
X130261467Y-97650809D01*
X130237119Y-97584115D01*
X130472179Y-97581506D01*
X130706441Y-97581729D01*
G37*
G36*
X152231820Y-100582647D02*
G01*
X152348081Y-100587158D01*
X152463981Y-100595454D01*
X152579822Y-100607210D01*
X152695909Y-100622103D01*
X152930036Y-100659996D01*
X153168795Y-100706532D01*
X153414619Y-100759114D01*
X153414619Y-100970781D01*
X153309140Y-101040703D01*
X153265126Y-101069100D01*
X153225631Y-101093590D01*
X153189680Y-101114524D01*
X153156298Y-101132254D01*
X153124512Y-101147130D01*
X153093346Y-101159504D01*
X153061826Y-101169726D01*
X153028979Y-101178149D01*
X152993829Y-101185123D01*
X152955402Y-101191000D01*
X152912724Y-101196131D01*
X152864821Y-101200867D01*
X152749439Y-101210559D01*
X152349670Y-101208907D01*
X151949074Y-101210559D01*
X151838540Y-101200867D01*
X151793004Y-101196131D01*
X151752892Y-101191000D01*
X151717403Y-101185123D01*
X151701144Y-101181795D01*
X151685740Y-101178149D01*
X151671094Y-101174141D01*
X151657104Y-101169726D01*
X151643672Y-101164862D01*
X151630696Y-101159504D01*
X151618078Y-101153608D01*
X151605717Y-101147130D01*
X151593514Y-101140027D01*
X151581369Y-101132254D01*
X151569181Y-101123768D01*
X151556852Y-101114524D01*
X151544280Y-101104480D01*
X151531368Y-101093590D01*
X151504118Y-101069100D01*
X151474303Y-101040703D01*
X151403785Y-100970781D01*
X151509618Y-100653281D01*
X151634438Y-100628254D01*
X151757071Y-100608962D01*
X151877822Y-100595080D01*
X151996994Y-100586284D01*
X152114892Y-100582248D01*
X152231820Y-100582647D01*
G37*
G36*
X131718787Y-96208281D02*
G01*
X132199601Y-96204433D01*
X132437594Y-96207248D01*
X132674657Y-96214734D01*
X132911298Y-96228029D01*
X133148027Y-96248267D01*
X133385354Y-96276584D01*
X133623786Y-96314115D01*
X133572674Y-96345989D01*
X133523643Y-96374668D01*
X133476299Y-96400340D01*
X133430247Y-96423195D01*
X133385094Y-96443420D01*
X133340445Y-96461206D01*
X133295907Y-96476741D01*
X133251084Y-96490214D01*
X133205584Y-96501814D01*
X133159012Y-96511730D01*
X133110974Y-96520151D01*
X133061075Y-96527267D01*
X133008923Y-96533266D01*
X132954122Y-96538337D01*
X132834998Y-96546452D01*
X132433161Y-96539011D01*
X132028019Y-96533223D01*
X131718787Y-96525781D01*
X131718787Y-96843282D01*
X131401285Y-96843282D01*
X131612952Y-96737448D01*
X131612952Y-95996615D01*
X131401285Y-95996615D01*
X131718787Y-95890782D01*
X131718787Y-96208281D01*
G37*
G36*
X158706285Y-97054948D02*
G01*
X157330452Y-97054948D01*
X157330452Y-89858282D01*
X158706285Y-89858282D01*
X158706285Y-97054948D01*
G37*
G36*
X154281129Y-99158385D02*
G01*
X154684618Y-99171614D01*
X154684618Y-99277448D01*
X154605624Y-99315353D01*
X154529959Y-99348339D01*
X154457088Y-99376565D01*
X154386476Y-99400192D01*
X154317587Y-99419380D01*
X154249886Y-99434289D01*
X154182838Y-99445079D01*
X154115907Y-99451910D01*
X154048558Y-99454944D01*
X153980257Y-99454339D01*
X153910466Y-99450256D01*
X153838652Y-99442856D01*
X153764279Y-99432298D01*
X153686812Y-99418743D01*
X153605714Y-99402350D01*
X153520452Y-99383281D01*
X153625674Y-99313374D01*
X153669077Y-99285011D01*
X153707385Y-99260588D01*
X153741378Y-99239765D01*
X153771839Y-99222201D01*
X153799549Y-99207555D01*
X153825291Y-99195489D01*
X153849846Y-99185661D01*
X153873995Y-99177730D01*
X153898521Y-99171357D01*
X153924206Y-99166202D01*
X153951831Y-99161923D01*
X153982178Y-99158181D01*
X154054166Y-99150945D01*
X154281129Y-99158385D01*
G37*
G36*
X131718787Y-90175782D02*
G01*
X133363749Y-90186117D01*
X134033890Y-90189011D01*
X135023832Y-90195545D01*
X135336137Y-90196452D01*
X135641489Y-90199763D01*
X135923955Y-90199811D01*
X136004247Y-90201998D01*
X136067142Y-90203264D01*
X136117930Y-90203330D01*
X136140437Y-90202824D01*
X136161902Y-90201912D01*
X136182985Y-90200559D01*
X136204349Y-90198730D01*
X136250562Y-90193502D01*
X136305833Y-90185947D01*
X136375452Y-90175782D01*
X136587119Y-89964115D01*
X136694326Y-89934284D01*
X136790615Y-89908774D01*
X136835719Y-89898297D01*
X136879358Y-89889688D01*
X136921954Y-89883209D01*
X136963929Y-89879124D01*
X137005704Y-89877695D01*
X137047701Y-89879185D01*
X137090341Y-89883855D01*
X137134047Y-89891970D01*
X137179239Y-89903790D01*
X137226340Y-89919580D01*
X137275771Y-89939600D01*
X137327953Y-89964115D01*
X137374255Y-90180329D01*
X137389345Y-90258981D01*
X137400713Y-90329571D01*
X137409601Y-90400781D01*
X137417249Y-90481293D01*
X137433785Y-90704949D01*
X137222120Y-90916615D01*
X137136440Y-90925297D01*
X137068744Y-90931498D01*
X137012830Y-90935219D01*
X136987353Y-90936149D01*
X136962497Y-90936459D01*
X136937485Y-90936149D01*
X136911544Y-90935219D01*
X136853769Y-90931498D01*
X136782973Y-90925297D01*
X136692953Y-90916615D01*
X136598452Y-90843296D01*
X136559266Y-90813543D01*
X136524415Y-90787915D01*
X136493120Y-90766054D01*
X136464601Y-90747600D01*
X136438078Y-90732194D01*
X136412771Y-90719478D01*
X136387900Y-90709091D01*
X136362684Y-90700676D01*
X136336345Y-90693872D01*
X136308101Y-90688320D01*
X136277173Y-90683663D01*
X136242782Y-90679539D01*
X136160487Y-90671459D01*
X135911941Y-90661488D01*
X135629499Y-90648696D01*
X135325800Y-90637976D01*
X134361957Y-90598547D01*
X133690888Y-90572088D01*
X131718787Y-90493282D01*
X131718787Y-90810782D01*
X131613534Y-90810661D01*
X131531608Y-90809813D01*
X131497380Y-90808889D01*
X131466570Y-90807511D01*
X131438373Y-90805589D01*
X131411983Y-90803030D01*
X131386596Y-90799745D01*
X131361407Y-90795642D01*
X131335611Y-90790631D01*
X131308403Y-90784620D01*
X131246534Y-90769239D01*
X131169361Y-90748770D01*
X130918421Y-90665261D01*
X130810556Y-90629629D01*
X130761454Y-90612645D01*
X130715081Y-90595774D01*
X130671066Y-90578685D01*
X130629043Y-90561046D01*
X130588640Y-90542528D01*
X130549491Y-90522798D01*
X130511225Y-90501525D01*
X130473474Y-90478379D01*
X130435869Y-90453028D01*
X130398040Y-90425142D01*
X130359620Y-90394388D01*
X130320239Y-90360437D01*
X130279529Y-90322956D01*
X130237119Y-90281615D01*
X130327034Y-90242381D01*
X130417250Y-90205646D01*
X130507779Y-90171240D01*
X130598633Y-90138993D01*
X130781367Y-90080290D01*
X130965551Y-90028174D01*
X131151286Y-89981280D01*
X131338671Y-89938243D01*
X131718787Y-89858282D01*
X131718787Y-90175782D01*
G37*
G36*
X143093550Y-89848291D02*
G01*
X143200805Y-89854923D01*
X143305344Y-89866083D01*
X143407403Y-89881694D01*
X143507219Y-89901676D01*
X143605028Y-89925951D01*
X143701065Y-89954439D01*
X143795566Y-89987062D01*
X143888768Y-90023741D01*
X143980906Y-90064398D01*
X144072217Y-90108953D01*
X144162937Y-90157328D01*
X144253301Y-90209444D01*
X144343545Y-90265222D01*
X144433906Y-90324583D01*
X144524619Y-90387448D01*
X144603634Y-90481517D01*
X144676064Y-90576711D01*
X144742198Y-90673127D01*
X144802322Y-90770858D01*
X144856724Y-90869999D01*
X144905690Y-90970646D01*
X144949509Y-91072893D01*
X144988468Y-91176835D01*
X145022852Y-91282567D01*
X145052951Y-91390184D01*
X145079051Y-91499781D01*
X145101439Y-91611453D01*
X145120403Y-91725293D01*
X145136229Y-91841399D01*
X145149205Y-91959863D01*
X145159618Y-92080782D01*
X145151742Y-92197242D01*
X145139693Y-92309244D01*
X145123424Y-92417156D01*
X145102887Y-92521344D01*
X145078035Y-92622174D01*
X145048822Y-92720013D01*
X145015200Y-92815228D01*
X144977121Y-92908185D01*
X144934540Y-92999250D01*
X144887409Y-93088791D01*
X144835680Y-93177173D01*
X144779307Y-93264763D01*
X144718243Y-93351928D01*
X144652440Y-93439035D01*
X144581851Y-93526449D01*
X144506429Y-93614538D01*
X144423467Y-93680604D01*
X144340799Y-93741649D01*
X144258164Y-93797801D01*
X144175303Y-93849188D01*
X144091954Y-93895940D01*
X144007855Y-93938184D01*
X143922746Y-93976049D01*
X143836366Y-94009665D01*
X143748454Y-94039158D01*
X143658748Y-94064659D01*
X143566989Y-94086295D01*
X143472914Y-94104195D01*
X143376263Y-94118488D01*
X143276775Y-94129302D01*
X143174189Y-94136766D01*
X143068244Y-94141008D01*
X142843688Y-94142051D01*
X142479822Y-94149334D01*
X142115929Y-94154970D01*
X141740413Y-94159910D01*
X141364915Y-94166029D01*
X140885772Y-94175124D01*
X140573765Y-94176356D01*
X140418151Y-94178922D01*
X140263209Y-94185855D01*
X140186084Y-94191679D01*
X140109243Y-94199457D01*
X140032723Y-94209478D01*
X139956563Y-94222028D01*
X139880800Y-94237396D01*
X139805474Y-94255869D01*
X139730623Y-94277735D01*
X139656286Y-94303282D01*
X139578958Y-94366184D01*
X139547679Y-94392602D01*
X139520871Y-94416525D01*
X139498192Y-94438598D01*
X139488295Y-94449143D01*
X139479303Y-94459468D01*
X139471173Y-94469653D01*
X139463863Y-94479779D01*
X139457330Y-94489927D01*
X139451531Y-94500178D01*
X139446424Y-94510612D01*
X139441968Y-94521310D01*
X139438118Y-94532352D01*
X139434832Y-94543820D01*
X139432069Y-94555794D01*
X139429784Y-94568354D01*
X139426484Y-94595558D01*
X139424590Y-94626076D01*
X139423763Y-94660556D01*
X139423948Y-94743978D01*
X139431390Y-95004427D01*
X139437140Y-95235963D01*
X139444619Y-95467448D01*
X139528965Y-95490850D01*
X139612055Y-95511965D01*
X139694453Y-95530782D01*
X139776720Y-95547290D01*
X139859419Y-95561480D01*
X139943113Y-95573339D01*
X140028363Y-95582858D01*
X140115734Y-95590026D01*
X140392055Y-95595011D01*
X140706577Y-95601408D01*
X141043694Y-95606768D01*
X142115516Y-95626483D01*
X142861413Y-95639712D01*
X144584460Y-95671079D01*
X145053785Y-95679115D01*
X145053785Y-97054948D01*
X143155814Y-97060116D01*
X142381493Y-97061562D01*
X141239555Y-97064829D01*
X140878330Y-97065283D01*
X140527183Y-97066939D01*
X140199819Y-97066963D01*
X140077724Y-97065626D01*
X139958835Y-97060873D01*
X139842905Y-97052507D01*
X139729684Y-97040332D01*
X139618925Y-97024152D01*
X139510381Y-97003771D01*
X139403802Y-96978993D01*
X139298940Y-96949623D01*
X139195549Y-96915463D01*
X139093379Y-96876318D01*
X138992182Y-96831992D01*
X138891711Y-96782288D01*
X138791717Y-96727012D01*
X138691953Y-96665966D01*
X138592170Y-96598954D01*
X138492120Y-96525781D01*
X138425922Y-96457843D01*
X138364696Y-96390284D01*
X138308251Y-96322800D01*
X138256398Y-96255084D01*
X138208946Y-96186832D01*
X138165707Y-96117737D01*
X138126491Y-96047494D01*
X138091108Y-95975798D01*
X138059368Y-95902344D01*
X138031081Y-95826824D01*
X138006059Y-95748935D01*
X137984110Y-95668370D01*
X137965046Y-95584825D01*
X137948678Y-95497992D01*
X137934814Y-95407568D01*
X137923266Y-95313246D01*
X137919007Y-95066004D01*
X137918506Y-94823122D01*
X137921503Y-94703491D01*
X137927646Y-94585161D01*
X137937669Y-94468202D01*
X137952309Y-94352684D01*
X137972300Y-94238678D01*
X137998379Y-94126253D01*
X138031280Y-94015481D01*
X138071738Y-93906431D01*
X138120491Y-93799174D01*
X138178271Y-93693780D01*
X138210777Y-93641803D01*
X138245816Y-93590319D01*
X138283480Y-93539335D01*
X138323861Y-93488861D01*
X138498734Y-93337553D01*
X138742954Y-93120455D01*
X138850209Y-93032537D01*
X138953265Y-92957046D01*
X139056404Y-92892986D01*
X139163905Y-92839363D01*
X139280046Y-92795182D01*
X139409109Y-92759448D01*
X139555373Y-92731165D01*
X139723118Y-92709339D01*
X139916622Y-92692974D01*
X140140167Y-92681075D01*
X140694494Y-92666695D01*
X141420338Y-92658240D01*
X142146883Y-92650669D01*
X142609284Y-92642608D01*
X142761099Y-92643525D01*
X142897387Y-92645829D01*
X142960730Y-92645880D01*
X143021417Y-92644332D01*
X143079858Y-92640538D01*
X143136459Y-92633848D01*
X143191631Y-92623615D01*
X143218808Y-92616967D01*
X143245781Y-92609189D01*
X143272601Y-92600201D01*
X143299319Y-92589922D01*
X143325986Y-92578271D01*
X143352653Y-92565166D01*
X143379371Y-92550527D01*
X143406191Y-92534273D01*
X143433164Y-92516322D01*
X143460342Y-92496593D01*
X143487775Y-92475006D01*
X143515515Y-92451479D01*
X143543612Y-92425931D01*
X143572118Y-92398282D01*
X143586590Y-92276750D01*
X143596928Y-92180847D01*
X143600546Y-92139793D01*
X143603130Y-92101890D01*
X143604681Y-92066054D01*
X143605197Y-92031198D01*
X143604681Y-91996239D01*
X143603130Y-91960090D01*
X143600546Y-91921666D01*
X143596928Y-91879883D01*
X143586590Y-91781897D01*
X143572118Y-91657448D01*
X143542118Y-91617213D01*
X143513375Y-91580107D01*
X143485527Y-91545966D01*
X143458210Y-91514628D01*
X143431061Y-91485929D01*
X143403717Y-91459705D01*
X143375814Y-91435795D01*
X143346991Y-91414034D01*
X143316883Y-91394259D01*
X143285127Y-91376308D01*
X143251360Y-91360016D01*
X143215220Y-91345222D01*
X143176342Y-91331761D01*
X143134364Y-91319471D01*
X143088922Y-91308188D01*
X143039654Y-91297750D01*
X142791108Y-91294189D01*
X142508665Y-91287841D01*
X142204967Y-91285792D01*
X141723060Y-91277390D01*
X141241125Y-91270780D01*
X140570054Y-91261891D01*
X139020382Y-91238792D01*
X138597953Y-91234115D01*
X138597953Y-89858282D01*
X140312990Y-89853114D01*
X141012275Y-89851667D01*
X142044245Y-89848400D01*
X142370332Y-89847947D01*
X142688059Y-89846291D01*
X142983344Y-89846267D01*
X143093550Y-89848291D01*
G37*
G36*
X137327953Y-90704949D02*
G01*
X136904620Y-90810782D01*
X136904620Y-90599115D01*
X136587119Y-90599115D01*
X136692953Y-90175782D01*
X137222120Y-90069948D01*
X137327953Y-90704949D01*
G37*
G36*
X149287118Y-93562448D02*
G01*
X149248470Y-93610650D01*
X149209068Y-93655843D01*
X149168855Y-93698238D01*
X149127775Y-93738050D01*
X149085769Y-93775489D01*
X149042780Y-93810770D01*
X148998752Y-93844104D01*
X148953627Y-93875705D01*
X148907349Y-93905784D01*
X148859859Y-93934556D01*
X148811101Y-93962231D01*
X148761017Y-93989023D01*
X148656645Y-94040809D01*
X148546285Y-94091615D01*
X148601781Y-94029233D01*
X148645319Y-93979478D01*
X148680619Y-93937387D01*
X148696343Y-93917667D01*
X148711403Y-93898002D01*
X148726264Y-93877772D01*
X148741391Y-93856359D01*
X148774303Y-93807499D01*
X148813861Y-93746460D01*
X148863785Y-93668282D01*
X148863785Y-93244948D01*
X149287118Y-93139115D01*
X149287118Y-93562448D01*
G37*
G36*
X132073795Y-97791328D02*
G01*
X132214450Y-97798859D01*
X132284440Y-97804715D01*
X132354333Y-97812206D01*
X132424227Y-97821513D01*
X132494220Y-97832817D01*
X132564408Y-97846298D01*
X132634889Y-97862138D01*
X132705760Y-97880516D01*
X132777119Y-97901615D01*
X132777119Y-98219115D01*
X131718787Y-98219115D01*
X131718787Y-98007448D01*
X130977952Y-98007448D01*
X130977952Y-97795781D01*
X131264033Y-97792061D01*
X131639411Y-97789167D01*
X131931588Y-97788167D01*
X132073795Y-97791328D01*
G37*
G36*
X130865806Y-97580839D02*
G01*
X131074580Y-97584722D01*
X131283291Y-97591237D01*
X131492136Y-97600469D01*
X131701314Y-97612506D01*
X131911021Y-97627434D01*
X132140467Y-97646127D01*
X132636405Y-97686305D01*
X134244536Y-97802746D01*
X135853108Y-97894150D01*
X137462725Y-97965179D01*
X139073991Y-98020497D01*
X139299099Y-98027292D01*
X142082923Y-98107382D01*
X142302119Y-98113281D01*
X142302119Y-98219115D01*
X136481286Y-98219115D01*
X136481286Y-98536614D01*
X138703786Y-98748281D01*
X138703786Y-98854114D01*
X137993138Y-98864643D01*
X137282221Y-98857530D01*
X136571349Y-98834295D01*
X135860837Y-98796459D01*
X135151002Y-98745543D01*
X134442158Y-98683065D01*
X133734621Y-98610547D01*
X133028706Y-98529509D01*
X132717588Y-98490312D01*
X132143718Y-98419421D01*
X131852904Y-98378539D01*
X131562462Y-98330289D01*
X131274610Y-98271862D01*
X131132349Y-98237955D01*
X130991568Y-98200452D01*
X130852544Y-98159000D01*
X130715554Y-98113250D01*
X130580875Y-98062849D01*
X130448786Y-98007448D01*
X130402854Y-97933582D01*
X130367447Y-97875623D01*
X130352915Y-97851059D01*
X130340084Y-97828611D01*
X130328644Y-97807660D01*
X130318285Y-97787584D01*
X130308697Y-97767765D01*
X130299569Y-97747582D01*
X130290593Y-97726415D01*
X130281457Y-97703644D01*
X130261467Y-97650809D01*
X130237119Y-97584115D01*
X130447273Y-97580622D01*
X130656769Y-97579501D01*
X130865806Y-97580839D01*
G37*
G36*
X129813785Y-93244948D02*
G01*
X130025452Y-93244948D01*
X129919620Y-93879949D01*
X129602119Y-93879949D01*
X129448775Y-93822265D01*
X129301147Y-93764343D01*
X129229524Y-93734362D01*
X129159385Y-93703203D01*
X129090750Y-93670495D01*
X129023637Y-93635865D01*
X128958065Y-93598941D01*
X128894054Y-93559350D01*
X128831620Y-93516720D01*
X128770784Y-93470678D01*
X128711564Y-93420853D01*
X128653979Y-93366871D01*
X128598047Y-93308360D01*
X128543787Y-93244948D01*
X128665329Y-93169914D01*
X128717995Y-93139207D01*
X128767736Y-93112420D01*
X128816415Y-93089088D01*
X128865892Y-93068746D01*
X128918026Y-93050929D01*
X128974678Y-93035171D01*
X129037708Y-93021008D01*
X129108977Y-93007974D01*
X129190345Y-92995605D01*
X129283673Y-92983436D01*
X129513648Y-92957834D01*
X129813785Y-92927448D01*
X129813785Y-93244948D01*
G37*
G36*
X137048587Y-89883379D02*
G01*
X137091467Y-89887284D01*
X137135302Y-89894598D01*
X137180481Y-89905630D01*
X137227391Y-89920689D01*
X137276419Y-89940081D01*
X137327953Y-89964115D01*
X137358870Y-90148652D01*
X137386889Y-90333676D01*
X137411898Y-90519128D01*
X137433785Y-90704949D01*
X137327953Y-90704949D01*
X137222120Y-90069948D01*
X136692953Y-90281615D01*
X136587119Y-89964115D01*
X136789685Y-89914312D01*
X136834966Y-89904225D01*
X136878878Y-89895700D01*
X136921809Y-89889045D01*
X136964146Y-89884568D01*
X137006276Y-89882577D01*
X137048587Y-89883379D01*
G37*
G36*
X131718787Y-90281615D02*
G01*
X131612952Y-90599115D01*
X131295454Y-90599115D01*
X131189619Y-90175782D01*
X131507120Y-90069948D01*
X131718787Y-90281615D01*
G37*
G36*
X132459620Y-98959947D02*
G01*
X132459620Y-99277448D01*
X132247953Y-99277448D01*
X132036286Y-98854114D01*
X132882954Y-98854114D01*
X132459620Y-98959947D01*
G37*
G36*
X148774309Y-95709034D02*
G01*
X148697404Y-95818993D01*
X148659790Y-95868175D01*
X148620668Y-95915560D01*
X148578488Y-95962698D01*
X148531700Y-96011139D01*
X148478753Y-96062434D01*
X148418097Y-96118132D01*
X148267456Y-96248941D01*
X148067375Y-96415967D01*
X147805453Y-96631615D01*
X148017119Y-95996615D01*
X148228786Y-95996615D01*
X148228786Y-95679115D01*
X148863785Y-95573281D01*
X148774309Y-95709034D01*
G37*
G36*
X137222120Y-96102448D02*
G01*
X137224570Y-96234726D01*
X137225428Y-96367033D01*
X137224632Y-96499340D01*
X137222120Y-96631615D01*
X137030297Y-96697761D01*
X136953260Y-96710447D01*
X136920870Y-96714766D01*
X136891494Y-96717398D01*
X136864326Y-96718092D01*
X136838564Y-96716597D01*
X136825958Y-96714949D01*
X136813403Y-96712660D01*
X136800796Y-96709697D01*
X136788037Y-96706029D01*
X136761665Y-96696453D01*
X136733480Y-96683679D01*
X136702679Y-96667456D01*
X136668458Y-96647531D01*
X136630012Y-96623653D01*
X136586538Y-96595570D01*
X136481286Y-96525781D01*
X136692953Y-96419948D01*
X136692953Y-95996615D01*
X137116286Y-95996615D01*
X137222120Y-96102448D01*
G37*
G36*
X147772683Y-96701352D02*
G01*
X147758580Y-96730388D01*
X147745378Y-96756362D01*
X147732612Y-96779894D01*
X147719817Y-96801604D01*
X147706529Y-96822113D01*
X147692280Y-96842041D01*
X147676608Y-96862008D01*
X147659046Y-96882633D01*
X147639130Y-96904537D01*
X147616394Y-96928341D01*
X147560603Y-96984125D01*
X147487952Y-97054948D01*
X147399015Y-97068403D01*
X147311079Y-97078496D01*
X147223758Y-97085650D01*
X147136666Y-97090288D01*
X147049419Y-97092834D01*
X146961629Y-97093712D01*
X146782879Y-97092155D01*
X146515609Y-97081407D01*
X146049240Y-97069965D01*
X145582952Y-97054948D01*
X145794619Y-96631615D01*
X145900452Y-96843282D01*
X146234902Y-96887103D01*
X146647900Y-96909427D01*
X147014966Y-96930086D01*
X147382119Y-96949115D01*
X147382119Y-96737448D01*
X147805453Y-96631615D01*
X147772683Y-96701352D01*
G37*
G36*
X148546053Y-94161998D02*
G01*
X148545500Y-94191492D01*
X148544425Y-94218119D01*
X148542652Y-94242575D01*
X148540007Y-94265558D01*
X148536315Y-94287766D01*
X148531402Y-94309896D01*
X148525095Y-94332647D01*
X148517217Y-94356715D01*
X148507596Y-94382799D01*
X148496056Y-94411595D01*
X148466523Y-94480118D01*
X148427223Y-94567865D01*
X148381671Y-94626145D01*
X148336906Y-94678457D01*
X148292573Y-94725266D01*
X148248315Y-94767035D01*
X148203779Y-94804229D01*
X148158607Y-94837312D01*
X148112445Y-94866748D01*
X148064938Y-94893000D01*
X148015729Y-94916534D01*
X147964464Y-94937812D01*
X147910788Y-94957300D01*
X147854343Y-94975460D01*
X147794777Y-94992758D01*
X147731732Y-95009657D01*
X147593786Y-95044115D01*
X147664009Y-94938983D01*
X147719011Y-94857905D01*
X147742248Y-94824601D01*
X147763412Y-94795169D01*
X147783082Y-94768894D01*
X147801835Y-94745063D01*
X147820249Y-94722961D01*
X147838902Y-94701875D01*
X147858370Y-94681091D01*
X147879233Y-94659894D01*
X147902068Y-94637571D01*
X147927452Y-94613407D01*
X147988180Y-94556703D01*
X148189098Y-94389271D01*
X148367415Y-94240111D01*
X148546285Y-94091615D01*
X148546053Y-94161998D01*
G37*
G36*
X134122057Y-93441675D02*
G01*
X134359045Y-93449674D01*
X134476129Y-93456873D01*
X134592579Y-93466579D01*
X134708623Y-93479074D01*
X134824490Y-93494640D01*
X134940409Y-93513558D01*
X135056608Y-93536109D01*
X135173317Y-93562576D01*
X135290763Y-93593239D01*
X135409177Y-93628381D01*
X135528786Y-93668282D01*
X135422953Y-93879949D01*
X135277018Y-93887390D01*
X135222965Y-93889250D01*
X135173252Y-93889870D01*
X135121679Y-93889250D01*
X135062045Y-93887390D01*
X134893787Y-93879949D01*
X134799028Y-93806400D01*
X134759718Y-93776556D01*
X134724737Y-93750853D01*
X134693295Y-93728931D01*
X134664606Y-93710431D01*
X134637881Y-93694993D01*
X134612331Y-93682258D01*
X134587168Y-93671866D01*
X134561604Y-93663458D01*
X134534850Y-93656674D01*
X134506119Y-93651155D01*
X134474622Y-93646541D01*
X134439571Y-93642473D01*
X134355653Y-93634537D01*
X134105411Y-93624460D01*
X133833591Y-93612058D01*
X133551026Y-93602136D01*
X133148038Y-93584889D01*
X132745002Y-93568804D01*
X132565452Y-93562448D01*
X132565452Y-93456615D01*
X132942371Y-93450729D01*
X133319309Y-93446279D01*
X133630399Y-93443385D01*
X133879785Y-93440330D01*
X134122057Y-93441675D01*
G37*
G36*
X149569272Y-94303695D02*
G01*
X149599012Y-94304677D01*
X149626116Y-94306589D01*
X149651360Y-94309741D01*
X149675519Y-94314444D01*
X149699368Y-94321007D01*
X149723681Y-94329740D01*
X149749235Y-94340954D01*
X149776805Y-94354958D01*
X149807164Y-94372063D01*
X149841090Y-94392579D01*
X149922739Y-94445082D01*
X150027952Y-94514948D01*
X149392952Y-95044115D01*
X149498785Y-94303282D01*
X149569272Y-94303695D01*
G37*
G36*
X134465902Y-100123430D02*
G01*
X134621149Y-100127575D01*
X134775969Y-100134559D01*
X134930654Y-100144270D01*
X135085497Y-100156595D01*
X135240791Y-100171420D01*
X135396830Y-100188632D01*
X136442524Y-100300934D01*
X137489626Y-100392655D01*
X138537923Y-100466277D01*
X139587203Y-100524282D01*
X141687860Y-100603368D01*
X143789896Y-100649767D01*
X143995452Y-100653281D01*
X145003482Y-100661648D01*
X146011184Y-100654509D01*
X147018815Y-100636852D01*
X148026630Y-100613664D01*
X148301546Y-100606979D01*
X149519008Y-100574186D01*
X150735843Y-100528111D01*
X151343858Y-100497458D01*
X151951515Y-100460324D01*
X152558747Y-100415654D01*
X153165486Y-100362395D01*
X153914991Y-100291793D01*
X154664719Y-100228426D01*
X155415031Y-100172473D01*
X156166285Y-100124115D01*
X156158346Y-100189919D01*
X156151376Y-100242118D01*
X156147867Y-100264667D01*
X156144135Y-100285675D01*
X156140025Y-100305762D01*
X156135382Y-100325550D01*
X156130052Y-100345657D01*
X156123878Y-100366703D01*
X156108381Y-100414097D01*
X156087653Y-100472691D01*
X156060451Y-100547447D01*
X155436009Y-100924059D01*
X155150076Y-101076249D01*
X154861178Y-101206498D01*
X154553947Y-101316408D01*
X154213015Y-101407581D01*
X153823013Y-101481621D01*
X153368574Y-101540130D01*
X152834329Y-101584710D01*
X152204910Y-101616963D01*
X150599078Y-101650900D01*
X145569129Y-101641361D01*
X145044614Y-101639367D01*
X144520097Y-101639189D01*
X142635670Y-101632019D01*
X141693932Y-101615189D01*
X140752918Y-101584432D01*
X139812931Y-101535927D01*
X138874277Y-101465852D01*
X137937259Y-101370384D01*
X137002184Y-101245700D01*
X136692953Y-101195677D01*
X136070036Y-101103050D01*
X135755271Y-101048321D01*
X135441981Y-100983211D01*
X135286752Y-100945647D01*
X135132927Y-100904146D01*
X134980851Y-100858262D01*
X134830870Y-100807548D01*
X134683328Y-100751557D01*
X134538570Y-100689841D01*
X134396941Y-100621953D01*
X134258787Y-100547447D01*
X134230771Y-100472573D01*
X134209461Y-100413893D01*
X134200933Y-100389077D01*
X134193615Y-100366449D01*
X134187354Y-100345390D01*
X134181995Y-100325278D01*
X134177381Y-100305495D01*
X134173358Y-100285421D01*
X134169771Y-100264434D01*
X134166466Y-100241915D01*
X134160077Y-100189800D01*
X134152952Y-100124115D01*
X134309934Y-100122239D01*
X134465902Y-100123430D01*
G37*
G36*
X132436367Y-98853258D02*
G01*
X132635113Y-98857063D01*
X132833419Y-98863698D01*
X133031602Y-98873167D01*
X133229981Y-98885476D01*
X133428872Y-98900629D01*
X133628593Y-98918633D01*
X134878593Y-99030251D01*
X136129797Y-99121560D01*
X137382016Y-99195003D01*
X138635064Y-99253024D01*
X141142900Y-99332576D01*
X143651810Y-99379767D01*
X143889619Y-99383281D01*
X145228868Y-99386942D01*
X146145166Y-99384036D01*
X147061406Y-99370848D01*
X148400481Y-99343665D01*
X148718265Y-99336980D01*
X150326685Y-99295373D01*
X151932876Y-99233422D01*
X153537787Y-99146000D01*
X155142368Y-99027980D01*
X156185386Y-98940442D01*
X156435829Y-98919847D01*
X156667199Y-98901350D01*
X156897918Y-98886059D01*
X157128244Y-98873841D01*
X157358432Y-98864560D01*
X157588740Y-98858082D01*
X157819424Y-98854271D01*
X158282951Y-98854114D01*
X158282951Y-99171614D01*
X157534095Y-99536286D01*
X157192808Y-99683756D01*
X156849858Y-99810106D01*
X156487425Y-99916927D01*
X156087690Y-100005810D01*
X155632835Y-100078347D01*
X155105041Y-100136130D01*
X153759358Y-100213803D01*
X151908092Y-100251561D01*
X146118604Y-100258272D01*
X144431446Y-100257543D01*
X142986522Y-100280911D01*
X141451021Y-100324407D01*
X139859088Y-100357125D01*
X138244866Y-100348163D01*
X137440066Y-100318395D01*
X136642498Y-100266618D01*
X135856429Y-100188969D01*
X135086127Y-100081586D01*
X134335861Y-99940605D01*
X133609898Y-99762163D01*
X132912506Y-99542399D01*
X132247953Y-99277448D01*
X132199655Y-99202692D01*
X132162557Y-99144097D01*
X132147434Y-99119310D01*
X132134180Y-99096704D01*
X132122487Y-99075657D01*
X132112043Y-99055550D01*
X132102540Y-99035762D01*
X132093666Y-99015675D01*
X132085112Y-98994667D01*
X132076568Y-98972118D01*
X132058268Y-98919918D01*
X132036286Y-98854114D01*
X132236864Y-98852276D01*
X132436367Y-98853258D01*
G37*
M02*
