%TF.GenerationSoftware,KiCad,Pcbnew,9.0.0*%
%TF.CreationDate,2025-08-28T16:21:25-07:00*%
%TF.ProjectId,Simple_12V_Panel,53696d70-6c65-45f3-9132-565f50616e65,rev?*%
%TF.SameCoordinates,Original*%
%TF.FileFunction,Soldermask,Bot*%
%TF.FilePolarity,Negative*%
%FSLAX46Y46*%
G04 Gerber Fmt 4.6, Leading zero omitted, Abs format (unit mm)*
G04 Created by KiCad (PCBNEW 9.0.0) date 2025-08-28 16:21:25*
%MOMM*%
%LPD*%
G01*
G04 APERTURE LIST*
G04 Aperture macros list*
%AMRoundRect*
0 Rectangle with rounded corners*
0 $1 Rounding radius*
0 $2 $3 $4 $5 $6 $7 $8 $9 X,Y pos of 4 corners*
0 Add a 4 corners polygon primitive as box body*
4,1,4,$2,$3,$4,$5,$6,$7,$8,$9,$2,$3,0*
0 Add four circle primitives for the rounded corners*
1,1,$1+$1,$2,$3*
1,1,$1+$1,$4,$5*
1,1,$1+$1,$6,$7*
1,1,$1+$1,$8,$9*
0 Add four rect primitives between the rounded corners*
20,1,$1+$1,$2,$3,$4,$5,0*
20,1,$1+$1,$4,$5,$6,$7,0*
20,1,$1+$1,$6,$7,$8,$9,0*
20,1,$1+$1,$8,$9,$2,$3,0*%
G04 Aperture macros list end*
%ADD10C,0.100000*%
%ADD11C,6.400000*%
%ADD12C,2.000000*%
%ADD13RoundRect,0.250001X1.149999X1.149999X-1.149999X1.149999X-1.149999X-1.149999X1.149999X-1.149999X0*%
%ADD14C,2.800000*%
%ADD15R,1.700000X1.700000*%
%ADD16O,1.700000X1.700000*%
%ADD17R,1.000000X1.000000*%
%ADD18O,1.000000X1.000000*%
G04 APERTURE END LIST*
D10*
X180800000Y-76430000D02*
X214040000Y-76430000D01*
X214040000Y-131140000D01*
X180800000Y-131140000D01*
X180800000Y-76430000D01*
G36*
X180800000Y-76430000D02*
G01*
X214040000Y-76430000D01*
X214040000Y-131140000D01*
X180800000Y-131140000D01*
X180800000Y-76430000D01*
G37*
D11*
%TO.C,H4*%
X151000000Y-85000000D03*
%TD*%
%TO.C,H3*%
X114700000Y-85000000D03*
%TD*%
%TO.C,H2*%
X151000000Y-119500000D03*
%TD*%
%TO.C,H1*%
X114700000Y-119500000D03*
%TD*%
D12*
%TO.C,SW1*%
X112250000Y-112250000D03*
X112250000Y-105750000D03*
X116750000Y-112250000D03*
X116750000Y-105750000D03*
%TD*%
D13*
%TO.C,J1*%
X129500000Y-85500000D03*
D14*
X124500000Y-85500000D03*
%TD*%
D12*
%TO.C,SW3*%
X121750000Y-111250000D03*
X128250000Y-111250000D03*
X121750000Y-115750000D03*
X128250000Y-115750000D03*
%TD*%
D15*
%TO.C,J3*%
X143350000Y-121500000D03*
D16*
X140810000Y-121500000D03*
X138270000Y-121500000D03*
X135730000Y-121500000D03*
X133190000Y-121500000D03*
X130650000Y-121500000D03*
%TD*%
D17*
%TO.C,J4*%
X141310000Y-111500000D03*
D18*
X141310000Y-112770000D03*
X140040000Y-111500000D03*
X140040000Y-112770000D03*
X138770000Y-111500000D03*
X138770000Y-112770000D03*
X137500000Y-111500000D03*
X137500000Y-112770000D03*
X136230000Y-111500000D03*
X136230000Y-112770000D03*
%TD*%
M02*
