M48
; DRILL file {KiCad 9.0.0} date 2025-08-28T16:21:21-0700
; FORMAT={-:-/ absolute / metric / decimal}
; #@! TF.CreationDate,2025-08-28T16:21:21-07:00
; #@! TF.GenerationSoftware,Kicad,Pcbnew,9.0.0
; #@! TF.FileFunction,Plated,1,2,PTH
FMAT,2
METRIC
; #@! TA.AperFunction,Plated,PTH,ViaDrill
T1C0.300
; #@! TA.AperFunction,Plated,PTH,ViaDrill
T2C0.500
; #@! TA.AperFunction,Plated,PTH,ComponentDrill
T3C0.650
; #@! TA.AperFunction,Plated,PTH,ComponentDrill
T4C1.000
; #@! TA.AperFunction,Plated,PTH,ComponentDrill
T5C1.100
; #@! TA.AperFunction,Plated,PTH,ComponentDrill
T6C1.300
; #@! TA.AperFunction,Plated,PTH,ComponentDrill
T7C3.200
%
G90
G05
T1
X113.3Y-97.0
X113.9Y-110.7
X119.1Y-99.1
X119.8Y-120.9
X121.0Y-105.1
X122.875Y-105.5
X122.9Y-98.2
X122.9Y-100.2
X123.3Y-114.3
X124.2Y-91.7
X124.95Y-105.5
X125.0Y-109.3
X127.025Y-105.5
X129.1Y-105.5
X130.826Y-103.124
X131.3Y-114.5
X132.1Y-105.7
X132.2Y-114.7
X133.0Y-95.3
X133.476Y-102.424
X133.6Y-105.2
X133.6Y-115.9
X133.8Y-100.9
X134.0Y-116.8
X134.8Y-98.7
X136.0Y-103.1
X136.1Y-101.0
X136.3Y-109.9
X136.5Y-92.7
X136.706Y-105.521
X137.074Y-104.926
X137.3Y-114.1
X138.4Y-107.0
X138.8Y-109.9
X139.1Y-102.9
X139.2Y-101.8
X139.8Y-102.9
X139.8Y-104.3
X140.3Y-107.8
X141.5Y-106.9
X143.0Y-82.4
X143.0Y-102.7
X143.4Y-119.4
X150.6Y-109.5
X150.8Y-101.9
X153.5Y-93.8
X159.2Y-97.4
X159.4Y-104.9
X163.1Y-92.0
X163.5Y-93.0
X165.3Y-105.1
X166.6Y-90.6
X166.6Y-91.4
X167.1Y-99.1
X167.4Y-90.6
X167.4Y-91.4
X167.7Y-94.7
X167.7Y-96.5
X169.0Y-94.4
X170.6Y-91.308
X170.775Y-90.025
X194.5Y-85.9
X194.5Y-86.9
X194.5Y-102.2
X194.5Y-103.2
X194.5Y-118.5
X194.5Y-119.5
X195.5Y-85.9
X195.5Y-86.9
X195.5Y-102.2
X195.5Y-103.2
X195.5Y-118.5
X195.5Y-119.5
X196.5Y-85.9
X196.5Y-86.9
X196.5Y-102.2
X196.5Y-103.2
X196.5Y-118.5
X196.5Y-119.5
X197.5Y-85.9
X197.5Y-86.9
X197.5Y-102.2
X197.5Y-103.2
X197.5Y-118.5
X197.5Y-119.5
T2
X157.975Y-82.587
X157.975Y-84.875
X163.062Y-113.875
X164.825Y-82.325
X164.825Y-84.612
X164.825Y-86.9
X166.05Y-113.875
X169.6Y-107.9
X169.6Y-110.887
X169.6Y-113.875
X172.875Y-107.9
X172.875Y-110.887
X172.875Y-113.875
X184.93Y-86.55
X184.93Y-88.75
X185.26Y-101.38
X185.26Y-103.58
X185.47Y-116.7
X185.47Y-118.9
X187.43Y-86.55
X187.43Y-88.75
X187.76Y-101.38
X187.76Y-103.58
X187.97Y-116.7
X187.97Y-118.9
X189.93Y-86.55
X189.93Y-88.75
X190.26Y-101.38
X190.26Y-103.58
X190.47Y-116.7
X190.47Y-118.9
X196.0Y-86.36
X196.0Y-102.68
X196.0Y-119.0
X202.7Y-84.7
X202.7Y-88.7
X202.7Y-92.7
X202.7Y-96.7
X202.7Y-100.7
X202.7Y-104.7
X202.7Y-108.7
X202.7Y-112.7
X202.7Y-116.7
X202.7Y-120.7
X206.7Y-84.7
X206.7Y-88.7
X206.7Y-92.7
X206.7Y-96.7
X206.7Y-100.7
X206.7Y-104.7
X206.7Y-108.7
X206.7Y-112.7
X206.7Y-116.7
X206.7Y-120.7
T3
X136.23Y-111.5
X136.23Y-112.77
X137.5Y-111.5
X137.5Y-112.77
X138.77Y-111.5
X138.77Y-112.77
X140.04Y-111.5
X140.04Y-112.77
X141.31Y-111.5
X141.31Y-112.77
T4
X130.65Y-121.5
X133.19Y-121.5
X135.73Y-121.5
X138.27Y-121.5
X140.81Y-121.5
X143.35Y-121.5
T5
X112.25Y-105.75
X112.25Y-112.25
X116.75Y-105.75
X116.75Y-112.25
X121.75Y-111.25
X121.75Y-115.75
X128.25Y-111.25
X128.25Y-115.75
T6
X124.5Y-85.5
X129.5Y-85.5
T7
X114.7Y-85.0
X114.7Y-119.5
X151.0Y-85.0
X151.0Y-119.5
M30
