%TF.GenerationSoftware,KiCad,Pcbnew,9.0.0*%
%TF.CreationDate,2025-08-28T16:21:24-07:00*%
%TF.ProjectId,Simple_12V_Panel,53696d70-6c65-45f3-9132-565f50616e65,rev?*%
%TF.SameCoordinates,Original*%
%TF.FileFunction,Copper,L2,Bot*%
%TF.FilePolarity,Positive*%
%FSLAX46Y46*%
G04 Gerber Fmt 4.6, Leading zero omitted, Abs format (unit mm)*
G04 Created by KiCad (PCBNEW 9.0.0) date 2025-08-28 16:21:24*
%MOMM*%
%LPD*%
G01*
G04 APERTURE LIST*
G04 Aperture macros list*
%AMRoundRect*
0 Rectangle with rounded corners*
0 $1 Rounding radius*
0 $2 $3 $4 $5 $6 $7 $8 $9 X,Y pos of 4 corners*
0 Add a 4 corners polygon primitive as box body*
4,1,4,$2,$3,$4,$5,$6,$7,$8,$9,$2,$3,0*
0 Add four circle primitives for the rounded corners*
1,1,$1+$1,$2,$3*
1,1,$1+$1,$4,$5*
1,1,$1+$1,$6,$7*
1,1,$1+$1,$8,$9*
0 Add four rect primitives between the rounded corners*
20,1,$1+$1,$2,$3,$4,$5,0*
20,1,$1+$1,$4,$5,$6,$7,0*
20,1,$1+$1,$6,$7,$8,$9,0*
20,1,$1+$1,$8,$9,$2,$3,0*%
G04 Aperture macros list end*
%TA.AperFunction,ComponentPad*%
%ADD10C,6.400000*%
%TD*%
%TA.AperFunction,ComponentPad*%
%ADD11C,2.000000*%
%TD*%
%TA.AperFunction,ComponentPad*%
%ADD12RoundRect,0.250001X1.149999X1.149999X-1.149999X1.149999X-1.149999X-1.149999X1.149999X-1.149999X0*%
%TD*%
%TA.AperFunction,ComponentPad*%
%ADD13C,2.800000*%
%TD*%
%TA.AperFunction,ComponentPad*%
%ADD14R,1.700000X1.700000*%
%TD*%
%TA.AperFunction,ComponentPad*%
%ADD15O,1.700000X1.700000*%
%TD*%
%TA.AperFunction,ComponentPad*%
%ADD16R,1.000000X1.000000*%
%TD*%
%TA.AperFunction,ComponentPad*%
%ADD17O,1.000000X1.000000*%
%TD*%
%TA.AperFunction,ViaPad*%
%ADD18C,0.500000*%
%TD*%
%TA.AperFunction,ViaPad*%
%ADD19C,1.500000*%
%TD*%
%TA.AperFunction,Conductor*%
%ADD20C,0.300000*%
%TD*%
G04 APERTURE END LIST*
D10*
%TO.P,H4,1,1*%
%TO.N,GND*%
X151000000Y-85000000D03*
%TD*%
%TO.P,H3,1,1*%
%TO.N,GND*%
X114700000Y-85000000D03*
%TD*%
%TO.P,H2,1,1*%
%TO.N,GND*%
X151000000Y-119500000D03*
%TD*%
%TO.P,H1,1,1*%
%TO.N,GND*%
X114700000Y-119500000D03*
%TD*%
D11*
%TO.P,SW1,1,1*%
%TO.N,GND*%
X112250000Y-112250000D03*
X112250000Y-105750000D03*
%TO.P,SW1,2,2*%
%TO.N,/MCU/NRST*%
X116750000Y-112250000D03*
X116750000Y-105750000D03*
%TD*%
D12*
%TO.P,J1,1,Pin_1*%
%TO.N,VCC*%
X129500000Y-85500000D03*
D13*
%TO.P,J1,2,Pin_2*%
%TO.N,GND*%
X124500000Y-85500000D03*
%TD*%
D11*
%TO.P,SW3,1,1*%
%TO.N,Net-(U5-PA6)*%
X121750000Y-111250000D03*
X128250000Y-111250000D03*
%TO.P,SW3,2,2*%
%TO.N,GND*%
X121750000Y-115750000D03*
X128250000Y-115750000D03*
%TD*%
D14*
%TO.P,J3,1,Pin_1*%
%TO.N,GND*%
X143350000Y-121500000D03*
D15*
%TO.P,J3,2,Pin_2*%
%TO.N,unconnected-(J3-Pin_2-Pad2)*%
X140810000Y-121500000D03*
%TO.P,J3,3,Pin_3*%
%TO.N,unconnected-(J3-Pin_3-Pad3)*%
X138270000Y-121500000D03*
%TO.P,J3,4,Pin_4*%
%TO.N,/MCU/UART_RX*%
X135730000Y-121500000D03*
%TO.P,J3,5,Pin_5*%
%TO.N,/MCU/UART_TX*%
X133190000Y-121500000D03*
%TO.P,J3,6,Pin_6*%
%TO.N,unconnected-(J3-Pin_6-Pad6)*%
X130650000Y-121500000D03*
%TD*%
D16*
%TO.P,J4,1,VTref*%
%TO.N,+3V3*%
X141310000Y-111500000D03*
D17*
%TO.P,J4,2,SWDIO/TMS*%
%TO.N,/MCU/SWDIO*%
X141310000Y-112770000D03*
%TO.P,J4,3,GND*%
%TO.N,GND*%
X140040000Y-111500000D03*
%TO.P,J4,4,SWCLK/TCK*%
%TO.N,/MCU/SWCLK*%
X140040000Y-112770000D03*
%TO.P,J4,5,GND*%
%TO.N,GND*%
X138770000Y-111500000D03*
%TO.P,J4,6,SWO/TDO*%
%TO.N,unconnected-(J4-SWO{slash}TDO-Pad6)*%
X138770000Y-112770000D03*
%TO.P,J4,7,KEY*%
%TO.N,unconnected-(J4-KEY-Pad7)*%
X137500000Y-111500000D03*
%TO.P,J4,8,NC/TDI*%
%TO.N,unconnected-(J4-NC{slash}TDI-Pad8)*%
X137500000Y-112770000D03*
%TO.P,J4,9,GNDDetect*%
%TO.N,GND*%
X136230000Y-111500000D03*
%TO.P,J4,10,~{RESET}*%
%TO.N,/MCU/NRST*%
X136230000Y-112770000D03*
%TD*%
D18*
%TO.N,VSET*%
X170774979Y-90025021D03*
X167100000Y-99100000D03*
%TO.N,GND*%
X169000000Y-94400000D03*
X167700000Y-94700000D03*
X167700000Y-96500000D03*
%TO.N,VSET*%
X143000000Y-102700000D03*
X136100000Y-101000000D03*
X139200000Y-101800000D03*
%TO.N,VLED*%
X163500000Y-93000000D03*
%TO.N,GND*%
X119100000Y-99100000D03*
%TO.N,/LED/Thermal_Pad*%
X197500000Y-119500000D03*
X195500000Y-119500000D03*
X196500000Y-118500000D03*
X197500000Y-118500000D03*
X194500000Y-119500000D03*
X195500000Y-118500000D03*
X194500000Y-118500000D03*
X196500000Y-119500000D03*
X197500000Y-103200000D03*
X195500000Y-103200000D03*
X196500000Y-102200000D03*
X197500000Y-102200000D03*
X194500000Y-103200000D03*
X195500000Y-102200000D03*
X194500000Y-102200000D03*
X196500000Y-103200000D03*
X197500000Y-86900000D03*
X195500000Y-86900000D03*
X196500000Y-85900000D03*
X197500000Y-85900000D03*
X194500000Y-86900000D03*
X195500000Y-85900000D03*
X194500000Y-85900000D03*
X196500000Y-86900000D03*
%TO.N,GND*%
X166600000Y-91400000D03*
X167400000Y-90600000D03*
X166600000Y-90600000D03*
X167400000Y-91400000D03*
X137300000Y-114100000D03*
X150600000Y-109500000D03*
X119800000Y-120900000D03*
X125000000Y-109300000D03*
X122900000Y-98200000D03*
X122900000Y-100200000D03*
X134800000Y-98700000D03*
X136500000Y-92700000D03*
X133000000Y-95300000D03*
X143000000Y-82400000D03*
%TO.N,/MCU/NRST*%
X131300000Y-114500000D03*
%TO.N,Net-(U5-PA6)*%
X132100000Y-105700000D03*
X139099997Y-102900000D03*
%TO.N,/MCU/UART_RX*%
X134000000Y-116800000D03*
X132200000Y-114700000D03*
%TO.N,/MCU/UART_TX*%
X133600000Y-115900000D03*
X133475735Y-102424265D03*
%TO.N,GND*%
X165300000Y-105100000D03*
X159400000Y-104900000D03*
%TO.N,/MCU/SWDIO*%
X140300000Y-107800000D03*
X137074265Y-104925735D03*
%TO.N,GND*%
X130826000Y-103124000D03*
%TO.N,/MCU/NRST*%
X133600000Y-105200000D03*
%TO.N,+3V3*%
X138400000Y-107000000D03*
X136706046Y-105521065D03*
X136000000Y-103100000D03*
X133800000Y-100900000D03*
%TO.N,/MCU/SWCLK*%
X139800000Y-104300000D03*
X139800000Y-102900000D03*
%TO.N,MOSFET*%
X150800000Y-101900000D03*
X153500000Y-93800000D03*
X159200000Y-97400000D03*
%TO.N,GND*%
X170600000Y-91308079D03*
X113300000Y-97000000D03*
X123300000Y-114300000D03*
X113900000Y-110700000D03*
X143400000Y-119400000D03*
X124200000Y-91700000D03*
X141500000Y-106900000D03*
X138800000Y-109900000D03*
X136300000Y-109900000D03*
X121000000Y-105100000D03*
X122875000Y-105500000D03*
X129100000Y-105500000D03*
X127025000Y-105500000D03*
X124950000Y-105500000D03*
D19*
%TO.N,/LED/Thermal_Pad*%
X196000000Y-119000000D03*
X196000000Y-102680000D03*
X196000000Y-86360000D03*
X190470000Y-116700000D03*
X185470000Y-118900000D03*
X185470000Y-116700000D03*
X187970000Y-118900000D03*
X187970000Y-116700000D03*
X190470000Y-118900000D03*
X190260000Y-101380000D03*
X185260000Y-103580000D03*
X185260000Y-101380000D03*
X187760000Y-103580000D03*
X187760000Y-101380000D03*
X190260000Y-103580000D03*
X187430000Y-88750000D03*
X184930000Y-88750000D03*
X189930000Y-86550000D03*
X187430000Y-86550000D03*
X184930000Y-86550000D03*
X189930000Y-88750000D03*
X202700000Y-120700000D03*
X206700000Y-116700000D03*
X202700000Y-116700000D03*
X206700000Y-112700000D03*
X202700000Y-112700000D03*
X206700000Y-108700000D03*
X202700000Y-108700000D03*
X206700000Y-104700000D03*
X202700000Y-104700000D03*
X206700000Y-100700000D03*
X202700000Y-100700000D03*
X206700000Y-96700000D03*
X202700000Y-96700000D03*
X206700000Y-92700000D03*
X202700000Y-92700000D03*
X206700000Y-88700000D03*
X202700000Y-88700000D03*
X206700000Y-84700000D03*
X202700000Y-84700000D03*
X206700000Y-120700000D03*
%TO.N,/LED/LX_1*%
X163062500Y-113875000D03*
X166050000Y-113875000D03*
X169600000Y-107900000D03*
X169600000Y-113875000D03*
X169600000Y-110887500D03*
X172875000Y-113875000D03*
X172875000Y-110887500D03*
X172875000Y-107900000D03*
X157975000Y-82587500D03*
X157975000Y-84875000D03*
X164825000Y-86900000D03*
X164825000Y-84612500D03*
X164825000Y-82325000D03*
D18*
%TO.N,VLED*%
X163100000Y-92000000D03*
%TD*%
D20*
%TO.N,VSET*%
X171400000Y-90700000D02*
X170774979Y-90074979D01*
X171400000Y-94800000D02*
X171400000Y-90700000D01*
X170774979Y-90074979D02*
X170774979Y-90025021D01*
X167100000Y-99100000D02*
X171400000Y-94800000D01*
X142100000Y-101800000D02*
X143000000Y-102700000D01*
X139200000Y-101800000D02*
X142100000Y-101800000D01*
X138400000Y-101000000D02*
X139200000Y-101800000D01*
X136100000Y-101000000D02*
X138400000Y-101000000D01*
%TO.N,Net-(U5-PA6)*%
X132100000Y-102900000D02*
X132100000Y-105700000D01*
X133176735Y-101823265D02*
X132100000Y-102900000D01*
X133873321Y-101823265D02*
X133176735Y-101823265D01*
X135751056Y-103701000D02*
X133873321Y-101823265D01*
X137499000Y-103701000D02*
X135751056Y-103701000D01*
X138300000Y-102900000D02*
X137499000Y-103701000D01*
X139099997Y-102900000D02*
X138300000Y-102900000D01*
%TO.N,/MCU/NRST*%
X131300000Y-115158463D02*
X131300000Y-114500000D01*
X134248943Y-117401000D02*
X133542537Y-117401000D01*
X133542537Y-117401000D02*
X131300000Y-115158463D01*
X136230000Y-115419943D02*
X134248943Y-117401000D01*
X136230000Y-112770000D02*
X136230000Y-115419943D01*
%TO.N,/MCU/UART_RX*%
X133650057Y-116800000D02*
X134000000Y-116800000D01*
X132200000Y-115349943D02*
X133650057Y-116800000D01*
X132200000Y-114700000D02*
X132200000Y-115349943D01*
%TO.N,/MCU/UART_TX*%
X132999000Y-115299000D02*
X133600000Y-115900000D01*
X133475735Y-102424265D02*
X132999000Y-102901000D01*
X132999000Y-102901000D02*
X132999000Y-115299000D01*
%TO.N,+3V3*%
X137300000Y-105900000D02*
X138400000Y-107000000D01*
X136706046Y-105521065D02*
X137084981Y-105900000D01*
X137084981Y-105900000D02*
X137300000Y-105900000D01*
%TO.N,/MCU/SWDIO*%
X137425735Y-104925735D02*
X140300000Y-107800000D01*
X137074265Y-104925735D02*
X137425735Y-104925735D01*
%TO.N,/MCU/NRST*%
X133600000Y-110140000D02*
X136230000Y-112770000D01*
X133600000Y-105200000D02*
X133600000Y-110140000D01*
%TO.N,+3V3*%
X133800000Y-100900000D02*
X136000000Y-103100000D01*
%TO.N,/MCU/SWCLK*%
X139800000Y-102900000D02*
X139800000Y-104300000D01*
%TO.N,MOSFET*%
X153500000Y-97900000D02*
X153500000Y-93800000D01*
X150800000Y-101900000D02*
X150800000Y-100600000D01*
X150800000Y-100600000D02*
X153500000Y-97900000D01*
X157100000Y-97400000D02*
X153500000Y-93800000D01*
X159200000Y-97400000D02*
X157100000Y-97400000D01*
%TD*%
%TA.AperFunction,Conductor*%
%TO.N,/LED/Thermal_Pad*%
G36*
X206331754Y-80823365D02*
G01*
X206621808Y-80840912D01*
X206636672Y-80842717D01*
X206714197Y-80856924D01*
X206918815Y-80894424D01*
X206933329Y-80898001D01*
X207207187Y-80983341D01*
X207221180Y-80988649D01*
X207482737Y-81106369D01*
X207495996Y-81113328D01*
X207741455Y-81261716D01*
X207753778Y-81270222D01*
X207979565Y-81447118D01*
X207990773Y-81457048D01*
X208193583Y-81659862D01*
X208203513Y-81671070D01*
X208380408Y-81896866D01*
X208388913Y-81909189D01*
X208537294Y-82154645D01*
X208544253Y-82167904D01*
X208661967Y-82429463D01*
X208667277Y-82443464D01*
X208752607Y-82717310D01*
X208756190Y-82731849D01*
X208807888Y-83013974D01*
X208809693Y-83028839D01*
X208827295Y-83319901D01*
X208827521Y-83327384D01*
X208827521Y-83359123D01*
X208827521Y-83388525D01*
X208827521Y-83388527D01*
X208827522Y-83398519D01*
X208827522Y-121818878D01*
X208827296Y-121826367D01*
X208809746Y-122116425D01*
X208807941Y-122131288D01*
X208756236Y-122413422D01*
X208752652Y-122427962D01*
X208667316Y-122701803D01*
X208662006Y-122715803D01*
X208544287Y-122977361D01*
X208537328Y-122990620D01*
X208388939Y-123236081D01*
X208380433Y-123248404D01*
X208203536Y-123474193D01*
X208193607Y-123485400D01*
X207990792Y-123688215D01*
X207979584Y-123698145D01*
X207753793Y-123875041D01*
X207741470Y-123883547D01*
X207496007Y-124031935D01*
X207482748Y-124038894D01*
X207221184Y-124156614D01*
X207207184Y-124161923D01*
X206933349Y-124247255D01*
X206918810Y-124250839D01*
X206636676Y-124302543D01*
X206621812Y-124304348D01*
X206384209Y-124318722D01*
X206331469Y-124321913D01*
X206323988Y-124322139D01*
X179567131Y-124322139D01*
X179500092Y-124302454D01*
X179454337Y-124249650D01*
X179443131Y-124197814D01*
X179448582Y-122116425D01*
X179459029Y-118127666D01*
X179478888Y-118060685D01*
X179502487Y-118033715D01*
X179509071Y-118028091D01*
X179604046Y-117920013D01*
X179664726Y-117789554D01*
X179684877Y-117722653D01*
X179684877Y-117722652D01*
X179706345Y-117580382D01*
X179961376Y-80951521D01*
X179961375Y-80951516D01*
X179961399Y-80948146D01*
X179962630Y-80948154D01*
X179977922Y-80885134D01*
X180028492Y-80836921D01*
X180085307Y-80823139D01*
X206262126Y-80823139D01*
X206324266Y-80823139D01*
X206331754Y-80823365D01*
G37*
%TD.AperFunction*%
%TD*%
%TA.AperFunction,Conductor*%
%TO.N,/LED/LX_1*%
G36*
X179398930Y-80842824D02*
G01*
X179444685Y-80895628D01*
X179455888Y-80948002D01*
X179200857Y-117576863D01*
X179180706Y-117643764D01*
X179127585Y-117689150D01*
X179076860Y-117700000D01*
X160125087Y-117700000D01*
X160058048Y-117680315D01*
X160012293Y-117627511D01*
X160001092Y-117574917D01*
X160098926Y-106372917D01*
X160119195Y-106306052D01*
X160172397Y-106260760D01*
X160222921Y-106250000D01*
X165400000Y-106250000D01*
X165399418Y-105947429D01*
X165418974Y-105880352D01*
X165471690Y-105834496D01*
X165499222Y-105825574D01*
X165518913Y-105821658D01*
X165655495Y-105765084D01*
X165778416Y-105682951D01*
X165882951Y-105578416D01*
X165965084Y-105455495D01*
X166021658Y-105318913D01*
X166050500Y-105173918D01*
X166050500Y-105026082D01*
X166050500Y-105026079D01*
X166021659Y-104881092D01*
X166021658Y-104881091D01*
X166021658Y-104881087D01*
X165998874Y-104826082D01*
X165965087Y-104744511D01*
X165965080Y-104744498D01*
X165882951Y-104621584D01*
X165882948Y-104621580D01*
X165778419Y-104517051D01*
X165778415Y-104517048D01*
X165655501Y-104434919D01*
X165655488Y-104434912D01*
X165518915Y-104378342D01*
X165518912Y-104378341D01*
X165495962Y-104373776D01*
X165434052Y-104341389D01*
X165399480Y-104280672D01*
X165396158Y-104252410D01*
X165385066Y-98484516D01*
X165404622Y-98417442D01*
X165457338Y-98371586D01*
X165510473Y-98360289D01*
X166469490Y-98371203D01*
X166536297Y-98391648D01*
X166581448Y-98444969D01*
X166590604Y-98514236D01*
X166560858Y-98577458D01*
X166555757Y-98582874D01*
X166517052Y-98621579D01*
X166517048Y-98621584D01*
X166434919Y-98744498D01*
X166434912Y-98744511D01*
X166378343Y-98881082D01*
X166378340Y-98881092D01*
X166349500Y-99026079D01*
X166349500Y-99026082D01*
X166349500Y-99173918D01*
X166349500Y-99173920D01*
X166349499Y-99173920D01*
X166378340Y-99318907D01*
X166378343Y-99318917D01*
X166434912Y-99455488D01*
X166434919Y-99455501D01*
X166517048Y-99578415D01*
X166517051Y-99578419D01*
X166621580Y-99682948D01*
X166621584Y-99682951D01*
X166744498Y-99765080D01*
X166744511Y-99765087D01*
X166881082Y-99821656D01*
X166881087Y-99821658D01*
X166881091Y-99821658D01*
X166881092Y-99821659D01*
X167026079Y-99850500D01*
X167026082Y-99850500D01*
X167173920Y-99850500D01*
X167271462Y-99831096D01*
X167318913Y-99821658D01*
X167455495Y-99765084D01*
X167578416Y-99682951D01*
X167682951Y-99578416D01*
X167765084Y-99455495D01*
X167821658Y-99318913D01*
X167821658Y-99318912D01*
X167823989Y-99313285D01*
X167824852Y-99313642D01*
X167852600Y-99267344D01*
X168686194Y-98433750D01*
X168747513Y-98400268D01*
X168775275Y-98397442D01*
X169000000Y-98400000D01*
X172306872Y-94792504D01*
X172244090Y-88922410D01*
X162801922Y-88900297D01*
X162734928Y-88880455D01*
X162689297Y-88827544D01*
X162678253Y-88773119D01*
X162725000Y-86949999D01*
X156498769Y-87023538D01*
X156431502Y-87004647D01*
X156385127Y-86952387D01*
X156373316Y-86901234D01*
X156292331Y-80948826D01*
X156311102Y-80881525D01*
X156363279Y-80835056D01*
X156416320Y-80823139D01*
X179331891Y-80823139D01*
X179398930Y-80842824D01*
G37*
%TD.AperFunction*%
%TD*%
%TA.AperFunction,Conductor*%
%TO.N,GND*%
G36*
X155730205Y-80842824D02*
G01*
X155775960Y-80895628D01*
X155786392Y-80951280D01*
X155786818Y-80951275D01*
X155786851Y-80953728D01*
X155786959Y-80954303D01*
X155786878Y-80955699D01*
X155786878Y-80955702D01*
X155786878Y-80955703D01*
X155791041Y-81261690D01*
X155867862Y-86908104D01*
X155867864Y-86908122D01*
X155880771Y-87014941D01*
X155880775Y-87014963D01*
X155892584Y-87066107D01*
X155892588Y-87066121D01*
X155910791Y-87118651D01*
X155927819Y-87167793D01*
X155953501Y-87206736D01*
X156007027Y-87287902D01*
X156007032Y-87287908D01*
X156050016Y-87336347D01*
X156051390Y-87338030D01*
X156053411Y-87340173D01*
X156163249Y-87433098D01*
X156163250Y-87433098D01*
X156163252Y-87433100D01*
X156294827Y-87491320D01*
X156294833Y-87491321D01*
X156294834Y-87491322D01*
X156362086Y-87510209D01*
X156362087Y-87510209D01*
X156362094Y-87510211D01*
X156504739Y-87529003D01*
X156504746Y-87529002D01*
X156504747Y-87529003D01*
X157566229Y-87516465D01*
X162077491Y-87463181D01*
X162144758Y-87482072D01*
X162191133Y-87534332D01*
X162202914Y-87590350D01*
X162172918Y-88760156D01*
X162172919Y-88760160D01*
X162182849Y-88873649D01*
X162193892Y-88928065D01*
X162193893Y-88928069D01*
X162193894Y-88928072D01*
X162228987Y-89036458D01*
X162228988Y-89036459D01*
X162306487Y-89157675D01*
X162352120Y-89210589D01*
X162460635Y-89305066D01*
X162460636Y-89305066D01*
X162460637Y-89305067D01*
X162591375Y-89365143D01*
X162657380Y-89384692D01*
X162658316Y-89384978D01*
X162658371Y-89384986D01*
X162800738Y-89405796D01*
X170043083Y-89422756D01*
X170110077Y-89442598D01*
X170155708Y-89495509D01*
X170165489Y-89564690D01*
X170145895Y-89615647D01*
X170109898Y-89669519D01*
X170109891Y-89669532D01*
X170053322Y-89806103D01*
X170053319Y-89806113D01*
X170024479Y-89951100D01*
X170024479Y-89951103D01*
X170024479Y-90098939D01*
X170024479Y-90098941D01*
X170024478Y-90098941D01*
X170053319Y-90243928D01*
X170053322Y-90243938D01*
X170109891Y-90380509D01*
X170109898Y-90380522D01*
X170192027Y-90503436D01*
X170192030Y-90503440D01*
X170296559Y-90607969D01*
X170296567Y-90607975D01*
X170419473Y-90690098D01*
X170419476Y-90690099D01*
X170419484Y-90690105D01*
X170483208Y-90716499D01*
X170523433Y-90743378D01*
X170713181Y-90933126D01*
X170746666Y-90994449D01*
X170749500Y-91020807D01*
X170749500Y-94479191D01*
X170729815Y-94546230D01*
X170713181Y-94566872D01*
X167151671Y-98128381D01*
X167090348Y-98161866D01*
X167020656Y-98156882D01*
X166969358Y-98120830D01*
X166967224Y-98118309D01*
X166967221Y-98118305D01*
X166922070Y-98064984D01*
X166814413Y-97969532D01*
X166802806Y-97964071D01*
X166684226Y-97908278D01*
X166684224Y-97908277D01*
X166674421Y-97905277D01*
X166627686Y-97890974D01*
X166621443Y-97888456D01*
X166475245Y-97865736D01*
X166475232Y-97865735D01*
X165516224Y-97854821D01*
X165516220Y-97854822D01*
X165405357Y-97865839D01*
X165405351Y-97865840D01*
X165352211Y-97877138D01*
X165246465Y-97912170D01*
X165208449Y-97936704D01*
X165125574Y-97990190D01*
X165125570Y-97990192D01*
X165125569Y-97990194D01*
X165072854Y-98036049D01*
X164978849Y-98144958D01*
X164978848Y-98144959D01*
X164919328Y-98275948D01*
X164909502Y-98309650D01*
X164900429Y-98340770D01*
X164899913Y-98342420D01*
X164899768Y-98343035D01*
X164879567Y-98485488D01*
X164879567Y-98485489D01*
X164890659Y-104253392D01*
X164894113Y-104311419D01*
X164894114Y-104311422D01*
X164897432Y-104339661D01*
X164897438Y-104339700D01*
X164907525Y-104396905D01*
X164907527Y-104396913D01*
X164960197Y-104530793D01*
X164960201Y-104530802D01*
X164993111Y-104588599D01*
X164994095Y-104590442D01*
X164994768Y-104591510D01*
X164994770Y-104591513D01*
X164994771Y-104591514D01*
X164994772Y-104591516D01*
X165083035Y-104705144D01*
X165105826Y-104721580D01*
X165199730Y-104789299D01*
X165199733Y-104789300D01*
X165199735Y-104789302D01*
X165261645Y-104821689D01*
X165261660Y-104821697D01*
X165304766Y-104836903D01*
X165305986Y-104837363D01*
X165306108Y-104837455D01*
X165309695Y-104838830D01*
X165325467Y-104845362D01*
X165325467Y-104845363D01*
X165404768Y-104878210D01*
X165426206Y-104889669D01*
X165446022Y-104902910D01*
X165464809Y-104918327D01*
X165481665Y-104935182D01*
X165497087Y-104953974D01*
X165510328Y-104973790D01*
X165521790Y-104995233D01*
X165530913Y-105017260D01*
X165537966Y-105040512D01*
X165542616Y-105063883D01*
X165545000Y-105088080D01*
X165545000Y-105111913D01*
X165542616Y-105136109D01*
X165537964Y-105159491D01*
X165530910Y-105182745D01*
X165521790Y-105204764D01*
X165510329Y-105226207D01*
X165497083Y-105246030D01*
X165481663Y-105264818D01*
X165464818Y-105281663D01*
X165446027Y-105297085D01*
X165426204Y-105310330D01*
X165404767Y-105321788D01*
X165367695Y-105337144D01*
X165351513Y-105342575D01*
X165343404Y-105344688D01*
X165343389Y-105344692D01*
X165315859Y-105353613D01*
X165315856Y-105353615D01*
X165260812Y-105375082D01*
X165139925Y-105453100D01*
X165107753Y-105481086D01*
X165087210Y-105498956D01*
X164993197Y-105607874D01*
X164993196Y-105607874D01*
X164993196Y-105607875D01*
X164964153Y-105671796D01*
X164918499Y-105724687D01*
X164851497Y-105744500D01*
X160222911Y-105744500D01*
X160117627Y-105755588D01*
X160117608Y-105755591D01*
X160067104Y-105766346D01*
X159966433Y-105799122D01*
X159844707Y-105875856D01*
X159793853Y-105919150D01*
X159791814Y-105920800D01*
X159696343Y-106029055D01*
X159635432Y-106159410D01*
X159615162Y-106226280D01*
X159593444Y-106368501D01*
X159593444Y-106368504D01*
X159495610Y-117570496D01*
X159506681Y-117680219D01*
X159517881Y-117732808D01*
X159517882Y-117732811D01*
X159552474Y-117837505D01*
X159630257Y-117958537D01*
X159630266Y-117958548D01*
X159676010Y-118011340D01*
X159676013Y-118011343D01*
X159676017Y-118011347D01*
X159784751Y-118105567D01*
X159784754Y-118105568D01*
X159784755Y-118105569D01*
X159841659Y-118131557D01*
X159915628Y-118165338D01*
X159982667Y-118185023D01*
X159982671Y-118185024D01*
X160125087Y-118205500D01*
X178828998Y-118205500D01*
X178896037Y-118225185D01*
X178941792Y-118277989D01*
X178952998Y-118329825D01*
X178949227Y-119769727D01*
X178937633Y-124196490D01*
X178937634Y-124196500D01*
X178937629Y-124198464D01*
X178917769Y-124265451D01*
X178864845Y-124311068D01*
X178813629Y-124322139D01*
X113141518Y-124322139D01*
X113133913Y-124322138D01*
X113133910Y-124322138D01*
X113103721Y-124322138D01*
X113071764Y-124322138D01*
X113071763Y-124322137D01*
X113064280Y-124321912D01*
X112774218Y-124304369D01*
X112759354Y-124302564D01*
X112477220Y-124250864D01*
X112462686Y-124247282D01*
X112299683Y-124196490D01*
X112188829Y-124161947D01*
X112174829Y-124156637D01*
X111913264Y-124038919D01*
X111900011Y-124031964D01*
X111654526Y-123883566D01*
X111642214Y-123875067D01*
X111416423Y-123698174D01*
X111405215Y-123688245D01*
X111202390Y-123485425D01*
X111192460Y-123474217D01*
X111015560Y-123248425D01*
X111007054Y-123236102D01*
X110858661Y-122990637D01*
X110851702Y-122977378D01*
X110733980Y-122715817D01*
X110728670Y-122701817D01*
X110720069Y-122674217D01*
X110643331Y-122427968D01*
X110639748Y-122413432D01*
X110636888Y-122397827D01*
X110588038Y-122131278D01*
X110586236Y-122116442D01*
X110568748Y-121827375D01*
X110568522Y-121819887D01*
X110568522Y-119318234D01*
X111000000Y-119318234D01*
X111000000Y-119681765D01*
X111035632Y-120043556D01*
X111106550Y-120400090D01*
X111106553Y-120400101D01*
X111212086Y-120747997D01*
X111351207Y-121083864D01*
X111351209Y-121083869D01*
X111522570Y-121404462D01*
X111522581Y-121404480D01*
X111724551Y-121706750D01*
X111911678Y-121934765D01*
X111911679Y-121934766D01*
X113405747Y-120440697D01*
X113479588Y-120542330D01*
X113657670Y-120720412D01*
X113759301Y-120794251D01*
X112265232Y-122288319D01*
X112265233Y-122288320D01*
X112493249Y-122475448D01*
X112795519Y-122677418D01*
X112795537Y-122677429D01*
X113116130Y-122848790D01*
X113116135Y-122848792D01*
X113452002Y-122987913D01*
X113799898Y-123093446D01*
X113799909Y-123093449D01*
X114156443Y-123164367D01*
X114518234Y-123200000D01*
X114881766Y-123200000D01*
X115243556Y-123164367D01*
X115600090Y-123093449D01*
X115600101Y-123093446D01*
X115947997Y-122987913D01*
X116283864Y-122848792D01*
X116283869Y-122848790D01*
X116604462Y-122677429D01*
X116604480Y-122677418D01*
X116906736Y-122475457D01*
X116906750Y-122475447D01*
X117134765Y-122288320D01*
X117134766Y-122288319D01*
X115640698Y-120794251D01*
X115742330Y-120720412D01*
X115920412Y-120542330D01*
X115994251Y-120440698D01*
X117488319Y-121934766D01*
X117488320Y-121934765D01*
X117675447Y-121706750D01*
X117675457Y-121706736D01*
X117877418Y-121404480D01*
X117877429Y-121404462D01*
X117883175Y-121393713D01*
X129299500Y-121393713D01*
X129299500Y-121606286D01*
X129323331Y-121756753D01*
X129332754Y-121816243D01*
X129390710Y-121994613D01*
X129398444Y-122018414D01*
X129494951Y-122207820D01*
X129619890Y-122379786D01*
X129770213Y-122530109D01*
X129942179Y-122655048D01*
X129942181Y-122655049D01*
X129942184Y-122655051D01*
X130131588Y-122751557D01*
X130333757Y-122817246D01*
X130543713Y-122850500D01*
X130543714Y-122850500D01*
X130756286Y-122850500D01*
X130756287Y-122850500D01*
X130966243Y-122817246D01*
X131168412Y-122751557D01*
X131357816Y-122655051D01*
X131444478Y-122592088D01*
X131529786Y-122530109D01*
X131529788Y-122530106D01*
X131529792Y-122530104D01*
X131680104Y-122379792D01*
X131680106Y-122379788D01*
X131680109Y-122379786D01*
X131805048Y-122207820D01*
X131805047Y-122207820D01*
X131805051Y-122207816D01*
X131809514Y-122199054D01*
X131857488Y-122148259D01*
X131925308Y-122131463D01*
X131991444Y-122153999D01*
X132030486Y-122199056D01*
X132034951Y-122207820D01*
X132159890Y-122379786D01*
X132310213Y-122530109D01*
X132482179Y-122655048D01*
X132482181Y-122655049D01*
X132482184Y-122655051D01*
X132671588Y-122751557D01*
X132873757Y-122817246D01*
X133083713Y-122850500D01*
X133083714Y-122850500D01*
X133296286Y-122850500D01*
X133296287Y-122850500D01*
X133506243Y-122817246D01*
X133708412Y-122751557D01*
X133897816Y-122655051D01*
X133984478Y-122592088D01*
X134069786Y-122530109D01*
X134069788Y-122530106D01*
X134069792Y-122530104D01*
X134220104Y-122379792D01*
X134220106Y-122379788D01*
X134220109Y-122379786D01*
X134345048Y-122207820D01*
X134345047Y-122207820D01*
X134345051Y-122207816D01*
X134349514Y-122199054D01*
X134397488Y-122148259D01*
X134465308Y-122131463D01*
X134531444Y-122153999D01*
X134570486Y-122199056D01*
X134574951Y-122207820D01*
X134699890Y-122379786D01*
X134850213Y-122530109D01*
X135022179Y-122655048D01*
X135022181Y-122655049D01*
X135022184Y-122655051D01*
X135211588Y-122751557D01*
X135413757Y-122817246D01*
X135623713Y-122850500D01*
X135623714Y-122850500D01*
X135836286Y-122850500D01*
X135836287Y-122850500D01*
X136046243Y-122817246D01*
X136248412Y-122751557D01*
X136437816Y-122655051D01*
X136524478Y-122592088D01*
X136609786Y-122530109D01*
X136609788Y-122530106D01*
X136609792Y-122530104D01*
X136760104Y-122379792D01*
X136760106Y-122379788D01*
X136760109Y-122379786D01*
X136885048Y-122207820D01*
X136885047Y-122207820D01*
X136885051Y-122207816D01*
X136889514Y-122199054D01*
X136937488Y-122148259D01*
X137005308Y-122131463D01*
X137071444Y-122153999D01*
X137110486Y-122199056D01*
X137114951Y-122207820D01*
X137239890Y-122379786D01*
X137390213Y-122530109D01*
X137562179Y-122655048D01*
X137562181Y-122655049D01*
X137562184Y-122655051D01*
X137751588Y-122751557D01*
X137953757Y-122817246D01*
X138163713Y-122850500D01*
X138163714Y-122850500D01*
X138376286Y-122850500D01*
X138376287Y-122850500D01*
X138586243Y-122817246D01*
X138788412Y-122751557D01*
X138977816Y-122655051D01*
X139064478Y-122592088D01*
X139149786Y-122530109D01*
X139149788Y-122530106D01*
X139149792Y-122530104D01*
X139300104Y-122379792D01*
X139300106Y-122379788D01*
X139300109Y-122379786D01*
X139425048Y-122207820D01*
X139425047Y-122207820D01*
X139425051Y-122207816D01*
X139429514Y-122199054D01*
X139477488Y-122148259D01*
X139545308Y-122131463D01*
X139611444Y-122153999D01*
X139650486Y-122199056D01*
X139654951Y-122207820D01*
X139779890Y-122379786D01*
X139930213Y-122530109D01*
X140102179Y-122655048D01*
X140102181Y-122655049D01*
X140102184Y-122655051D01*
X140291588Y-122751557D01*
X140493757Y-122817246D01*
X140703713Y-122850500D01*
X140703714Y-122850500D01*
X140916286Y-122850500D01*
X140916287Y-122850500D01*
X141126243Y-122817246D01*
X141328412Y-122751557D01*
X141517816Y-122655051D01*
X141604478Y-122592088D01*
X141689784Y-122530110D01*
X141689784Y-122530109D01*
X141689792Y-122530104D01*
X141803717Y-122416178D01*
X141865036Y-122382696D01*
X141934728Y-122387680D01*
X141990662Y-122429551D01*
X142007577Y-122460528D01*
X142056646Y-122592088D01*
X142056649Y-122592093D01*
X142142809Y-122707187D01*
X142142812Y-122707190D01*
X142257906Y-122793350D01*
X142257913Y-122793354D01*
X142392620Y-122843596D01*
X142392627Y-122843598D01*
X142452155Y-122849999D01*
X142452172Y-122850000D01*
X143100000Y-122850000D01*
X143100000Y-121933012D01*
X143157007Y-121965925D01*
X143284174Y-122000000D01*
X143415826Y-122000000D01*
X143542993Y-121965925D01*
X143600000Y-121933012D01*
X143600000Y-122850000D01*
X144247828Y-122850000D01*
X144247844Y-122849999D01*
X144307372Y-122843598D01*
X144307379Y-122843596D01*
X144442086Y-122793354D01*
X144442093Y-122793350D01*
X144557187Y-122707190D01*
X144557190Y-122707187D01*
X144643350Y-122592093D01*
X144643354Y-122592086D01*
X144693596Y-122457379D01*
X144693598Y-122457372D01*
X144699999Y-122397844D01*
X144700000Y-122397827D01*
X144700000Y-121750000D01*
X143783012Y-121750000D01*
X143815925Y-121692993D01*
X143850000Y-121565826D01*
X143850000Y-121434174D01*
X143815925Y-121307007D01*
X143783012Y-121250000D01*
X144700000Y-121250000D01*
X144700000Y-120602172D01*
X144699999Y-120602155D01*
X144693598Y-120542627D01*
X144693596Y-120542620D01*
X144643354Y-120407913D01*
X144643350Y-120407906D01*
X144557190Y-120292812D01*
X144557187Y-120292809D01*
X144442093Y-120206649D01*
X144442086Y-120206645D01*
X144307379Y-120156403D01*
X144307372Y-120156401D01*
X144247844Y-120150000D01*
X143600000Y-120150000D01*
X143600000Y-121066988D01*
X143542993Y-121034075D01*
X143415826Y-121000000D01*
X143284174Y-121000000D01*
X143157007Y-121034075D01*
X143100000Y-121066988D01*
X143100000Y-120150000D01*
X142452155Y-120150000D01*
X142392627Y-120156401D01*
X142392620Y-120156403D01*
X142257913Y-120206645D01*
X142257906Y-120206649D01*
X142142812Y-120292809D01*
X142142809Y-120292812D01*
X142056649Y-120407906D01*
X142056646Y-120407912D01*
X142007577Y-120539471D01*
X141965705Y-120595404D01*
X141900241Y-120619821D01*
X141831968Y-120604969D01*
X141803714Y-120583818D01*
X141689786Y-120469890D01*
X141517820Y-120344951D01*
X141328414Y-120248444D01*
X141328413Y-120248443D01*
X141328412Y-120248443D01*
X141126243Y-120182754D01*
X141126241Y-120182753D01*
X141126240Y-120182753D01*
X140964957Y-120157208D01*
X140916287Y-120149500D01*
X140703713Y-120149500D01*
X140655042Y-120157208D01*
X140493760Y-120182753D01*
X140291585Y-120248444D01*
X140102179Y-120344951D01*
X139930213Y-120469890D01*
X139779890Y-120620213D01*
X139654949Y-120792182D01*
X139650484Y-120800946D01*
X139602509Y-120851742D01*
X139534688Y-120868536D01*
X139468553Y-120845998D01*
X139429516Y-120800946D01*
X139425050Y-120792182D01*
X139300109Y-120620213D01*
X139149786Y-120469890D01*
X138977820Y-120344951D01*
X138788414Y-120248444D01*
X138788413Y-120248443D01*
X138788412Y-120248443D01*
X138586243Y-120182754D01*
X138586241Y-120182753D01*
X138586240Y-120182753D01*
X138424957Y-120157208D01*
X138376287Y-120149500D01*
X138163713Y-120149500D01*
X138115042Y-120157208D01*
X137953760Y-120182753D01*
X137751585Y-120248444D01*
X137562179Y-120344951D01*
X137390213Y-120469890D01*
X137239890Y-120620213D01*
X137114949Y-120792182D01*
X137110484Y-120800946D01*
X137062509Y-120851742D01*
X136994688Y-120868536D01*
X136928553Y-120845998D01*
X136889516Y-120800946D01*
X136885050Y-120792182D01*
X136760109Y-120620213D01*
X136609786Y-120469890D01*
X136437820Y-120344951D01*
X136248414Y-120248444D01*
X136248413Y-120248443D01*
X136248412Y-120248443D01*
X136046243Y-120182754D01*
X136046241Y-120182753D01*
X136046240Y-120182753D01*
X135884957Y-120157208D01*
X135836287Y-120149500D01*
X135623713Y-120149500D01*
X135575042Y-120157208D01*
X135413760Y-120182753D01*
X135211585Y-120248444D01*
X135022179Y-120344951D01*
X134850213Y-120469890D01*
X134699890Y-120620213D01*
X134574949Y-120792182D01*
X134570484Y-120800946D01*
X134522509Y-120851742D01*
X134454688Y-120868536D01*
X134388553Y-120845998D01*
X134349516Y-120800946D01*
X134345050Y-120792182D01*
X134220109Y-120620213D01*
X134069786Y-120469890D01*
X133897820Y-120344951D01*
X133708414Y-120248444D01*
X133708413Y-120248443D01*
X133708412Y-120248443D01*
X133506243Y-120182754D01*
X133506241Y-120182753D01*
X133506240Y-120182753D01*
X133344957Y-120157208D01*
X133296287Y-120149500D01*
X133083713Y-120149500D01*
X133035042Y-120157208D01*
X132873760Y-120182753D01*
X132671585Y-120248444D01*
X132482179Y-120344951D01*
X132310213Y-120469890D01*
X132159890Y-120620213D01*
X132034949Y-120792182D01*
X132030484Y-120800946D01*
X131982509Y-120851742D01*
X131914688Y-120868536D01*
X131848553Y-120845998D01*
X131809516Y-120800946D01*
X131805050Y-120792182D01*
X131680109Y-120620213D01*
X131529786Y-120469890D01*
X131357820Y-120344951D01*
X131168414Y-120248444D01*
X131168413Y-120248443D01*
X131168412Y-120248443D01*
X130966243Y-120182754D01*
X130966241Y-120182753D01*
X130966240Y-120182753D01*
X130804957Y-120157208D01*
X130756287Y-120149500D01*
X130543713Y-120149500D01*
X130495042Y-120157208D01*
X130333760Y-120182753D01*
X130131585Y-120248444D01*
X129942179Y-120344951D01*
X129770213Y-120469890D01*
X129619890Y-120620213D01*
X129494951Y-120792179D01*
X129398444Y-120981585D01*
X129332753Y-121183760D01*
X129299500Y-121393713D01*
X117883175Y-121393713D01*
X117917023Y-121330388D01*
X118048790Y-121083869D01*
X118048792Y-121083864D01*
X118187913Y-120747997D01*
X118293446Y-120400101D01*
X118293449Y-120400090D01*
X118364367Y-120043556D01*
X118400000Y-119681765D01*
X118400000Y-119318234D01*
X147300000Y-119318234D01*
X147300000Y-119681765D01*
X147335632Y-120043556D01*
X147406550Y-120400090D01*
X147406553Y-120400101D01*
X147512086Y-120747997D01*
X147651207Y-121083864D01*
X147651209Y-121083869D01*
X147822570Y-121404462D01*
X147822581Y-121404480D01*
X148024551Y-121706750D01*
X148211678Y-121934765D01*
X148211679Y-121934766D01*
X149705747Y-120440697D01*
X149779588Y-120542330D01*
X149957670Y-120720412D01*
X150059301Y-120794251D01*
X148565232Y-122288319D01*
X148565233Y-122288320D01*
X148793249Y-122475448D01*
X149095519Y-122677418D01*
X149095537Y-122677429D01*
X149416130Y-122848790D01*
X149416135Y-122848792D01*
X149752002Y-122987913D01*
X150099898Y-123093446D01*
X150099909Y-123093449D01*
X150456443Y-123164367D01*
X150818234Y-123200000D01*
X151181766Y-123200000D01*
X151543556Y-123164367D01*
X151900090Y-123093449D01*
X151900101Y-123093446D01*
X152247997Y-122987913D01*
X152583864Y-122848792D01*
X152583869Y-122848790D01*
X152904462Y-122677429D01*
X152904480Y-122677418D01*
X153206736Y-122475457D01*
X153206750Y-122475447D01*
X153434765Y-122288320D01*
X153434766Y-122288319D01*
X151940698Y-120794251D01*
X152042330Y-120720412D01*
X152220412Y-120542330D01*
X152294251Y-120440698D01*
X153788319Y-121934766D01*
X153788320Y-121934765D01*
X153975447Y-121706750D01*
X153975457Y-121706736D01*
X154177418Y-121404480D01*
X154177429Y-121404462D01*
X154348790Y-121083869D01*
X154348792Y-121083864D01*
X154487913Y-120747997D01*
X154593446Y-120400101D01*
X154593449Y-120400090D01*
X154664367Y-120043556D01*
X154700000Y-119681765D01*
X154700000Y-119318234D01*
X154664367Y-118956443D01*
X154593449Y-118599909D01*
X154593446Y-118599898D01*
X154487913Y-118252002D01*
X154348792Y-117916135D01*
X154348790Y-117916130D01*
X154177429Y-117595537D01*
X154177418Y-117595519D01*
X153975448Y-117293249D01*
X153788320Y-117065233D01*
X153788319Y-117065232D01*
X152294251Y-118559300D01*
X152220412Y-118457670D01*
X152042330Y-118279588D01*
X151940698Y-118205748D01*
X153434766Y-116711679D01*
X153434765Y-116711678D01*
X153206750Y-116524551D01*
X152904480Y-116322581D01*
X152904462Y-116322570D01*
X152583869Y-116151209D01*
X152583864Y-116151207D01*
X152247997Y-116012086D01*
X151900101Y-115906553D01*
X151900090Y-115906550D01*
X151543556Y-115835632D01*
X151181766Y-115800000D01*
X150818234Y-115800000D01*
X150456443Y-115835632D01*
X150099909Y-115906550D01*
X150099898Y-115906553D01*
X149752002Y-116012086D01*
X149416135Y-116151207D01*
X149416130Y-116151209D01*
X149095537Y-116322570D01*
X149095519Y-116322581D01*
X148793258Y-116524545D01*
X148793254Y-116524548D01*
X148565233Y-116711679D01*
X148565233Y-116711680D01*
X150059301Y-118205748D01*
X149957670Y-118279588D01*
X149779588Y-118457670D01*
X149705748Y-118559301D01*
X148211680Y-117065233D01*
X148211679Y-117065233D01*
X148024548Y-117293254D01*
X148024545Y-117293258D01*
X147822581Y-117595519D01*
X147822570Y-117595537D01*
X147651209Y-117916130D01*
X147651207Y-117916135D01*
X147512086Y-118252002D01*
X147406553Y-118599898D01*
X147406550Y-118599909D01*
X147335632Y-118956443D01*
X147300000Y-119318234D01*
X118400000Y-119318234D01*
X118364367Y-118956443D01*
X118293449Y-118599909D01*
X118293446Y-118599898D01*
X118187913Y-118252002D01*
X118048792Y-117916135D01*
X118048790Y-117916130D01*
X117877429Y-117595537D01*
X117877418Y-117595519D01*
X117675448Y-117293249D01*
X117488320Y-117065233D01*
X117488319Y-117065232D01*
X115994251Y-118559300D01*
X115920412Y-118457670D01*
X115742330Y-118279588D01*
X115640698Y-118205748D01*
X117008728Y-116837718D01*
X117134766Y-116711679D01*
X117134765Y-116711678D01*
X116906750Y-116524551D01*
X116604480Y-116322581D01*
X116604462Y-116322570D01*
X116283869Y-116151209D01*
X116283864Y-116151207D01*
X115947997Y-116012086D01*
X115600101Y-115906553D01*
X115600090Y-115906550D01*
X115243556Y-115835632D01*
X114881766Y-115800000D01*
X114518234Y-115800000D01*
X114156443Y-115835632D01*
X113799909Y-115906550D01*
X113799898Y-115906553D01*
X113452002Y-116012086D01*
X113116135Y-116151207D01*
X113116130Y-116151209D01*
X112795537Y-116322570D01*
X112795519Y-116322581D01*
X112493258Y-116524545D01*
X112493254Y-116524548D01*
X112265233Y-116711679D01*
X112265233Y-116711680D01*
X113759301Y-118205748D01*
X113657670Y-118279588D01*
X113479588Y-118457670D01*
X113405748Y-118559301D01*
X111911680Y-117065233D01*
X111911679Y-117065233D01*
X111724548Y-117293254D01*
X111724545Y-117293258D01*
X111522581Y-117595519D01*
X111522570Y-117595537D01*
X111351209Y-117916130D01*
X111351207Y-117916135D01*
X111212086Y-118252002D01*
X111106553Y-118599898D01*
X111106550Y-118599909D01*
X111035632Y-118956443D01*
X111000000Y-119318234D01*
X110568522Y-119318234D01*
X110568522Y-115631947D01*
X120250000Y-115631947D01*
X120250000Y-115868052D01*
X120286934Y-116101247D01*
X120359897Y-116325802D01*
X120467087Y-116536174D01*
X120527338Y-116619104D01*
X120527340Y-116619105D01*
X121226212Y-115920233D01*
X121237482Y-115962292D01*
X121309890Y-116087708D01*
X121412292Y-116190110D01*
X121537708Y-116262518D01*
X121579765Y-116273787D01*
X120880893Y-116972658D01*
X120963828Y-117032914D01*
X121174197Y-117140102D01*
X121398752Y-117213065D01*
X121398751Y-117213065D01*
X121631948Y-117250000D01*
X121868052Y-117250000D01*
X122101247Y-117213065D01*
X122325802Y-117140102D01*
X122536163Y-117032918D01*
X122536169Y-117032914D01*
X122619104Y-116972658D01*
X122619105Y-116972658D01*
X121920233Y-116273787D01*
X121962292Y-116262518D01*
X122087708Y-116190110D01*
X122190110Y-116087708D01*
X122262518Y-115962292D01*
X122273787Y-115920233D01*
X122972658Y-116619105D01*
X122972658Y-116619104D01*
X123032914Y-116536169D01*
X123032918Y-116536163D01*
X123140102Y-116325802D01*
X123213065Y-116101247D01*
X123250000Y-115868052D01*
X123250000Y-115631947D01*
X126750000Y-115631947D01*
X126750000Y-115868052D01*
X126786934Y-116101247D01*
X126859897Y-116325802D01*
X126967087Y-116536174D01*
X127027338Y-116619104D01*
X127027340Y-116619105D01*
X127726212Y-115920233D01*
X127737482Y-115962292D01*
X127809890Y-116087708D01*
X127912292Y-116190110D01*
X128037708Y-116262518D01*
X128079765Y-116273787D01*
X127380893Y-116972658D01*
X127463828Y-117032914D01*
X127674197Y-117140102D01*
X127898752Y-117213065D01*
X127898751Y-117213065D01*
X128131948Y-117250000D01*
X128368052Y-117250000D01*
X128601247Y-117213065D01*
X128825802Y-117140102D01*
X129036163Y-117032918D01*
X129036169Y-117032914D01*
X129119104Y-116972658D01*
X129119105Y-116972658D01*
X128420233Y-116273787D01*
X128462292Y-116262518D01*
X128587708Y-116190110D01*
X128690110Y-116087708D01*
X128762518Y-115962292D01*
X128773787Y-115920234D01*
X129472658Y-116619105D01*
X129472658Y-116619104D01*
X129532914Y-116536169D01*
X129532918Y-116536163D01*
X129640102Y-116325802D01*
X129713065Y-116101247D01*
X129750000Y-115868052D01*
X129750000Y-115631947D01*
X129713065Y-115398752D01*
X129640102Y-115174197D01*
X129532914Y-114963828D01*
X129472658Y-114880894D01*
X129472658Y-114880893D01*
X128773787Y-115579765D01*
X128762518Y-115537708D01*
X128690110Y-115412292D01*
X128587708Y-115309890D01*
X128462292Y-115237482D01*
X128420234Y-115226212D01*
X129072525Y-114573920D01*
X130549499Y-114573920D01*
X130578340Y-114718907D01*
X130578343Y-114718917D01*
X130637247Y-114861124D01*
X130636383Y-114861481D01*
X130649500Y-114913840D01*
X130649500Y-115222532D01*
X130649500Y-115222534D01*
X130649499Y-115222534D01*
X130674497Y-115348201D01*
X130674499Y-115348207D01*
X130723535Y-115466590D01*
X130794723Y-115573132D01*
X130794726Y-115573136D01*
X133127864Y-117906274D01*
X133194055Y-117950501D01*
X133234403Y-117977461D01*
X133234409Y-117977464D01*
X133234410Y-117977465D01*
X133352793Y-118026501D01*
X133352797Y-118026501D01*
X133352798Y-118026502D01*
X133478465Y-118051500D01*
X133478468Y-118051500D01*
X134313014Y-118051500D01*
X134397558Y-118034682D01*
X134438687Y-118026501D01*
X134557070Y-117977465D01*
X134585389Y-117958543D01*
X134663612Y-117906277D01*
X135276640Y-117293249D01*
X135897077Y-116672813D01*
X136735272Y-115834617D01*
X136735273Y-115834616D01*
X136735277Y-115834612D01*
X136806465Y-115728070D01*
X136855501Y-115609686D01*
X136855502Y-115609683D01*
X136859046Y-115591871D01*
X136880499Y-115484016D01*
X136880500Y-115484014D01*
X136880500Y-113781907D01*
X136900185Y-113714868D01*
X136952989Y-113669113D01*
X137022147Y-113659169D01*
X137051950Y-113667345D01*
X137208165Y-113732051D01*
X137208169Y-113732051D01*
X137208170Y-113732052D01*
X137401456Y-113770500D01*
X137401459Y-113770500D01*
X137598543Y-113770500D01*
X137728582Y-113744632D01*
X137791835Y-113732051D01*
X137973914Y-113656632D01*
X138066109Y-113595029D01*
X138132786Y-113574151D01*
X138200166Y-113592635D01*
X138203891Y-113595029D01*
X138296086Y-113656632D01*
X138296088Y-113656633D01*
X138296092Y-113656635D01*
X138436681Y-113714868D01*
X138478165Y-113732051D01*
X138478169Y-113732051D01*
X138478170Y-113732052D01*
X138671456Y-113770500D01*
X138671459Y-113770500D01*
X138868543Y-113770500D01*
X138998582Y-113744632D01*
X139061835Y-113732051D01*
X139243914Y-113656632D01*
X139336109Y-113595029D01*
X139402786Y-113574151D01*
X139470166Y-113592635D01*
X139473891Y-113595029D01*
X139566086Y-113656632D01*
X139566088Y-113656633D01*
X139566092Y-113656635D01*
X139706681Y-113714868D01*
X139748165Y-113732051D01*
X139748169Y-113732051D01*
X139748170Y-113732052D01*
X139941456Y-113770500D01*
X139941459Y-113770500D01*
X140138543Y-113770500D01*
X140268582Y-113744632D01*
X140331835Y-113732051D01*
X140513914Y-113656632D01*
X140606109Y-113595029D01*
X140672786Y-113574151D01*
X140740166Y-113592635D01*
X140743891Y-113595029D01*
X140836086Y-113656632D01*
X140836088Y-113656633D01*
X140836092Y-113656635D01*
X140976681Y-113714868D01*
X141018165Y-113732051D01*
X141018169Y-113732051D01*
X141018170Y-113732052D01*
X141211456Y-113770500D01*
X141211459Y-113770500D01*
X141408543Y-113770500D01*
X141538582Y-113744632D01*
X141601835Y-113732051D01*
X141783914Y-113656632D01*
X141947782Y-113547139D01*
X142087139Y-113407782D01*
X142196632Y-113243914D01*
X142272051Y-113061835D01*
X142310500Y-112868541D01*
X142310500Y-112671459D01*
X142310500Y-112671456D01*
X142272052Y-112478170D01*
X142272051Y-112478169D01*
X142272051Y-112478165D01*
X142229680Y-112375873D01*
X142222212Y-112306407D01*
X142244977Y-112254111D01*
X142253796Y-112242331D01*
X142304091Y-112107483D01*
X142310500Y-112047873D01*
X142310499Y-110952128D01*
X142304091Y-110892517D01*
X142293289Y-110863556D01*
X142253797Y-110757671D01*
X142253793Y-110757664D01*
X142167547Y-110642455D01*
X142167544Y-110642452D01*
X142052335Y-110556206D01*
X142052328Y-110556202D01*
X141917482Y-110505908D01*
X141917483Y-110505908D01*
X141857883Y-110499501D01*
X141857881Y-110499500D01*
X141857873Y-110499500D01*
X141857864Y-110499500D01*
X140762129Y-110499500D01*
X140762123Y-110499501D01*
X140702516Y-110505908D01*
X140567671Y-110556202D01*
X140567667Y-110556204D01*
X140555416Y-110565375D01*
X140489950Y-110589789D01*
X140433659Y-110580665D01*
X140331691Y-110538429D01*
X140331683Y-110538427D01*
X140290000Y-110530135D01*
X140290000Y-111290382D01*
X140239554Y-111239936D01*
X140165445Y-111197149D01*
X140082787Y-111175000D01*
X139997213Y-111175000D01*
X139914555Y-111197149D01*
X139840446Y-111239936D01*
X139779936Y-111300446D01*
X139737149Y-111374555D01*
X139715000Y-111457213D01*
X139715000Y-111542787D01*
X139737149Y-111625445D01*
X139779936Y-111699554D01*
X139830382Y-111750000D01*
X138979618Y-111750000D01*
X139030064Y-111699554D01*
X139072851Y-111625445D01*
X139095000Y-111542787D01*
X139095000Y-111457213D01*
X139072851Y-111374555D01*
X139030064Y-111300446D01*
X138969554Y-111239936D01*
X138895445Y-111197149D01*
X138812787Y-111175000D01*
X138727213Y-111175000D01*
X138644555Y-111197149D01*
X138570446Y-111239936D01*
X138520000Y-111290382D01*
X138520000Y-110530136D01*
X138519999Y-110530135D01*
X139020000Y-110530135D01*
X139020000Y-111250000D01*
X139790000Y-111250000D01*
X139790000Y-110530136D01*
X139789999Y-110530135D01*
X139748316Y-110538427D01*
X139748308Y-110538429D01*
X139566328Y-110613807D01*
X139566315Y-110613814D01*
X139473891Y-110675571D01*
X139407214Y-110696449D01*
X139339833Y-110677965D01*
X139336109Y-110675571D01*
X139243684Y-110613814D01*
X139243671Y-110613807D01*
X139061691Y-110538429D01*
X139061683Y-110538427D01*
X139020000Y-110530135D01*
X138519999Y-110530135D01*
X138478316Y-110538427D01*
X138478308Y-110538429D01*
X138296325Y-110613809D01*
X138204339Y-110675271D01*
X138137661Y-110696148D01*
X138070281Y-110677663D01*
X138066559Y-110675271D01*
X138017441Y-110642452D01*
X137973914Y-110613368D01*
X137973911Y-110613366D01*
X137973910Y-110613366D01*
X137791839Y-110537950D01*
X137791829Y-110537947D01*
X137598543Y-110499500D01*
X137598541Y-110499500D01*
X137401459Y-110499500D01*
X137401457Y-110499500D01*
X137208170Y-110537947D01*
X137208160Y-110537950D01*
X137026093Y-110613364D01*
X137026082Y-110613370D01*
X136933440Y-110675271D01*
X136866762Y-110696148D01*
X136799382Y-110677663D01*
X136795659Y-110675270D01*
X136703684Y-110613814D01*
X136703671Y-110613807D01*
X136521691Y-110538429D01*
X136521683Y-110538427D01*
X136480000Y-110530135D01*
X136480000Y-111290382D01*
X136429554Y-111239936D01*
X136355445Y-111197149D01*
X136272787Y-111175000D01*
X136187213Y-111175000D01*
X136104555Y-111197149D01*
X136030446Y-111239936D01*
X135980000Y-111290382D01*
X135980000Y-110530136D01*
X135979999Y-110530135D01*
X135938316Y-110538427D01*
X135938308Y-110538429D01*
X135756328Y-110613807D01*
X135756315Y-110613814D01*
X135592537Y-110723248D01*
X135592533Y-110723251D01*
X135453255Y-110862530D01*
X135453249Y-110862537D01*
X135452764Y-110863263D01*
X135452412Y-110863556D01*
X135449391Y-110867239D01*
X135448691Y-110866665D01*
X135399146Y-110908062D01*
X135329820Y-110916762D01*
X135266796Y-110886600D01*
X135261988Y-110882042D01*
X134286819Y-109906873D01*
X134253334Y-109845550D01*
X134250500Y-109819192D01*
X134250500Y-105613840D01*
X134263616Y-105561481D01*
X134262753Y-105561124D01*
X134321656Y-105418917D01*
X134321658Y-105418913D01*
X134334647Y-105353613D01*
X134350500Y-105273920D01*
X134350500Y-105126079D01*
X134321659Y-104981092D01*
X134321658Y-104981091D01*
X134321658Y-104981087D01*
X134321656Y-104981082D01*
X134265087Y-104844511D01*
X134265080Y-104844498D01*
X134182951Y-104721584D01*
X134182948Y-104721580D01*
X134078419Y-104617051D01*
X134078415Y-104617048D01*
X133955501Y-104534919D01*
X133955488Y-104534912D01*
X133818917Y-104478343D01*
X133818908Y-104478340D01*
X133749307Y-104464495D01*
X133687396Y-104432109D01*
X133652823Y-104371392D01*
X133649500Y-104342878D01*
X133649500Y-103247477D01*
X133669185Y-103180438D01*
X133721989Y-103134683D01*
X133725987Y-103132941D01*
X133831230Y-103089349D01*
X133954151Y-103007216D01*
X133958055Y-103003311D01*
X134019373Y-102969825D01*
X134089064Y-102974806D01*
X134133419Y-103003309D01*
X135336380Y-104206271D01*
X135336383Y-104206274D01*
X135336386Y-104206276D01*
X135394467Y-104245084D01*
X135442929Y-104277465D01*
X135561312Y-104326501D01*
X135561316Y-104326501D01*
X135561317Y-104326502D01*
X135686984Y-104351500D01*
X135686987Y-104351500D01*
X136323350Y-104351500D01*
X136390389Y-104371185D01*
X136436144Y-104423989D01*
X136446088Y-104493147D01*
X136426452Y-104544391D01*
X136409184Y-104570233D01*
X136409177Y-104570246D01*
X136352608Y-104706817D01*
X136352605Y-104706826D01*
X136328723Y-104826886D01*
X136296337Y-104888796D01*
X136275998Y-104905794D01*
X136227632Y-104938111D01*
X136227626Y-104938116D01*
X136123097Y-105042645D01*
X136123094Y-105042649D01*
X136040965Y-105165563D01*
X136040958Y-105165576D01*
X135984389Y-105302147D01*
X135984386Y-105302157D01*
X135955546Y-105447144D01*
X135955546Y-105447147D01*
X135955546Y-105594983D01*
X135955546Y-105594985D01*
X135955545Y-105594985D01*
X135984386Y-105739972D01*
X135984389Y-105739982D01*
X136040958Y-105876553D01*
X136040965Y-105876566D01*
X136123094Y-105999480D01*
X136123097Y-105999484D01*
X136227626Y-106104013D01*
X136227630Y-106104016D01*
X136350544Y-106186145D01*
X136350557Y-106186152D01*
X136492761Y-106245054D01*
X136492403Y-106245918D01*
X136538699Y-106273664D01*
X136670312Y-106405277D01*
X136776854Y-106476465D01*
X136895237Y-106525501D01*
X136895241Y-106525501D01*
X136895242Y-106525502D01*
X136996057Y-106545556D01*
X137057968Y-106577941D01*
X137059546Y-106579492D01*
X137647398Y-107167344D01*
X137675149Y-107213643D01*
X137676011Y-107213286D01*
X137734912Y-107355488D01*
X137734919Y-107355501D01*
X137817048Y-107478415D01*
X137817051Y-107478419D01*
X137921580Y-107582948D01*
X137921584Y-107582951D01*
X138044498Y-107665080D01*
X138044511Y-107665087D01*
X138181082Y-107721656D01*
X138181087Y-107721658D01*
X138181091Y-107721658D01*
X138181092Y-107721659D01*
X138326079Y-107750500D01*
X138326082Y-107750500D01*
X138473920Y-107750500D01*
X138571462Y-107731096D01*
X138618913Y-107721658D01*
X138755495Y-107665084D01*
X138878416Y-107582951D01*
X138933031Y-107528335D01*
X138994350Y-107494852D01*
X139064042Y-107499835D01*
X139108391Y-107528337D01*
X139547398Y-107967344D01*
X139575149Y-108013643D01*
X139576011Y-108013286D01*
X139634912Y-108155488D01*
X139634919Y-108155501D01*
X139717048Y-108278415D01*
X139717051Y-108278419D01*
X139821580Y-108382948D01*
X139821584Y-108382951D01*
X139944498Y-108465080D01*
X139944511Y-108465087D01*
X140081082Y-108521656D01*
X140081087Y-108521658D01*
X140081091Y-108521658D01*
X140081092Y-108521659D01*
X140226079Y-108550500D01*
X140226082Y-108550500D01*
X140373920Y-108550500D01*
X140471462Y-108531096D01*
X140518913Y-108521658D01*
X140655495Y-108465084D01*
X140778416Y-108382951D01*
X140882951Y-108278416D01*
X140965084Y-108155495D01*
X141021658Y-108018913D01*
X141050500Y-107873918D01*
X141050500Y-107726082D01*
X141050500Y-107726079D01*
X141021659Y-107581092D01*
X141021658Y-107581091D01*
X141021658Y-107581087D01*
X140999809Y-107528338D01*
X140965087Y-107444511D01*
X140965080Y-107444498D01*
X140882951Y-107321584D01*
X140882948Y-107321580D01*
X140778419Y-107217051D01*
X140778415Y-107217048D01*
X140655501Y-107134919D01*
X140655488Y-107134912D01*
X140513286Y-107076011D01*
X140513643Y-107075149D01*
X140467344Y-107047398D01*
X137848197Y-104428250D01*
X137814712Y-104366927D01*
X137819696Y-104297235D01*
X137861568Y-104241302D01*
X137866940Y-104237499D01*
X137913669Y-104206277D01*
X138533127Y-103586819D01*
X138560054Y-103572115D01*
X138585873Y-103555523D01*
X138592073Y-103554631D01*
X138594450Y-103553334D01*
X138620808Y-103550500D01*
X138686157Y-103550500D01*
X138738517Y-103563614D01*
X138738875Y-103562753D01*
X138744501Y-103565083D01*
X138744502Y-103565084D01*
X138881084Y-103621658D01*
X138881088Y-103621658D01*
X138881089Y-103621659D01*
X139026076Y-103650500D01*
X139032139Y-103651097D01*
X139032009Y-103652411D01*
X139034185Y-103653050D01*
X139043147Y-103651762D01*
X139067187Y-103662740D01*
X139092539Y-103670185D01*
X139098466Y-103677025D01*
X139106703Y-103680787D01*
X139120992Y-103703021D01*
X139138294Y-103722989D01*
X139140581Y-103733503D01*
X139144477Y-103739565D01*
X139149500Y-103774500D01*
X139149500Y-103886160D01*
X139136385Y-103938520D01*
X139137247Y-103938878D01*
X139078342Y-104081086D01*
X139078340Y-104081092D01*
X139049500Y-104226079D01*
X139049500Y-104226082D01*
X139049500Y-104373918D01*
X139049500Y-104373920D01*
X139049499Y-104373920D01*
X139078340Y-104518907D01*
X139078343Y-104518917D01*
X139134912Y-104655488D01*
X139134919Y-104655501D01*
X139217048Y-104778415D01*
X139217051Y-104778419D01*
X139321580Y-104882948D01*
X139321584Y-104882951D01*
X139444498Y-104965080D01*
X139444511Y-104965087D01*
X139517291Y-104995233D01*
X139581087Y-105021658D01*
X139581091Y-105021658D01*
X139581092Y-105021659D01*
X139726079Y-105050500D01*
X139726082Y-105050500D01*
X139873920Y-105050500D01*
X139971462Y-105031096D01*
X140018913Y-105021658D01*
X140155495Y-104965084D01*
X140278416Y-104882951D01*
X140382951Y-104778416D01*
X140465084Y-104655495D01*
X140521658Y-104518913D01*
X140532483Y-104464495D01*
X140550500Y-104373920D01*
X140550500Y-104226079D01*
X140521659Y-104081092D01*
X140521658Y-104081091D01*
X140521658Y-104081087D01*
X140465084Y-103944505D01*
X140465083Y-103944504D01*
X140462753Y-103938878D01*
X140463614Y-103938520D01*
X140450500Y-103886160D01*
X140450500Y-103313840D01*
X140463616Y-103261481D01*
X140462753Y-103261124D01*
X140521656Y-103118917D01*
X140521658Y-103118913D01*
X140543876Y-103007220D01*
X140550500Y-102973920D01*
X140550500Y-102826079D01*
X140521659Y-102681092D01*
X140521658Y-102681091D01*
X140521658Y-102681087D01*
X140521656Y-102681082D01*
X140497164Y-102621952D01*
X140489695Y-102552483D01*
X140520970Y-102490004D01*
X140581059Y-102454352D01*
X140611725Y-102450500D01*
X141779192Y-102450500D01*
X141846231Y-102470185D01*
X141866873Y-102486819D01*
X142247397Y-102867342D01*
X142275150Y-102913642D01*
X142276011Y-102913286D01*
X142334912Y-103055488D01*
X142334919Y-103055501D01*
X142417048Y-103178415D01*
X142417051Y-103178419D01*
X142521580Y-103282948D01*
X142521584Y-103282951D01*
X142644498Y-103365080D01*
X142644511Y-103365087D01*
X142781082Y-103421656D01*
X142781087Y-103421658D01*
X142781091Y-103421658D01*
X142781092Y-103421659D01*
X142926079Y-103450500D01*
X142926082Y-103450500D01*
X143073920Y-103450500D01*
X143171462Y-103431096D01*
X143218913Y-103421658D01*
X143355495Y-103365084D01*
X143478416Y-103282951D01*
X143582951Y-103178416D01*
X143665084Y-103055495D01*
X143721658Y-102918913D01*
X143750500Y-102773918D01*
X143750500Y-102626082D01*
X143750500Y-102626079D01*
X143721659Y-102481092D01*
X143721658Y-102481091D01*
X143721658Y-102481087D01*
X143710584Y-102454352D01*
X143665087Y-102344511D01*
X143665080Y-102344498D01*
X143582951Y-102221584D01*
X143582948Y-102221580D01*
X143478419Y-102117051D01*
X143478415Y-102117048D01*
X143355501Y-102034919D01*
X143355488Y-102034912D01*
X143213286Y-101976011D01*
X143213642Y-101975150D01*
X143211590Y-101973920D01*
X150049499Y-101973920D01*
X150078340Y-102118907D01*
X150078343Y-102118917D01*
X150134912Y-102255488D01*
X150134919Y-102255501D01*
X150217048Y-102378415D01*
X150217051Y-102378419D01*
X150321580Y-102482948D01*
X150321584Y-102482951D01*
X150444498Y-102565080D01*
X150444511Y-102565087D01*
X150580899Y-102621580D01*
X150581087Y-102621658D01*
X150581091Y-102621658D01*
X150581092Y-102621659D01*
X150726079Y-102650500D01*
X150726082Y-102650500D01*
X150873920Y-102650500D01*
X150971462Y-102631096D01*
X151018913Y-102621658D01*
X151155495Y-102565084D01*
X151278416Y-102482951D01*
X151382951Y-102378416D01*
X151465084Y-102255495D01*
X151521658Y-102118913D01*
X151538366Y-102034919D01*
X151550500Y-101973920D01*
X151550500Y-101826079D01*
X151521659Y-101681092D01*
X151521658Y-101681091D01*
X151521658Y-101681087D01*
X151465084Y-101544505D01*
X151465083Y-101544504D01*
X151462753Y-101538878D01*
X151463614Y-101538520D01*
X151450500Y-101486160D01*
X151450500Y-100920808D01*
X151470185Y-100853769D01*
X151486819Y-100833127D01*
X154005272Y-98314674D01*
X154005277Y-98314669D01*
X154076466Y-98208126D01*
X154112282Y-98121658D01*
X154125501Y-98089744D01*
X154138280Y-98025500D01*
X154150500Y-97964071D01*
X154150500Y-95669808D01*
X154170185Y-95602769D01*
X154222989Y-95557014D01*
X154292147Y-95547070D01*
X154355703Y-95576095D01*
X154362181Y-95582127D01*
X156685325Y-97905272D01*
X156685328Y-97905275D01*
X156762142Y-97956600D01*
X156762141Y-97956600D01*
X156781495Y-97969531D01*
X156791873Y-97976465D01*
X156910256Y-98025501D01*
X156910260Y-98025501D01*
X156910261Y-98025502D01*
X157035928Y-98050500D01*
X157035931Y-98050500D01*
X158786160Y-98050500D01*
X158838520Y-98063614D01*
X158838878Y-98062753D01*
X158844504Y-98065083D01*
X158844505Y-98065084D01*
X158981087Y-98121658D01*
X158981091Y-98121658D01*
X158981092Y-98121659D01*
X159126079Y-98150500D01*
X159126082Y-98150500D01*
X159273920Y-98150500D01*
X159385115Y-98128381D01*
X159418913Y-98121658D01*
X159555495Y-98065084D01*
X159678416Y-97982951D01*
X159782951Y-97878416D01*
X159865084Y-97755495D01*
X159921658Y-97618913D01*
X159950500Y-97473918D01*
X159950500Y-97326082D01*
X159950500Y-97326079D01*
X159921659Y-97181092D01*
X159921658Y-97181091D01*
X159921658Y-97181087D01*
X159921656Y-97181082D01*
X159865087Y-97044511D01*
X159865080Y-97044498D01*
X159782951Y-96921584D01*
X159782948Y-96921580D01*
X159678419Y-96817051D01*
X159678415Y-96817048D01*
X159555501Y-96734919D01*
X159555488Y-96734912D01*
X159418917Y-96678343D01*
X159418907Y-96678340D01*
X159273920Y-96649500D01*
X159273918Y-96649500D01*
X159126082Y-96649500D01*
X159126080Y-96649500D01*
X158981092Y-96678340D01*
X158981086Y-96678342D01*
X158838878Y-96737247D01*
X158838520Y-96736385D01*
X158786160Y-96749500D01*
X157420808Y-96749500D01*
X157353769Y-96729815D01*
X157333127Y-96713181D01*
X154252601Y-93632655D01*
X154224853Y-93586357D01*
X154223989Y-93586715D01*
X154165087Y-93444511D01*
X154165080Y-93444498D01*
X154082951Y-93321584D01*
X154082948Y-93321580D01*
X153978419Y-93217051D01*
X153978415Y-93217048D01*
X153855501Y-93134919D01*
X153855488Y-93134912D01*
X153718917Y-93078343D01*
X153718907Y-93078340D01*
X153573920Y-93049500D01*
X153573918Y-93049500D01*
X153426082Y-93049500D01*
X153426080Y-93049500D01*
X153281092Y-93078340D01*
X153281082Y-93078343D01*
X153144511Y-93134912D01*
X153144498Y-93134919D01*
X153021584Y-93217048D01*
X153021580Y-93217051D01*
X152917051Y-93321580D01*
X152917048Y-93321584D01*
X152834919Y-93444498D01*
X152834912Y-93444511D01*
X152778343Y-93581082D01*
X152778340Y-93581092D01*
X152749500Y-93726079D01*
X152749500Y-93726082D01*
X152749500Y-93873918D01*
X152749500Y-93873920D01*
X152749499Y-93873920D01*
X152778340Y-94018907D01*
X152778343Y-94018917D01*
X152837247Y-94161124D01*
X152836383Y-94161481D01*
X152849500Y-94213840D01*
X152849500Y-97579192D01*
X152829815Y-97646231D01*
X152813181Y-97666873D01*
X150294725Y-100185328D01*
X150294724Y-100185329D01*
X150294723Y-100185331D01*
X150251847Y-100249501D01*
X150237691Y-100270687D01*
X150223535Y-100291872D01*
X150223533Y-100291875D01*
X150174499Y-100410255D01*
X150174497Y-100410261D01*
X150149500Y-100535928D01*
X150149500Y-101486160D01*
X150136385Y-101538520D01*
X150137247Y-101538878D01*
X150078342Y-101681086D01*
X150078340Y-101681092D01*
X150049500Y-101826079D01*
X150049500Y-101826082D01*
X150049500Y-101973918D01*
X150049500Y-101973920D01*
X150049499Y-101973920D01*
X143211590Y-101973920D01*
X143206634Y-101970949D01*
X143195596Y-101968548D01*
X143167342Y-101947397D01*
X143127616Y-101907671D01*
X142514674Y-101294727D01*
X142514673Y-101294726D01*
X142442946Y-101246800D01*
X142408127Y-101223535D01*
X142405658Y-101222512D01*
X142289742Y-101174498D01*
X142283241Y-101173205D01*
X142281032Y-101172766D01*
X142164071Y-101149500D01*
X142164069Y-101149500D01*
X139613840Y-101149500D01*
X139605663Y-101147873D01*
X139600585Y-101148790D01*
X139582959Y-101143357D01*
X139566387Y-101140061D01*
X139557989Y-101136582D01*
X139555495Y-101134916D01*
X139418913Y-101078342D01*
X139415969Y-101077756D01*
X139407572Y-101074278D01*
X139394166Y-101063475D01*
X139367344Y-101047398D01*
X138814674Y-100494727D01*
X138814673Y-100494726D01*
X138814669Y-100494723D01*
X138708127Y-100423535D01*
X138703407Y-100421580D01*
X138589744Y-100374499D01*
X138589738Y-100374497D01*
X138464071Y-100349500D01*
X138464069Y-100349500D01*
X136513840Y-100349500D01*
X136461479Y-100336385D01*
X136461122Y-100337247D01*
X136455495Y-100334916D01*
X136318913Y-100278342D01*
X136318907Y-100278340D01*
X136173920Y-100249500D01*
X136173918Y-100249500D01*
X136026082Y-100249500D01*
X136026080Y-100249500D01*
X135881092Y-100278340D01*
X135881082Y-100278343D01*
X135744511Y-100334912D01*
X135744498Y-100334919D01*
X135621584Y-100417048D01*
X135621580Y-100417051D01*
X135517051Y-100521580D01*
X135517048Y-100521584D01*
X135434919Y-100644498D01*
X135434912Y-100644511D01*
X135378343Y-100781082D01*
X135378340Y-100781092D01*
X135349500Y-100926079D01*
X135349500Y-100926082D01*
X135349500Y-101073918D01*
X135349500Y-101073920D01*
X135349499Y-101073920D01*
X135378340Y-101218907D01*
X135378342Y-101218912D01*
X135379833Y-101222512D01*
X135380051Y-101224548D01*
X135380110Y-101224740D01*
X135380073Y-101224751D01*
X135387301Y-101291981D01*
X135356025Y-101354460D01*
X135295936Y-101390112D01*
X135226111Y-101387617D01*
X135177590Y-101357644D01*
X134552601Y-100732655D01*
X134524853Y-100686357D01*
X134523989Y-100686715D01*
X134465087Y-100544511D01*
X134465080Y-100544498D01*
X134382951Y-100421584D01*
X134382948Y-100421580D01*
X134278419Y-100317051D01*
X134278415Y-100317048D01*
X134155501Y-100234919D01*
X134155488Y-100234912D01*
X134018917Y-100178343D01*
X134018907Y-100178340D01*
X133873920Y-100149500D01*
X133873918Y-100149500D01*
X133726082Y-100149500D01*
X133726080Y-100149500D01*
X133581092Y-100178340D01*
X133581082Y-100178343D01*
X133444511Y-100234912D01*
X133444498Y-100234919D01*
X133321584Y-100317048D01*
X133321580Y-100317051D01*
X133217051Y-100421580D01*
X133217048Y-100421584D01*
X133134919Y-100544498D01*
X133134912Y-100544511D01*
X133078343Y-100681082D01*
X133078340Y-100681092D01*
X133049500Y-100826079D01*
X133049500Y-100973922D01*
X133066024Y-101056995D01*
X133059797Y-101126587D01*
X133016933Y-101181764D01*
X132991860Y-101195747D01*
X132868606Y-101246800D01*
X132762066Y-101317987D01*
X132762059Y-101317993D01*
X131594726Y-102485326D01*
X131523534Y-102591874D01*
X131474499Y-102710255D01*
X131474497Y-102710261D01*
X131449500Y-102835928D01*
X131449500Y-105286160D01*
X131436385Y-105338520D01*
X131437247Y-105338878D01*
X131434916Y-105344504D01*
X131434916Y-105344505D01*
X131431143Y-105353615D01*
X131378342Y-105481086D01*
X131378340Y-105481092D01*
X131349500Y-105626079D01*
X131349500Y-105626082D01*
X131349500Y-105773918D01*
X131349500Y-105773920D01*
X131349499Y-105773920D01*
X131378340Y-105918907D01*
X131378343Y-105918917D01*
X131434912Y-106055488D01*
X131434919Y-106055501D01*
X131517048Y-106178415D01*
X131517051Y-106178419D01*
X131621580Y-106282948D01*
X131621584Y-106282951D01*
X131744498Y-106365080D01*
X131744511Y-106365087D01*
X131851498Y-106409402D01*
X131881087Y-106421658D01*
X131881091Y-106421658D01*
X131881092Y-106421659D01*
X132026079Y-106450500D01*
X132026082Y-106450500D01*
X132173920Y-106450500D01*
X132200308Y-106445251D01*
X132269900Y-106451478D01*
X132325077Y-106494341D01*
X132348322Y-106560230D01*
X132348500Y-106566868D01*
X132348500Y-113825500D01*
X132328815Y-113892539D01*
X132276011Y-113938294D01*
X132224500Y-113949500D01*
X132126080Y-113949500D01*
X131981093Y-113978340D01*
X131981086Y-113978342D01*
X131957660Y-113988045D01*
X131888191Y-113995511D01*
X131825713Y-113964234D01*
X131822531Y-113961163D01*
X131778419Y-113917051D01*
X131778415Y-113917048D01*
X131655501Y-113834919D01*
X131655488Y-113834912D01*
X131518917Y-113778343D01*
X131518907Y-113778340D01*
X131373920Y-113749500D01*
X131373918Y-113749500D01*
X131226082Y-113749500D01*
X131226080Y-113749500D01*
X131081092Y-113778340D01*
X131081082Y-113778343D01*
X130944511Y-113834912D01*
X130944498Y-113834919D01*
X130821584Y-113917048D01*
X130821580Y-113917051D01*
X130717051Y-114021580D01*
X130717048Y-114021584D01*
X130634919Y-114144498D01*
X130634912Y-114144511D01*
X130578343Y-114281082D01*
X130578340Y-114281092D01*
X130549500Y-114426079D01*
X130549500Y-114426082D01*
X130549500Y-114573918D01*
X130549500Y-114573920D01*
X130549499Y-114573920D01*
X129072525Y-114573920D01*
X129119105Y-114527340D01*
X129119104Y-114527338D01*
X129109428Y-114520308D01*
X129036175Y-114467087D01*
X128825802Y-114359897D01*
X128601247Y-114286934D01*
X128601248Y-114286934D01*
X128368052Y-114250000D01*
X128131948Y-114250000D01*
X127898752Y-114286934D01*
X127674197Y-114359897D01*
X127463830Y-114467084D01*
X127380894Y-114527340D01*
X128079766Y-115226212D01*
X128037708Y-115237482D01*
X127912292Y-115309890D01*
X127809890Y-115412292D01*
X127737482Y-115537708D01*
X127726212Y-115579766D01*
X127027340Y-114880894D01*
X126967084Y-114963830D01*
X126859897Y-115174197D01*
X126786934Y-115398752D01*
X126750000Y-115631947D01*
X123250000Y-115631947D01*
X123213065Y-115398752D01*
X123140102Y-115174197D01*
X123032914Y-114963828D01*
X122972658Y-114880894D01*
X122972658Y-114880893D01*
X122273787Y-115579765D01*
X122262518Y-115537708D01*
X122190110Y-115412292D01*
X122087708Y-115309890D01*
X121962292Y-115237482D01*
X121920234Y-115226212D01*
X122619105Y-114527340D01*
X122619104Y-114527339D01*
X122536174Y-114467087D01*
X122325802Y-114359897D01*
X122101247Y-114286934D01*
X122101248Y-114286934D01*
X121868052Y-114250000D01*
X121631948Y-114250000D01*
X121398752Y-114286934D01*
X121174197Y-114359897D01*
X120963830Y-114467084D01*
X120880894Y-114527340D01*
X121579766Y-115226212D01*
X121537708Y-115237482D01*
X121412292Y-115309890D01*
X121309890Y-115412292D01*
X121237482Y-115537708D01*
X121226212Y-115579766D01*
X120527340Y-114880894D01*
X120467084Y-114963830D01*
X120359897Y-115174197D01*
X120286934Y-115398752D01*
X120250000Y-115631947D01*
X110568522Y-115631947D01*
X110568522Y-112711948D01*
X110588207Y-112644909D01*
X110641011Y-112599154D01*
X110710169Y-112589210D01*
X110773725Y-112618235D01*
X110810453Y-112673630D01*
X110859897Y-112825802D01*
X110967087Y-113036174D01*
X111027338Y-113119104D01*
X111027340Y-113119105D01*
X111726212Y-112420233D01*
X111737482Y-112462292D01*
X111809890Y-112587708D01*
X111912292Y-112690110D01*
X112037708Y-112762518D01*
X112079765Y-112773787D01*
X111380893Y-113472658D01*
X111463828Y-113532914D01*
X111674197Y-113640102D01*
X111898752Y-113713065D01*
X111898751Y-113713065D01*
X112131948Y-113750000D01*
X112368052Y-113750000D01*
X112601247Y-113713065D01*
X112825802Y-113640102D01*
X113036163Y-113532918D01*
X113036169Y-113532914D01*
X113119104Y-113472658D01*
X113119105Y-113472658D01*
X112420233Y-112773787D01*
X112462292Y-112762518D01*
X112587708Y-112690110D01*
X112690110Y-112587708D01*
X112762518Y-112462292D01*
X112773787Y-112420233D01*
X113472658Y-113119105D01*
X113472658Y-113119104D01*
X113532914Y-113036169D01*
X113532918Y-113036163D01*
X113640102Y-112825802D01*
X113713065Y-112601247D01*
X113750000Y-112368052D01*
X113750000Y-112131947D01*
X113749993Y-112131902D01*
X115249500Y-112131902D01*
X115249500Y-112368097D01*
X115286446Y-112601368D01*
X115359433Y-112825996D01*
X115466519Y-113036163D01*
X115466657Y-113036433D01*
X115605483Y-113227510D01*
X115772490Y-113394517D01*
X115963567Y-113533343D01*
X116014754Y-113559424D01*
X116174003Y-113640566D01*
X116174005Y-113640566D01*
X116174008Y-113640568D01*
X116294412Y-113679689D01*
X116398631Y-113713553D01*
X116631903Y-113750500D01*
X116631908Y-113750500D01*
X116868097Y-113750500D01*
X117101368Y-113713553D01*
X117102870Y-113713065D01*
X117325992Y-113640568D01*
X117536433Y-113533343D01*
X117727510Y-113394517D01*
X117894517Y-113227510D01*
X118033343Y-113036433D01*
X118140568Y-112825992D01*
X118213553Y-112601368D01*
X118224327Y-112533342D01*
X118250500Y-112368097D01*
X118250500Y-112131902D01*
X118213553Y-111898631D01*
X118148868Y-111699554D01*
X118140568Y-111674008D01*
X118140566Y-111674005D01*
X118140566Y-111674003D01*
X118084002Y-111562991D01*
X118033343Y-111463567D01*
X117894517Y-111272490D01*
X117753929Y-111131902D01*
X120249500Y-111131902D01*
X120249500Y-111368097D01*
X120286446Y-111601368D01*
X120359433Y-111825996D01*
X120443509Y-111991002D01*
X120466657Y-112036433D01*
X120605483Y-112227510D01*
X120772490Y-112394517D01*
X120963567Y-112533343D01*
X121062991Y-112584002D01*
X121174003Y-112640566D01*
X121174005Y-112640566D01*
X121174008Y-112640568D01*
X121275762Y-112673630D01*
X121398631Y-112713553D01*
X121631903Y-112750500D01*
X121631908Y-112750500D01*
X121868097Y-112750500D01*
X122101368Y-112713553D01*
X122106308Y-112711948D01*
X122325992Y-112640568D01*
X122536433Y-112533343D01*
X122727510Y-112394517D01*
X122894517Y-112227510D01*
X123033343Y-112036433D01*
X123140568Y-111825992D01*
X123213553Y-111601368D01*
X123235337Y-111463828D01*
X123250500Y-111368097D01*
X123250500Y-111131902D01*
X126749500Y-111131902D01*
X126749500Y-111368097D01*
X126786446Y-111601368D01*
X126859433Y-111825996D01*
X126943509Y-111991002D01*
X126966657Y-112036433D01*
X127105483Y-112227510D01*
X127272490Y-112394517D01*
X127463567Y-112533343D01*
X127562991Y-112584002D01*
X127674003Y-112640566D01*
X127674005Y-112640566D01*
X127674008Y-112640568D01*
X127775762Y-112673630D01*
X127898631Y-112713553D01*
X128131903Y-112750500D01*
X128131908Y-112750500D01*
X128368097Y-112750500D01*
X128601368Y-112713553D01*
X128606308Y-112711948D01*
X128825992Y-112640568D01*
X129036433Y-112533343D01*
X129227510Y-112394517D01*
X129394517Y-112227510D01*
X129533343Y-112036433D01*
X129640568Y-111825992D01*
X129713553Y-111601368D01*
X129735337Y-111463828D01*
X129750500Y-111368097D01*
X129750500Y-111131902D01*
X129713553Y-110898631D01*
X129667751Y-110757669D01*
X129640568Y-110674008D01*
X129640566Y-110674005D01*
X129640566Y-110674003D01*
X129571243Y-110537950D01*
X129533343Y-110463567D01*
X129394517Y-110272490D01*
X129227510Y-110105483D01*
X129036433Y-109966657D01*
X128825996Y-109859433D01*
X128601368Y-109786446D01*
X128368097Y-109749500D01*
X128368092Y-109749500D01*
X128131908Y-109749500D01*
X128131903Y-109749500D01*
X127898631Y-109786446D01*
X127674003Y-109859433D01*
X127463566Y-109966657D01*
X127354550Y-110045862D01*
X127272490Y-110105483D01*
X127272488Y-110105485D01*
X127272487Y-110105485D01*
X127105485Y-110272487D01*
X127105485Y-110272488D01*
X127105483Y-110272490D01*
X127045862Y-110354550D01*
X126966657Y-110463566D01*
X126859433Y-110674003D01*
X126786446Y-110898631D01*
X126749500Y-111131902D01*
X123250500Y-111131902D01*
X123213553Y-110898631D01*
X123167751Y-110757669D01*
X123140568Y-110674008D01*
X123140566Y-110674005D01*
X123140566Y-110674003D01*
X123071243Y-110537950D01*
X123033343Y-110463567D01*
X122894517Y-110272490D01*
X122727510Y-110105483D01*
X122536433Y-109966657D01*
X122325996Y-109859433D01*
X122101368Y-109786446D01*
X121868097Y-109749500D01*
X121868092Y-109749500D01*
X121631908Y-109749500D01*
X121631903Y-109749500D01*
X121398631Y-109786446D01*
X121174003Y-109859433D01*
X120963566Y-109966657D01*
X120854550Y-110045862D01*
X120772490Y-110105483D01*
X120772488Y-110105485D01*
X120772487Y-110105485D01*
X120605485Y-110272487D01*
X120605485Y-110272488D01*
X120605483Y-110272490D01*
X120545862Y-110354550D01*
X120466657Y-110463566D01*
X120359433Y-110674003D01*
X120286446Y-110898631D01*
X120249500Y-111131902D01*
X117753929Y-111131902D01*
X117727510Y-111105483D01*
X117536433Y-110966657D01*
X117507918Y-110952128D01*
X117325996Y-110859433D01*
X117101368Y-110786446D01*
X116868097Y-110749500D01*
X116868092Y-110749500D01*
X116631908Y-110749500D01*
X116631903Y-110749500D01*
X116398631Y-110786446D01*
X116174003Y-110859433D01*
X115963566Y-110966657D01*
X115881770Y-111026086D01*
X115772490Y-111105483D01*
X115772488Y-111105485D01*
X115772487Y-111105485D01*
X115605485Y-111272487D01*
X115605485Y-111272488D01*
X115605483Y-111272490D01*
X115595617Y-111286070D01*
X115466657Y-111463566D01*
X115359433Y-111674003D01*
X115286446Y-111898631D01*
X115249500Y-112131902D01*
X113749993Y-112131902D01*
X113713065Y-111898752D01*
X113640102Y-111674197D01*
X113532914Y-111463828D01*
X113472658Y-111380894D01*
X113472658Y-111380893D01*
X112773787Y-112079765D01*
X112762518Y-112037708D01*
X112690110Y-111912292D01*
X112587708Y-111809890D01*
X112462292Y-111737482D01*
X112420234Y-111726212D01*
X113119105Y-111027340D01*
X113119104Y-111027338D01*
X113036174Y-110967087D01*
X112825802Y-110859897D01*
X112601247Y-110786934D01*
X112601248Y-110786934D01*
X112368052Y-110750000D01*
X112131948Y-110750000D01*
X111898752Y-110786934D01*
X111674197Y-110859897D01*
X111463830Y-110967084D01*
X111380894Y-111027340D01*
X112079766Y-111726212D01*
X112037708Y-111737482D01*
X111912292Y-111809890D01*
X111809890Y-111912292D01*
X111737482Y-112037708D01*
X111726212Y-112079766D01*
X111027340Y-111380894D01*
X110967084Y-111463830D01*
X110859897Y-111674195D01*
X110810453Y-111826370D01*
X110771015Y-111884045D01*
X110706656Y-111911243D01*
X110637810Y-111899328D01*
X110586334Y-111852084D01*
X110568522Y-111788051D01*
X110568522Y-106211948D01*
X110588207Y-106144909D01*
X110641011Y-106099154D01*
X110710169Y-106089210D01*
X110773725Y-106118235D01*
X110810453Y-106173630D01*
X110859897Y-106325802D01*
X110967087Y-106536174D01*
X111027338Y-106619104D01*
X111027340Y-106619105D01*
X111726212Y-105920233D01*
X111737482Y-105962292D01*
X111809890Y-106087708D01*
X111912292Y-106190110D01*
X112037708Y-106262518D01*
X112079765Y-106273787D01*
X111380893Y-106972658D01*
X111463828Y-107032914D01*
X111674197Y-107140102D01*
X111898752Y-107213065D01*
X111898751Y-107213065D01*
X112131948Y-107250000D01*
X112368052Y-107250000D01*
X112601247Y-107213065D01*
X112825802Y-107140102D01*
X113036163Y-107032918D01*
X113036169Y-107032914D01*
X113119104Y-106972658D01*
X113119105Y-106972658D01*
X112420233Y-106273787D01*
X112462292Y-106262518D01*
X112587708Y-106190110D01*
X112690110Y-106087708D01*
X112762518Y-105962292D01*
X112773787Y-105920233D01*
X113472658Y-106619105D01*
X113472658Y-106619104D01*
X113532914Y-106536169D01*
X113532918Y-106536163D01*
X113640102Y-106325802D01*
X113713065Y-106101247D01*
X113750000Y-105868052D01*
X113750000Y-105631947D01*
X113749993Y-105631902D01*
X115249500Y-105631902D01*
X115249500Y-105868097D01*
X115286446Y-106101368D01*
X115359433Y-106325996D01*
X115445210Y-106494341D01*
X115466657Y-106536433D01*
X115605483Y-106727510D01*
X115772490Y-106894517D01*
X115963567Y-107033343D01*
X115991152Y-107047398D01*
X116174003Y-107140566D01*
X116174005Y-107140566D01*
X116174008Y-107140568D01*
X116256416Y-107167344D01*
X116398631Y-107213553D01*
X116631903Y-107250500D01*
X116631908Y-107250500D01*
X116868097Y-107250500D01*
X117101368Y-107213553D01*
X117102870Y-107213065D01*
X117325992Y-107140568D01*
X117536433Y-107033343D01*
X117727510Y-106894517D01*
X117894517Y-106727510D01*
X118033343Y-106536433D01*
X118140568Y-106325992D01*
X118213553Y-106101368D01*
X118229690Y-105999484D01*
X118250500Y-105868097D01*
X118250500Y-105631902D01*
X118213553Y-105398631D01*
X118177623Y-105288051D01*
X118140568Y-105174008D01*
X118140566Y-105174005D01*
X118140566Y-105174003D01*
X118084002Y-105062991D01*
X118033343Y-104963567D01*
X117894517Y-104772490D01*
X117727510Y-104605483D01*
X117536433Y-104466657D01*
X117532190Y-104464495D01*
X117325996Y-104359433D01*
X117101368Y-104286446D01*
X116868097Y-104249500D01*
X116868092Y-104249500D01*
X116631908Y-104249500D01*
X116631903Y-104249500D01*
X116398631Y-104286446D01*
X116174003Y-104359433D01*
X115963566Y-104466657D01*
X115875286Y-104530797D01*
X115772490Y-104605483D01*
X115772488Y-104605485D01*
X115772487Y-104605485D01*
X115605485Y-104772487D01*
X115605485Y-104772488D01*
X115605483Y-104772490D01*
X115569738Y-104821689D01*
X115466657Y-104963566D01*
X115359433Y-105174003D01*
X115286446Y-105398631D01*
X115249500Y-105631902D01*
X113749993Y-105631902D01*
X113713065Y-105398752D01*
X113640102Y-105174197D01*
X113532914Y-104963828D01*
X113472658Y-104880894D01*
X113472658Y-104880893D01*
X112773787Y-105579765D01*
X112762518Y-105537708D01*
X112690110Y-105412292D01*
X112587708Y-105309890D01*
X112462292Y-105237482D01*
X112420234Y-105226212D01*
X113119105Y-104527340D01*
X113119104Y-104527338D01*
X113036174Y-104467087D01*
X112825802Y-104359897D01*
X112601247Y-104286934D01*
X112601248Y-104286934D01*
X112368052Y-104250000D01*
X112131948Y-104250000D01*
X111898752Y-104286934D01*
X111674197Y-104359897D01*
X111463830Y-104467084D01*
X111380894Y-104527340D01*
X112079766Y-105226212D01*
X112037708Y-105237482D01*
X111912292Y-105309890D01*
X111809890Y-105412292D01*
X111737482Y-105537708D01*
X111726212Y-105579766D01*
X111027340Y-104880894D01*
X110967084Y-104963830D01*
X110859897Y-105174195D01*
X110810453Y-105326370D01*
X110771015Y-105384045D01*
X110706656Y-105411243D01*
X110637810Y-105399328D01*
X110586334Y-105352084D01*
X110568522Y-105288051D01*
X110568522Y-92073920D01*
X162349499Y-92073920D01*
X162378340Y-92218907D01*
X162378343Y-92218917D01*
X162434912Y-92355488D01*
X162434919Y-92355501D01*
X162517048Y-92478415D01*
X162517051Y-92478419D01*
X162621580Y-92582948D01*
X162621584Y-92582951D01*
X162725849Y-92652619D01*
X162770654Y-92706231D01*
X162779361Y-92775556D01*
X162778575Y-92779913D01*
X162749500Y-92926079D01*
X162749500Y-92926082D01*
X162749500Y-93073918D01*
X162749500Y-93073920D01*
X162749499Y-93073920D01*
X162778340Y-93218907D01*
X162778343Y-93218917D01*
X162834912Y-93355488D01*
X162834919Y-93355501D01*
X162917048Y-93478415D01*
X162917051Y-93478419D01*
X163021580Y-93582948D01*
X163021584Y-93582951D01*
X163144498Y-93665080D01*
X163144511Y-93665087D01*
X163281082Y-93721656D01*
X163281087Y-93721658D01*
X163281091Y-93721658D01*
X163281092Y-93721659D01*
X163426079Y-93750500D01*
X163426082Y-93750500D01*
X163573920Y-93750500D01*
X163671462Y-93731096D01*
X163718913Y-93721658D01*
X163855495Y-93665084D01*
X163978416Y-93582951D01*
X164082951Y-93478416D01*
X164165084Y-93355495D01*
X164221658Y-93218913D01*
X164238366Y-93134919D01*
X164250500Y-93073920D01*
X164250500Y-92926079D01*
X164221659Y-92781092D01*
X164221658Y-92781091D01*
X164221658Y-92781087D01*
X164185600Y-92694035D01*
X164165087Y-92644511D01*
X164165080Y-92644498D01*
X164082951Y-92521584D01*
X164082948Y-92521580D01*
X163978419Y-92417051D01*
X163978415Y-92417048D01*
X163874150Y-92347380D01*
X163829345Y-92293768D01*
X163820638Y-92224443D01*
X163821424Y-92220085D01*
X163821656Y-92218916D01*
X163821658Y-92218913D01*
X163850500Y-92073918D01*
X163850500Y-91926082D01*
X163850500Y-91926079D01*
X163821659Y-91781092D01*
X163821658Y-91781091D01*
X163821658Y-91781087D01*
X163821656Y-91781082D01*
X163765087Y-91644511D01*
X163765080Y-91644498D01*
X163682951Y-91521584D01*
X163682948Y-91521580D01*
X163578419Y-91417051D01*
X163578415Y-91417048D01*
X163455501Y-91334919D01*
X163455488Y-91334912D01*
X163318917Y-91278343D01*
X163318907Y-91278340D01*
X163173920Y-91249500D01*
X163173918Y-91249500D01*
X163026082Y-91249500D01*
X163026080Y-91249500D01*
X162881092Y-91278340D01*
X162881082Y-91278343D01*
X162744511Y-91334912D01*
X162744498Y-91334919D01*
X162621584Y-91417048D01*
X162621580Y-91417051D01*
X162517051Y-91521580D01*
X162517048Y-91521584D01*
X162434919Y-91644498D01*
X162434912Y-91644511D01*
X162378343Y-91781082D01*
X162378340Y-91781092D01*
X162349500Y-91926079D01*
X162349500Y-91926082D01*
X162349500Y-92073918D01*
X162349500Y-92073920D01*
X162349499Y-92073920D01*
X110568522Y-92073920D01*
X110568522Y-84818234D01*
X111000000Y-84818234D01*
X111000000Y-85181765D01*
X111035632Y-85543556D01*
X111106550Y-85900090D01*
X111106553Y-85900101D01*
X111212086Y-86247997D01*
X111351207Y-86583864D01*
X111351209Y-86583869D01*
X111522570Y-86904462D01*
X111522581Y-86904480D01*
X111724551Y-87206750D01*
X111911678Y-87434765D01*
X111911679Y-87434766D01*
X113405747Y-85940697D01*
X113479588Y-86042330D01*
X113657670Y-86220412D01*
X113759301Y-86294251D01*
X112265232Y-87788319D01*
X112265233Y-87788320D01*
X112493249Y-87975448D01*
X112795519Y-88177418D01*
X112795537Y-88177429D01*
X113116130Y-88348790D01*
X113116135Y-88348792D01*
X113452002Y-88487913D01*
X113799898Y-88593446D01*
X113799909Y-88593449D01*
X114156443Y-88664367D01*
X114518234Y-88700000D01*
X114881766Y-88700000D01*
X115243556Y-88664367D01*
X115600090Y-88593449D01*
X115600101Y-88593446D01*
X115947997Y-88487913D01*
X116283864Y-88348792D01*
X116283869Y-88348790D01*
X116604462Y-88177429D01*
X116604480Y-88177418D01*
X116906736Y-87975457D01*
X116906750Y-87975447D01*
X117134765Y-87788320D01*
X117134766Y-87788319D01*
X115640698Y-86294251D01*
X115742330Y-86220412D01*
X115920412Y-86042330D01*
X115994251Y-85940698D01*
X117488319Y-87434766D01*
X117488320Y-87434765D01*
X117675447Y-87206750D01*
X117675457Y-87206736D01*
X117877418Y-86904480D01*
X117877420Y-86904477D01*
X117878638Y-86902199D01*
X117878641Y-86902195D01*
X117878642Y-86902193D01*
X118048790Y-86583869D01*
X118048792Y-86583864D01*
X118187913Y-86247997D01*
X118293446Y-85900101D01*
X118293449Y-85900090D01*
X118364367Y-85543556D01*
X118380922Y-85375466D01*
X122600000Y-85375466D01*
X122600000Y-85624533D01*
X122632508Y-85871463D01*
X122696973Y-86112049D01*
X122792283Y-86342148D01*
X122792288Y-86342159D01*
X122916813Y-86557841D01*
X122916819Y-86557849D01*
X122991400Y-86655045D01*
X123898958Y-85747487D01*
X123923978Y-85807890D01*
X123995112Y-85914351D01*
X124085649Y-86004888D01*
X124192110Y-86076022D01*
X124252511Y-86101041D01*
X123344953Y-87008598D01*
X123442150Y-87083180D01*
X123442158Y-87083186D01*
X123657840Y-87207711D01*
X123657851Y-87207716D01*
X123887950Y-87303026D01*
X124128536Y-87367491D01*
X124375466Y-87400000D01*
X124624534Y-87400000D01*
X124871463Y-87367491D01*
X125112049Y-87303026D01*
X125342148Y-87207716D01*
X125342159Y-87207711D01*
X125557855Y-87083178D01*
X125655045Y-87008600D01*
X125655045Y-87008597D01*
X124747488Y-86101041D01*
X124807890Y-86076022D01*
X124914351Y-86004888D01*
X125004888Y-85914351D01*
X125076022Y-85807890D01*
X125101041Y-85747489D01*
X126008597Y-86655045D01*
X126008600Y-86655045D01*
X126083178Y-86557855D01*
X126207711Y-86342159D01*
X126207716Y-86342148D01*
X126303026Y-86112049D01*
X126367491Y-85871463D01*
X126400000Y-85624533D01*
X126400000Y-85375466D01*
X126367491Y-85128536D01*
X126303026Y-84887950D01*
X126207716Y-84657851D01*
X126207711Y-84657840D01*
X126083186Y-84442158D01*
X126083174Y-84442140D01*
X126029600Y-84372322D01*
X126029599Y-84372321D01*
X126008598Y-84344953D01*
X125101041Y-85252510D01*
X125076022Y-85192110D01*
X125004888Y-85085649D01*
X124914351Y-84995112D01*
X124807890Y-84923978D01*
X124747487Y-84898957D01*
X125346461Y-84299984D01*
X127599500Y-84299984D01*
X127599500Y-86700015D01*
X127610000Y-86802795D01*
X127610001Y-86802796D01*
X127665186Y-86969335D01*
X127665187Y-86969337D01*
X127757286Y-87118651D01*
X127757289Y-87118655D01*
X127881344Y-87242710D01*
X127881348Y-87242713D01*
X128030662Y-87334812D01*
X128030664Y-87334813D01*
X128030666Y-87334814D01*
X128197203Y-87389999D01*
X128299992Y-87400500D01*
X128299997Y-87400500D01*
X130700003Y-87400500D01*
X130700008Y-87400500D01*
X130802797Y-87389999D01*
X130969334Y-87334814D01*
X131118655Y-87242711D01*
X131242711Y-87118655D01*
X131334814Y-86969334D01*
X131389999Y-86802797D01*
X131400500Y-86700008D01*
X131400500Y-84818234D01*
X147300000Y-84818234D01*
X147300000Y-85181765D01*
X147335632Y-85543556D01*
X147406550Y-85900090D01*
X147406553Y-85900101D01*
X147512086Y-86247997D01*
X147651207Y-86583864D01*
X147651209Y-86583869D01*
X147822570Y-86904462D01*
X147822581Y-86904480D01*
X148024551Y-87206750D01*
X148211678Y-87434765D01*
X148211679Y-87434766D01*
X149705747Y-85940697D01*
X149779588Y-86042330D01*
X149957670Y-86220412D01*
X150059301Y-86294251D01*
X148565232Y-87788319D01*
X148565233Y-87788320D01*
X148793249Y-87975448D01*
X149095519Y-88177418D01*
X149095537Y-88177429D01*
X149416130Y-88348790D01*
X149416135Y-88348792D01*
X149752002Y-88487913D01*
X150099898Y-88593446D01*
X150099909Y-88593449D01*
X150456443Y-88664367D01*
X150818234Y-88700000D01*
X151181766Y-88700000D01*
X151543556Y-88664367D01*
X151900090Y-88593449D01*
X151900101Y-88593446D01*
X152247997Y-88487913D01*
X152583864Y-88348792D01*
X152583869Y-88348790D01*
X152904462Y-88177429D01*
X152904480Y-88177418D01*
X153206736Y-87975457D01*
X153206750Y-87975447D01*
X153434765Y-87788320D01*
X153434766Y-87788319D01*
X151940698Y-86294251D01*
X152042330Y-86220412D01*
X152220412Y-86042330D01*
X152294251Y-85940698D01*
X153788319Y-87434766D01*
X153788320Y-87434765D01*
X153975447Y-87206750D01*
X153975457Y-87206736D01*
X154177418Y-86904480D01*
X154177429Y-86904462D01*
X154348790Y-86583869D01*
X154348792Y-86583864D01*
X154487913Y-86247997D01*
X154593446Y-85900101D01*
X154593449Y-85900090D01*
X154664367Y-85543556D01*
X154700000Y-85181765D01*
X154700000Y-84818234D01*
X154664367Y-84456443D01*
X154593449Y-84099909D01*
X154593446Y-84099898D01*
X154487913Y-83752002D01*
X154348792Y-83416135D01*
X154348790Y-83416130D01*
X154177429Y-83095537D01*
X154177418Y-83095519D01*
X153975448Y-82793249D01*
X153788320Y-82565233D01*
X153788319Y-82565232D01*
X152294251Y-84059300D01*
X152220412Y-83957670D01*
X152042330Y-83779588D01*
X151940698Y-83705748D01*
X153434766Y-82211679D01*
X153434765Y-82211678D01*
X153206750Y-82024551D01*
X152904480Y-81822581D01*
X152904462Y-81822570D01*
X152583869Y-81651209D01*
X152583864Y-81651207D01*
X152247997Y-81512086D01*
X151900101Y-81406553D01*
X151900090Y-81406550D01*
X151543556Y-81335632D01*
X151181766Y-81300000D01*
X150818234Y-81300000D01*
X150456443Y-81335632D01*
X150099909Y-81406550D01*
X150099898Y-81406553D01*
X149752002Y-81512086D01*
X149416135Y-81651207D01*
X149416130Y-81651209D01*
X149095537Y-81822570D01*
X149095519Y-81822581D01*
X148793258Y-82024545D01*
X148793254Y-82024548D01*
X148565233Y-82211679D01*
X148565233Y-82211680D01*
X150059301Y-83705748D01*
X149957670Y-83779588D01*
X149779588Y-83957670D01*
X149705748Y-84059301D01*
X148211680Y-82565233D01*
X148211679Y-82565233D01*
X148024548Y-82793254D01*
X148024545Y-82793258D01*
X147822581Y-83095519D01*
X147822570Y-83095537D01*
X147651209Y-83416130D01*
X147651207Y-83416135D01*
X147512086Y-83752002D01*
X147406553Y-84099898D01*
X147406550Y-84099909D01*
X147335632Y-84456443D01*
X147300000Y-84818234D01*
X131400500Y-84818234D01*
X131400500Y-84299992D01*
X131389999Y-84197203D01*
X131334814Y-84030666D01*
X131310594Y-83991400D01*
X131242713Y-83881348D01*
X131242710Y-83881344D01*
X131118655Y-83757289D01*
X131118651Y-83757286D01*
X130969337Y-83665187D01*
X130969335Y-83665186D01*
X130886065Y-83637593D01*
X130802797Y-83610001D01*
X130802795Y-83610000D01*
X130700015Y-83599500D01*
X130700008Y-83599500D01*
X128299992Y-83599500D01*
X128299984Y-83599500D01*
X128197204Y-83610000D01*
X128197203Y-83610001D01*
X128030664Y-83665186D01*
X128030662Y-83665187D01*
X127881348Y-83757286D01*
X127881344Y-83757289D01*
X127757289Y-83881344D01*
X127757286Y-83881348D01*
X127665187Y-84030662D01*
X127665186Y-84030664D01*
X127610001Y-84197203D01*
X127610000Y-84197204D01*
X127599500Y-84299984D01*
X125346461Y-84299984D01*
X125655045Y-83991400D01*
X125557849Y-83916819D01*
X125557841Y-83916813D01*
X125342159Y-83792288D01*
X125342148Y-83792283D01*
X125112049Y-83696973D01*
X124871463Y-83632508D01*
X124624534Y-83600000D01*
X124375466Y-83600000D01*
X124128536Y-83632508D01*
X123887950Y-83696973D01*
X123657851Y-83792283D01*
X123657847Y-83792285D01*
X123442143Y-83916823D01*
X123344953Y-83991399D01*
X123344953Y-83991400D01*
X124252511Y-84898958D01*
X124192110Y-84923978D01*
X124085649Y-84995112D01*
X123995112Y-85085649D01*
X123923978Y-85192110D01*
X123898958Y-85252511D01*
X122991400Y-84344953D01*
X122991399Y-84344953D01*
X122916823Y-84442143D01*
X122792285Y-84657847D01*
X122792283Y-84657851D01*
X122696973Y-84887950D01*
X122632508Y-85128536D01*
X122600000Y-85375466D01*
X118380922Y-85375466D01*
X118382519Y-85359254D01*
X118400000Y-85181765D01*
X118400000Y-84818234D01*
X118364367Y-84456443D01*
X118293449Y-84099909D01*
X118293446Y-84099898D01*
X118285999Y-84075348D01*
X118187913Y-83752002D01*
X118048792Y-83416135D01*
X118048790Y-83416130D01*
X117877429Y-83095537D01*
X117877418Y-83095519D01*
X117675448Y-82793249D01*
X117488320Y-82565233D01*
X117488319Y-82565232D01*
X115994251Y-84059300D01*
X115920412Y-83957670D01*
X115742330Y-83779588D01*
X115640698Y-83705748D01*
X117134766Y-82211679D01*
X117134765Y-82211678D01*
X116906750Y-82024551D01*
X116604480Y-81822581D01*
X116604462Y-81822570D01*
X116283869Y-81651209D01*
X116283864Y-81651207D01*
X115947997Y-81512086D01*
X115600101Y-81406553D01*
X115600090Y-81406550D01*
X115243556Y-81335632D01*
X114881766Y-81300000D01*
X114518234Y-81300000D01*
X114156443Y-81335632D01*
X113799909Y-81406550D01*
X113799898Y-81406553D01*
X113452002Y-81512086D01*
X113116135Y-81651207D01*
X113116130Y-81651209D01*
X112795537Y-81822570D01*
X112795519Y-81822581D01*
X112493258Y-82024545D01*
X112493254Y-82024548D01*
X112265233Y-82211679D01*
X112265233Y-82211680D01*
X113759301Y-83705748D01*
X113657670Y-83779588D01*
X113479588Y-83957670D01*
X113405748Y-84059301D01*
X111911680Y-82565233D01*
X111911679Y-82565233D01*
X111724548Y-82793254D01*
X111724545Y-82793258D01*
X111522581Y-83095519D01*
X111522570Y-83095537D01*
X111351209Y-83416130D01*
X111351207Y-83416135D01*
X111212086Y-83752002D01*
X111106553Y-84099898D01*
X111106550Y-84099909D01*
X111035632Y-84456443D01*
X111000000Y-84818234D01*
X110568522Y-84818234D01*
X110568522Y-83388527D01*
X110568523Y-83388525D01*
X110568522Y-83326380D01*
X110568748Y-83318895D01*
X110578921Y-83150678D01*
X110586290Y-83028827D01*
X110588093Y-83013977D01*
X110639795Y-82731829D01*
X110643371Y-82717316D01*
X110728712Y-82443441D01*
X110734019Y-82429450D01*
X110832962Y-82209604D01*
X110851736Y-82167887D01*
X110858691Y-82154636D01*
X111007086Y-81909157D01*
X111015579Y-81896852D01*
X111192491Y-81671038D01*
X111202406Y-81659847D01*
X111405237Y-81457015D01*
X111416428Y-81447100D01*
X111642242Y-81270186D01*
X111654538Y-81261699D01*
X111900029Y-81113294D01*
X111913262Y-81106349D01*
X112174855Y-80988615D01*
X112188820Y-80983319D01*
X112462695Y-80897978D01*
X112477220Y-80894398D01*
X112759362Y-80842695D01*
X112774216Y-80840891D01*
X113064001Y-80823364D01*
X113071483Y-80823139D01*
X113133910Y-80823140D01*
X113133914Y-80823139D01*
X155663166Y-80823139D01*
X155730205Y-80842824D01*
G37*
%TD.AperFunction*%
%TD*%
M02*
